G04 #@! TF.GenerationSoftware,KiCad,Pcbnew,(7.0.0-0)*
G04 #@! TF.CreationDate,2023-02-21T12:21:14+09:00*
G04 #@! TF.ProjectId,MEZ80SD,4d455a38-3053-4442-9e6b-696361645f70,A*
G04 #@! TF.SameCoordinates,PX5f5e100PY8f0d180*
G04 #@! TF.FileFunction,Soldermask,Top*
G04 #@! TF.FilePolarity,Negative*
%FSLAX46Y46*%
G04 Gerber Fmt 4.6, Leading zero omitted, Abs format (unit mm)*
G04 Created by KiCad (PCBNEW (7.0.0-0)) date 2023-02-21 12:21:14*
%MOMM*%
%LPD*%
G01*
G04 APERTURE LIST*
%ADD10R,1.600000X1.600000*%
%ADD11O,1.600000X1.600000*%
%ADD12R,1.700000X1.700000*%
%ADD13O,1.700000X1.700000*%
%ADD14C,1.600000*%
%ADD15C,0.605000*%
G04 APERTURE END LIST*
D10*
X29209999Y50799999D03*
D11*
X29209999Y48259999D03*
X29209999Y45719999D03*
X29209999Y43179999D03*
X29209999Y40639999D03*
X29209999Y38099999D03*
X29209999Y35559999D03*
X29209999Y33019999D03*
X29209999Y30479999D03*
X29209999Y27939999D03*
X29209999Y25399999D03*
X29209999Y22859999D03*
X29209999Y20319999D03*
X29209999Y17779999D03*
X29209999Y15239999D03*
X29209999Y12699999D03*
X44449999Y12699999D03*
X44449999Y15239999D03*
X44449999Y17779999D03*
X44449999Y20319999D03*
X44449999Y22859999D03*
X44449999Y25399999D03*
X44449999Y27939999D03*
X44449999Y30479999D03*
X44449999Y33019999D03*
X44449999Y35559999D03*
X44449999Y38099999D03*
X44449999Y40639999D03*
X44449999Y43179999D03*
X44449999Y45719999D03*
X44449999Y48259999D03*
X44449999Y50799999D03*
D10*
X7619999Y50799999D03*
D11*
X7619999Y48259999D03*
X7619999Y45719999D03*
X7619999Y43179999D03*
X7619999Y40639999D03*
X7619999Y38099999D03*
X7619999Y35559999D03*
X7619999Y33019999D03*
X7619999Y30479999D03*
X7619999Y27939999D03*
X7619999Y25399999D03*
X7619999Y22859999D03*
X7619999Y20319999D03*
X7619999Y17779999D03*
X7619999Y15239999D03*
X7619999Y12699999D03*
X7619999Y10159999D03*
X7619999Y7619999D03*
X7619999Y5079999D03*
X7619999Y2539999D03*
X22859999Y2539999D03*
X22859999Y5079999D03*
X22859999Y7619999D03*
X22859999Y10159999D03*
X22859999Y12699999D03*
X22859999Y15239999D03*
X22859999Y17779999D03*
X22859999Y20319999D03*
X22859999Y22859999D03*
X22859999Y25399999D03*
X22859999Y27939999D03*
X22859999Y30479999D03*
X22859999Y33019999D03*
X22859999Y35559999D03*
X22859999Y38099999D03*
X22859999Y40639999D03*
X22859999Y43179999D03*
X22859999Y45719999D03*
X22859999Y48259999D03*
X22859999Y50799999D03*
D12*
X67944999Y15239999D03*
D13*
X65404999Y15239999D03*
X62864999Y15239999D03*
X60324999Y15239999D03*
X57784999Y15239999D03*
X55244999Y15239999D03*
D14*
X41950000Y55245000D03*
X44450000Y55245000D03*
X1905000Y40640000D03*
D11*
X1904999Y50799999D03*
D14*
X1905000Y25400000D03*
X1905000Y22900000D03*
X1905000Y38100000D03*
D11*
X1904999Y27939999D03*
D12*
X5084999Y50804999D03*
D13*
X5084999Y48264999D03*
X5084999Y45724999D03*
X5084999Y43184999D03*
X5084999Y40644999D03*
X5084999Y38104999D03*
X5084999Y35564999D03*
X5084999Y33024999D03*
X5084999Y30484999D03*
X5084999Y27944999D03*
X5084999Y25404999D03*
X5084999Y22864999D03*
X5084999Y20324999D03*
X5084999Y17784999D03*
X5084999Y15244999D03*
X5084999Y12704999D03*
X5084999Y10164999D03*
X5084999Y7624999D03*
X5084999Y5084999D03*
X5084999Y2544999D03*
D12*
X25404999Y50799999D03*
D13*
X25404999Y48259999D03*
X25404999Y45719999D03*
X25404999Y43179999D03*
X25404999Y40639999D03*
X25404999Y38099999D03*
X25404999Y35559999D03*
X25404999Y33019999D03*
X25404999Y30479999D03*
X25404999Y27939999D03*
X25404999Y25399999D03*
X25404999Y22859999D03*
X25404999Y20319999D03*
X25404999Y17779999D03*
X25404999Y15239999D03*
X25404999Y12699999D03*
X25404999Y10159999D03*
X25404999Y7619999D03*
X25404999Y5079999D03*
X25404999Y2539999D03*
D15*
X10795000Y45720000D03*
X55245000Y50800000D03*
X41275000Y22860000D03*
X55245000Y35560000D03*
X10795000Y50800000D03*
X10160000Y2540000D03*
X73025000Y8890000D03*
X41275000Y33020000D03*
X67945000Y50800000D03*
X27305000Y34290000D03*
X41275000Y38100000D03*
X10795000Y15875000D03*
X73025000Y55880000D03*
X32385000Y38100000D03*
X1905000Y1270000D03*
X10795000Y24130000D03*
X41275000Y17780000D03*
X10795000Y41910000D03*
X67945000Y35560000D03*
X41275000Y20320000D03*
X32385000Y48260000D03*
X10795000Y18415000D03*
X10795000Y34290000D03*
X10795000Y20320000D03*
X41275000Y13335000D03*
X32385000Y33020000D03*
X21209000Y18900400D03*
X21209000Y16510000D03*
X20081500Y21245400D03*
X19776700Y26494000D03*
X20995900Y29041000D03*
M02*
