M48
; DRILL file {KiCad (7.0.0-0)} date 
; FORMAT={-:-/ absolute / metric / decimal}
; #@! TF.CreationDate,2023-02-21T12:21:17+09:00
; #@! TF.GenerationSoftware,Kicad,Pcbnew,(7.0.0-0)
; #@! TF.FileFunction,MixedPlating,1,2
FMAT,2
METRIC
; #@! TA.AperFunction,Plated,PTH,ViaDrill
T1C0.300
; #@! TA.AperFunction,Plated,PTH,ComponentDrill
T2C0.800
; #@! TA.AperFunction,Plated,PTH,ComponentDrill
T3C1.000
%
G90
G05
T1
X1.905Y1.27
X10.16Y2.54
X10.795Y50.8
X10.795Y45.72
X10.795Y41.91
X10.795Y34.29
X10.795Y24.13
X10.795Y20.32
X10.795Y18.415
X10.795Y15.875
X19.777Y26.494
X20.081Y21.245
X20.996Y29.041
X21.209Y18.9
X21.209Y16.51
X27.305Y34.29
X32.385Y48.26
X32.385Y38.1
X32.385Y33.02
X41.275Y38.1
X41.275Y33.02
X41.275Y22.86
X41.275Y20.32
X41.275Y17.78
X41.275Y13.335
X55.245Y50.8
X55.245Y35.56
X67.945Y50.8
X67.945Y35.56
X73.025Y55.88
X73.025Y8.89
T2
X1.905Y50.8
X1.905Y40.64
X1.905Y38.1
X1.905Y27.94
X1.905Y25.4
X1.905Y22.9
X7.62Y50.8
X7.62Y48.26
X7.62Y45.72
X7.62Y43.18
X7.62Y40.64
X7.62Y38.1
X7.62Y35.56
X7.62Y33.02
X7.62Y30.48
X7.62Y27.94
X7.62Y25.4
X7.62Y22.86
X7.62Y20.32
X7.62Y17.78
X7.62Y15.24
X7.62Y12.7
X7.62Y10.16
X7.62Y7.62
X7.62Y5.08
X7.62Y2.54
X22.86Y50.8
X22.86Y48.26
X22.86Y45.72
X22.86Y43.18
X22.86Y40.64
X22.86Y38.1
X22.86Y35.56
X22.86Y33.02
X22.86Y30.48
X22.86Y27.94
X22.86Y25.4
X22.86Y22.86
X22.86Y20.32
X22.86Y17.78
X22.86Y15.24
X22.86Y12.7
X22.86Y10.16
X22.86Y7.62
X22.86Y5.08
X22.86Y2.54
X29.21Y50.8
X29.21Y48.26
X29.21Y45.72
X29.21Y43.18
X29.21Y40.64
X29.21Y38.1
X29.21Y35.56
X29.21Y33.02
X29.21Y30.48
X29.21Y27.94
X29.21Y25.4
X29.21Y22.86
X29.21Y20.32
X29.21Y17.78
X29.21Y15.24
X29.21Y12.7
X41.95Y55.245
X44.45Y55.245
X44.45Y50.8
X44.45Y48.26
X44.45Y45.72
X44.45Y43.18
X44.45Y40.64
X44.45Y38.1
X44.45Y35.56
X44.45Y33.02
X44.45Y30.48
X44.45Y27.94
X44.45Y25.4
X44.45Y22.86
X44.45Y20.32
X44.45Y17.78
X44.45Y15.24
X44.45Y12.7
T3
X5.085Y50.805
X5.085Y48.265
X5.085Y45.725
X5.085Y43.185
X5.085Y40.645
X5.085Y38.105
X5.085Y35.565
X5.085Y33.025
X5.085Y30.485
X5.085Y27.945
X5.085Y25.405
X5.085Y22.865
X5.085Y20.325
X5.085Y17.785
X5.085Y15.245
X5.085Y12.705
X5.085Y10.165
X5.085Y7.625
X5.085Y5.085
X5.085Y2.545
X25.405Y50.8
X25.405Y48.26
X25.405Y45.72
X25.405Y43.18
X25.405Y40.64
X25.405Y38.1
X25.405Y35.56
X25.405Y33.02
X25.405Y30.48
X25.405Y27.94
X25.405Y25.4
X25.405Y22.86
X25.405Y20.32
X25.405Y17.78
X25.405Y15.24
X25.405Y12.7
X25.405Y10.16
X25.405Y7.62
X25.405Y5.08
X25.405Y2.54
X55.245Y15.24
X57.785Y15.24
X60.325Y15.24
X62.865Y15.24
X65.405Y15.24
X67.945Y15.24
T0
M30
