G04 #@! TF.GenerationSoftware,KiCad,Pcbnew,(7.0.0-0)*
G04 #@! TF.CreationDate,2023-02-21T12:21:14+09:00*
G04 #@! TF.ProjectId,MEZ80SD,4d455a38-3053-4442-9e6b-696361645f70,A*
G04 #@! TF.SameCoordinates,PX5f5e100PY8f0d180*
G04 #@! TF.FileFunction,Copper,L2,Bot*
G04 #@! TF.FilePolarity,Positive*
%FSLAX46Y46*%
G04 Gerber Fmt 4.6, Leading zero omitted, Abs format (unit mm)*
G04 Created by KiCad (PCBNEW (7.0.0-0)) date 2023-02-21 12:21:14*
%MOMM*%
%LPD*%
G01*
G04 APERTURE LIST*
G04 #@! TA.AperFunction,ComponentPad*
%ADD10R,1.600000X1.600000*%
G04 #@! TD*
G04 #@! TA.AperFunction,ComponentPad*
%ADD11O,1.600000X1.600000*%
G04 #@! TD*
G04 #@! TA.AperFunction,ComponentPad*
%ADD12R,1.700000X1.700000*%
G04 #@! TD*
G04 #@! TA.AperFunction,ComponentPad*
%ADD13O,1.700000X1.700000*%
G04 #@! TD*
G04 #@! TA.AperFunction,ComponentPad*
%ADD14C,1.600000*%
G04 #@! TD*
G04 #@! TA.AperFunction,ViaPad*
%ADD15C,0.605000*%
G04 #@! TD*
G04 #@! TA.AperFunction,Conductor*
%ADD16C,0.400000*%
G04 #@! TD*
G04 #@! TA.AperFunction,Conductor*
%ADD17C,0.152400*%
G04 #@! TD*
G04 APERTURE END LIST*
D10*
X29209999Y50799999D03*
D11*
X29209999Y48259999D03*
X29209999Y45719999D03*
X29209999Y43179999D03*
X29209999Y40639999D03*
X29209999Y38099999D03*
X29209999Y35559999D03*
X29209999Y33019999D03*
X29209999Y30479999D03*
X29209999Y27939999D03*
X29209999Y25399999D03*
X29209999Y22859999D03*
X29209999Y20319999D03*
X29209999Y17779999D03*
X29209999Y15239999D03*
X29209999Y12699999D03*
X44449999Y12699999D03*
X44449999Y15239999D03*
X44449999Y17779999D03*
X44449999Y20319999D03*
X44449999Y22859999D03*
X44449999Y25399999D03*
X44449999Y27939999D03*
X44449999Y30479999D03*
X44449999Y33019999D03*
X44449999Y35559999D03*
X44449999Y38099999D03*
X44449999Y40639999D03*
X44449999Y43179999D03*
X44449999Y45719999D03*
X44449999Y48259999D03*
X44449999Y50799999D03*
D10*
X7619999Y50799999D03*
D11*
X7619999Y48259999D03*
X7619999Y45719999D03*
X7619999Y43179999D03*
X7619999Y40639999D03*
X7619999Y38099999D03*
X7619999Y35559999D03*
X7619999Y33019999D03*
X7619999Y30479999D03*
X7619999Y27939999D03*
X7619999Y25399999D03*
X7619999Y22859999D03*
X7619999Y20319999D03*
X7619999Y17779999D03*
X7619999Y15239999D03*
X7619999Y12699999D03*
X7619999Y10159999D03*
X7619999Y7619999D03*
X7619999Y5079999D03*
X7619999Y2539999D03*
X22859999Y2539999D03*
X22859999Y5079999D03*
X22859999Y7619999D03*
X22859999Y10159999D03*
X22859999Y12699999D03*
X22859999Y15239999D03*
X22859999Y17779999D03*
X22859999Y20319999D03*
X22859999Y22859999D03*
X22859999Y25399999D03*
X22859999Y27939999D03*
X22859999Y30479999D03*
X22859999Y33019999D03*
X22859999Y35559999D03*
X22859999Y38099999D03*
X22859999Y40639999D03*
X22859999Y43179999D03*
X22859999Y45719999D03*
X22859999Y48259999D03*
X22859999Y50799999D03*
D12*
X67944999Y15239999D03*
D13*
X65404999Y15239999D03*
X62864999Y15239999D03*
X60324999Y15239999D03*
X57784999Y15239999D03*
X55244999Y15239999D03*
D14*
X41950000Y55245000D03*
X44450000Y55245000D03*
X1905000Y40640000D03*
D11*
X1904999Y50799999D03*
D14*
X1905000Y25400000D03*
X1905000Y22900000D03*
X1905000Y38100000D03*
D11*
X1904999Y27939999D03*
D12*
X5084999Y50804999D03*
D13*
X5084999Y48264999D03*
X5084999Y45724999D03*
X5084999Y43184999D03*
X5084999Y40644999D03*
X5084999Y38104999D03*
X5084999Y35564999D03*
X5084999Y33024999D03*
X5084999Y30484999D03*
X5084999Y27944999D03*
X5084999Y25404999D03*
X5084999Y22864999D03*
X5084999Y20324999D03*
X5084999Y17784999D03*
X5084999Y15244999D03*
X5084999Y12704999D03*
X5084999Y10164999D03*
X5084999Y7624999D03*
X5084999Y5084999D03*
X5084999Y2544999D03*
D12*
X25404999Y50799999D03*
D13*
X25404999Y48259999D03*
X25404999Y45719999D03*
X25404999Y43179999D03*
X25404999Y40639999D03*
X25404999Y38099999D03*
X25404999Y35559999D03*
X25404999Y33019999D03*
X25404999Y30479999D03*
X25404999Y27939999D03*
X25404999Y25399999D03*
X25404999Y22859999D03*
X25404999Y20319999D03*
X25404999Y17779999D03*
X25404999Y15239999D03*
X25404999Y12699999D03*
X25404999Y10159999D03*
X25404999Y7619999D03*
X25404999Y5079999D03*
X25404999Y2539999D03*
D15*
X10795000Y45720000D03*
X55245000Y50800000D03*
X41275000Y22860000D03*
X55245000Y35560000D03*
X10795000Y50800000D03*
X10160000Y2540000D03*
X73025000Y8890000D03*
X41275000Y33020000D03*
X67945000Y50800000D03*
X27305000Y34290000D03*
X41275000Y38100000D03*
X10795000Y15875000D03*
X73025000Y55880000D03*
X32385000Y38100000D03*
X1905000Y1270000D03*
X10795000Y24130000D03*
X41275000Y17780000D03*
X10795000Y41910000D03*
X67945000Y35560000D03*
X41275000Y20320000D03*
X32385000Y48260000D03*
X10795000Y18415000D03*
X10795000Y34290000D03*
X10795000Y20320000D03*
X41275000Y13335000D03*
X32385000Y33020000D03*
X21209000Y18900400D03*
X21209000Y16510000D03*
X20081500Y21245400D03*
X19776700Y26494000D03*
X20995900Y29041000D03*
D16*
X55245000Y13335000D02*
X55245000Y15240000D01*
X27305000Y14605000D02*
X29210000Y12700000D01*
X32385000Y9525000D02*
X51435000Y9525000D01*
X27305000Y20960000D02*
X27305000Y14605000D01*
X51435000Y9525000D02*
X55245000Y13335000D01*
X29210000Y12700000D02*
X32385000Y9525000D01*
X31115000Y34290000D02*
X32385000Y33020000D01*
X22860000Y22860000D02*
X25405000Y22860000D01*
X27305000Y34290000D02*
X31115000Y34290000D01*
X25405000Y22860000D02*
X27305000Y20960000D01*
D17*
X7620000Y12700000D02*
X7620000Y13728700D01*
X6591300Y23342600D02*
X6591300Y14757400D01*
X7620000Y25400000D02*
X7620000Y24371300D01*
X6591300Y14757400D02*
X7620000Y13728700D01*
X7620000Y10160000D02*
X7620000Y12700000D01*
X7620000Y24371300D02*
X6591300Y23342600D01*
X43421400Y35445600D02*
X43421400Y34048600D01*
X30543500Y37047396D02*
X31562596Y36028300D01*
X12572400Y46876300D02*
X29508361Y46876300D01*
X30543500Y45841161D02*
X30543500Y37047396D01*
X7620000Y50800000D02*
X8648700Y50800000D01*
X8648700Y50800000D02*
X12572400Y46876300D01*
X42838700Y36028300D02*
X43421400Y35445600D01*
X31562596Y36028300D02*
X42838700Y36028300D01*
X43421400Y34048600D02*
X44450000Y33020000D01*
X29508361Y46876300D02*
X30543500Y45841161D01*
X9271000Y44577000D02*
X27813000Y44577000D01*
X7620000Y48260000D02*
X8648600Y47231400D01*
X27813000Y44577000D02*
X29210000Y43180000D01*
X8648600Y47231400D02*
X8648600Y45199400D01*
X8648600Y45199400D02*
X9271000Y44577000D01*
X6763300Y51878800D02*
X30748148Y51878800D01*
X7620000Y45720000D02*
X7620000Y46748700D01*
X42722800Y47955200D02*
X43421400Y47256600D01*
X34671748Y47955200D02*
X42722800Y47955200D01*
X7620000Y46748700D02*
X6579300Y47789400D01*
X6579300Y51694800D02*
X6763300Y51878800D01*
X43421400Y47256600D02*
X43421400Y41668600D01*
X43421400Y41668600D02*
X44450000Y40640000D01*
X30748148Y51878800D02*
X34671748Y47955200D01*
X6579300Y47789400D02*
X6579300Y51694800D01*
X26658048Y44272200D02*
X28778848Y42151400D01*
X8712200Y44272200D02*
X26658048Y44272200D01*
X30238700Y42715900D02*
X30238700Y44691300D01*
X28778848Y42151400D02*
X29674200Y42151400D01*
X29674200Y42151400D02*
X30238700Y42715900D01*
X30238700Y44691300D02*
X29210000Y45720000D01*
X7620000Y43180000D02*
X8712200Y44272200D01*
X34798000Y48260000D02*
X44450000Y48260000D01*
X6262300Y43026400D02*
X6262300Y51811000D01*
X7620000Y40640000D02*
X7620000Y41668700D01*
X6262300Y51811000D02*
X6635100Y52183800D01*
X7620000Y41668700D02*
X6262300Y43026400D01*
X6635100Y52183800D02*
X30874200Y52183800D01*
X30874200Y52183800D02*
X34798000Y48260000D01*
X8953400Y34226600D02*
X7620000Y35560000D01*
X8953400Y29273600D02*
X8953400Y34226600D01*
X9372600Y28854400D02*
X8953400Y29273600D01*
X20916900Y27062204D02*
X19124704Y28854400D01*
X20916900Y19192500D02*
X20916900Y27062204D01*
X19124704Y28854400D02*
X9372600Y28854400D01*
X21209000Y18900400D02*
X20916900Y19192500D01*
X21209000Y17907000D02*
X20612100Y18503900D01*
X9246348Y28549600D02*
X8648600Y29147348D01*
X20612100Y26935952D02*
X18998452Y28549600D01*
X8648600Y29147348D02*
X8648600Y31991400D01*
X20612100Y18503900D02*
X20612100Y26935952D01*
X8648600Y31991400D02*
X7620000Y33020000D01*
X21209000Y16510000D02*
X21209000Y17907000D01*
X18998452Y28549600D02*
X9246348Y28549600D01*
X7620000Y29744896D02*
X7620000Y30480000D01*
X18872200Y28244800D02*
X9120096Y28244800D01*
X20307300Y21471200D02*
X20307300Y26809700D01*
X9120096Y28244800D02*
X7620000Y29744896D01*
X20307300Y26809700D02*
X18872200Y28244800D01*
X20081500Y21245400D02*
X20307300Y21471200D01*
X18745948Y27940000D02*
X7620000Y27940000D01*
X19776700Y26494000D02*
X19776700Y26909248D01*
X19776700Y26909248D02*
X18745948Y27940000D01*
X58302600Y16318700D02*
X59381300Y15240000D01*
X59381300Y15240000D02*
X60325000Y15240000D01*
X29210000Y15240000D02*
X30238700Y15240000D01*
X30238700Y15240000D02*
X31317400Y16318700D01*
X31317400Y16318700D02*
X58302600Y16318700D01*
X8648600Y26022400D02*
X8648600Y24371400D01*
X6350000Y27755339D02*
X7193939Y26911400D01*
X5085000Y40645000D02*
X6350000Y39380000D01*
X6350000Y39380000D02*
X6350000Y27755339D01*
X8648600Y24371400D02*
X22860000Y10160000D01*
X7193939Y26911400D02*
X7759600Y26911400D01*
X7759600Y26911400D02*
X8648600Y26022400D01*
X31153100Y47967900D02*
X31153100Y37299900D01*
X44870800Y36637900D02*
X45483300Y36025400D01*
X45483300Y36025400D02*
X45483300Y30002000D01*
X45483300Y30002000D02*
X44450000Y28968700D01*
X27638900Y49644800D02*
X29476200Y49644800D01*
X25405000Y50800000D02*
X26483700Y50800000D01*
X29476200Y49644800D02*
X31153100Y47967900D01*
X31153100Y37299900D02*
X31815100Y36637900D01*
X26483700Y50800000D02*
X27638900Y49644800D01*
X31815100Y36637900D02*
X44870800Y36637900D01*
X44450000Y28968700D02*
X44450000Y27940000D01*
X29634613Y47181100D02*
X26483900Y47181100D01*
X31688848Y36333100D02*
X30848300Y37173648D01*
X30848300Y37173648D02*
X30848300Y45967413D01*
X30848300Y45967413D02*
X29634613Y47181100D01*
X43676900Y36333100D02*
X31688848Y36333100D01*
X26483900Y47181100D02*
X25405000Y48260000D01*
X44450000Y35560000D02*
X43676900Y36333100D01*
X23286400Y19280100D02*
X24326300Y20320000D01*
X24326300Y20320000D02*
X25405000Y20320000D01*
X21221700Y28815200D02*
X21221700Y20502100D01*
X21221700Y20502100D02*
X22443700Y19280100D01*
X22443700Y19280100D02*
X23286400Y19280100D01*
X20995900Y29041000D02*
X21221700Y28815200D01*
X21831400Y28366061D02*
X22742639Y29277300D01*
X21831400Y23863400D02*
X21831400Y28366061D01*
X25405000Y10160000D02*
X25405000Y11103900D01*
X25803000Y21463000D02*
X22225000Y21463000D01*
X26489400Y12188300D02*
X26489400Y20776600D01*
X25405000Y11103900D02*
X26489400Y12188300D01*
X21831200Y23313700D02*
X21831200Y23863200D01*
X22742639Y29277300D02*
X43247300Y29277300D01*
X21831300Y21856700D02*
X21831300Y23313600D01*
X43247300Y29277300D02*
X44450000Y30480000D01*
X22225000Y21463000D02*
X21831300Y21856700D01*
X21831300Y23313600D02*
X21831200Y23313700D01*
X26489400Y20776600D02*
X25803000Y21463000D01*
X21831200Y23863200D02*
X21831400Y23863400D01*
X23888700Y7540000D02*
X23888700Y10642600D01*
X25405000Y6023700D02*
X23888700Y7540000D01*
X25405000Y5080000D02*
X25405000Y6023700D01*
X22860000Y11671300D02*
X22860000Y12700000D01*
X23888700Y10642600D02*
X22860000Y11671300D01*
X6163700Y40640200D02*
X6163700Y41162600D01*
X21526500Y38544500D02*
X20701000Y39370000D01*
X6163700Y41162600D02*
X5085000Y42241300D01*
X21526500Y21653500D02*
X21526500Y38544500D01*
X7433900Y39370000D02*
X6163700Y40640200D01*
X20701000Y39370000D02*
X7433900Y39370000D01*
X22860000Y20320000D02*
X21526500Y21653500D01*
X5085000Y42241300D02*
X5085000Y43185000D01*
G04 #@! TA.AperFunction,Conductor*
G36*
X18565231Y27503709D02*
G01*
X18606108Y27476395D01*
X19160996Y26921507D01*
X19187818Y26881800D01*
X19197875Y26834950D01*
X19189713Y26787732D01*
X19140720Y26658548D01*
X19140718Y26658541D01*
X19138018Y26651421D01*
X19137099Y26643860D01*
X19137099Y26643856D01*
X19123261Y26529886D01*
X19118904Y26494000D01*
X19119823Y26486431D01*
X19135392Y26358202D01*
X19138018Y26336579D01*
X19140718Y26329460D01*
X19140719Y26329456D01*
X19191548Y26195432D01*
X19191550Y26195427D01*
X19194251Y26188307D01*
X19198579Y26182037D01*
X19198580Y26182035D01*
X19261021Y26091573D01*
X19284333Y26057801D01*
X19403029Y25952645D01*
X19543442Y25878950D01*
X19697411Y25841000D01*
X19705028Y25841000D01*
X19754600Y25841000D01*
X19817600Y25824119D01*
X19863719Y25778000D01*
X19880600Y25715000D01*
X19880600Y21953602D01*
X19862429Y21888418D01*
X19813156Y21842036D01*
X19707829Y21786755D01*
X19702127Y21781704D01*
X19702122Y21781700D01*
X19594838Y21686654D01*
X19594834Y21686651D01*
X19589133Y21681599D01*
X19584806Y21675332D01*
X19584802Y21675326D01*
X19503380Y21557366D01*
X19503376Y21557361D01*
X19499051Y21551093D01*
X19496352Y21543978D01*
X19496348Y21543969D01*
X19445519Y21409945D01*
X19445517Y21409939D01*
X19442818Y21402821D01*
X19441899Y21395260D01*
X19441899Y21395256D01*
X19428770Y21287124D01*
X19423704Y21245400D01*
X19424623Y21237831D01*
X19436360Y21141162D01*
X19442818Y21087979D01*
X19445518Y21080860D01*
X19445519Y21080856D01*
X19496348Y20946832D01*
X19496350Y20946827D01*
X19499051Y20939707D01*
X19503379Y20933437D01*
X19503380Y20933435D01*
X19523840Y20903793D01*
X19589133Y20809201D01*
X19707829Y20704045D01*
X19714579Y20700503D01*
X19714581Y20700501D01*
X19742927Y20685624D01*
X19848242Y20630350D01*
X20002211Y20592400D01*
X20009828Y20592400D01*
X20059400Y20592400D01*
X20122400Y20575519D01*
X20168519Y20529400D01*
X20185400Y20466400D01*
X20185400Y18534942D01*
X20184607Y18520834D01*
X20180882Y18487765D01*
X20182636Y18478490D01*
X20182637Y18478488D01*
X20190915Y18434732D01*
X20191703Y18430091D01*
X20198343Y18386041D01*
X20198345Y18386035D01*
X20199751Y18376707D01*
X20203281Y18369375D01*
X20204795Y18361378D01*
X20209204Y18353036D01*
X20209205Y18353033D01*
X20230017Y18313654D01*
X20232140Y18309449D01*
X20251462Y18269326D01*
X20251464Y18269323D01*
X20255561Y18260816D01*
X20261098Y18254849D01*
X20264900Y18247655D01*
X20271576Y18240979D01*
X20303054Y18209501D01*
X20306323Y18206108D01*
X20343052Y18166524D01*
X20348830Y18163188D01*
X20353878Y18158677D01*
X20745395Y17767160D01*
X20772709Y17726283D01*
X20782300Y17678065D01*
X20782300Y17061083D01*
X20771199Y17009371D01*
X20739853Y16966771D01*
X20722341Y16951258D01*
X20722332Y16951249D01*
X20716633Y16946199D01*
X20712306Y16939932D01*
X20712302Y16939926D01*
X20630880Y16821966D01*
X20630876Y16821961D01*
X20626551Y16815693D01*
X20623852Y16808578D01*
X20623848Y16808569D01*
X20573019Y16674545D01*
X20573017Y16674539D01*
X20570318Y16667421D01*
X20569399Y16659860D01*
X20569399Y16659856D01*
X20559329Y16576918D01*
X20551204Y16510000D01*
X20552123Y16502431D01*
X20567982Y16371812D01*
X20570318Y16352579D01*
X20573018Y16345460D01*
X20573019Y16345456D01*
X20623848Y16211432D01*
X20623850Y16211427D01*
X20626551Y16204307D01*
X20630879Y16198037D01*
X20630880Y16198035D01*
X20658424Y16158130D01*
X20716633Y16073801D01*
X20835329Y15968645D01*
X20975742Y15894950D01*
X21129711Y15857000D01*
X21280672Y15857000D01*
X21288289Y15857000D01*
X21442258Y15894950D01*
X21582671Y15968645D01*
X21701367Y16073801D01*
X21791449Y16204307D01*
X21847682Y16352579D01*
X21866796Y16510000D01*
X21847682Y16667421D01*
X21812698Y16759666D01*
X21794151Y16808569D01*
X21794150Y16808571D01*
X21791449Y16815693D01*
X21701367Y16946199D01*
X21695663Y16951253D01*
X21695658Y16951258D01*
X21678147Y16966771D01*
X21646801Y17009371D01*
X21635700Y17061083D01*
X21635700Y17121894D01*
X21653365Y17186234D01*
X21701408Y17232532D01*
X21766356Y17247808D01*
X21829999Y17227777D01*
X21871370Y17181545D01*
X21871969Y17181915D01*
X21874058Y17178540D01*
X21874491Y17178057D01*
X21877634Y17171745D01*
X21881142Y17167100D01*
X21881145Y17167095D01*
X21893656Y17150528D01*
X22006128Y17001593D01*
X22010430Y16997671D01*
X22010433Y16997668D01*
X22159394Y16861871D01*
X22159398Y16861868D01*
X22163698Y16857948D01*
X22344981Y16745702D01*
X22350411Y16743599D01*
X22350414Y16743597D01*
X22387903Y16729074D01*
X22543802Y16668679D01*
X22691046Y16641155D01*
X22730092Y16633855D01*
X22791825Y16603115D01*
X22828129Y16544481D01*
X22828129Y16475519D01*
X22791825Y16416885D01*
X22730092Y16386145D01*
X22549524Y16352391D01*
X22549520Y16352390D01*
X22543802Y16351321D01*
X22538377Y16349220D01*
X22538372Y16349218D01*
X22350414Y16276404D01*
X22350402Y16276399D01*
X22344981Y16274298D01*
X22340034Y16271236D01*
X22340024Y16271230D01*
X22168649Y16165118D01*
X22168645Y16165116D01*
X22163698Y16162052D01*
X22159404Y16158138D01*
X22159394Y16158130D01*
X22010433Y16022333D01*
X22010425Y16022325D01*
X22006128Y16018407D01*
X22002619Y16013761D01*
X22002615Y16013756D01*
X21881145Y15852906D01*
X21881139Y15852897D01*
X21877634Y15848255D01*
X21875040Y15843048D01*
X21875037Y15843041D01*
X21785189Y15662601D01*
X21785184Y15662590D01*
X21782595Y15657389D01*
X21781003Y15651796D01*
X21781001Y15651789D01*
X21726869Y15461536D01*
X21724244Y15452310D01*
X21704571Y15240000D01*
X21724244Y15027690D01*
X21725836Y15022092D01*
X21725837Y15022091D01*
X21781000Y14828214D01*
X21782595Y14822611D01*
X21785186Y14817407D01*
X21785189Y14817400D01*
X21875035Y14636964D01*
X21877634Y14631745D01*
X21881142Y14627100D01*
X21881145Y14627095D01*
X21911358Y14587087D01*
X22006128Y14461593D01*
X22010430Y14457671D01*
X22010433Y14457668D01*
X22159394Y14321871D01*
X22159398Y14321868D01*
X22163698Y14317948D01*
X22233368Y14274810D01*
X22298853Y14234263D01*
X22344981Y14205702D01*
X22350411Y14203599D01*
X22350414Y14203597D01*
X22421313Y14176131D01*
X22543802Y14128679D01*
X22684210Y14102432D01*
X22730092Y14093855D01*
X22791825Y14063115D01*
X22828129Y14004481D01*
X22828129Y13935519D01*
X22791825Y13876885D01*
X22730092Y13846145D01*
X22549524Y13812391D01*
X22549520Y13812390D01*
X22543802Y13811321D01*
X22538377Y13809220D01*
X22538372Y13809218D01*
X22350414Y13736404D01*
X22350402Y13736399D01*
X22344981Y13734298D01*
X22340034Y13731236D01*
X22340024Y13731230D01*
X22168649Y13625118D01*
X22168645Y13625116D01*
X22163698Y13622052D01*
X22159404Y13618138D01*
X22159394Y13618130D01*
X22010433Y13482333D01*
X22010425Y13482325D01*
X22006128Y13478407D01*
X22002619Y13473761D01*
X22002615Y13473756D01*
X21881145Y13312906D01*
X21881139Y13312897D01*
X21877634Y13308255D01*
X21875040Y13303048D01*
X21875037Y13303041D01*
X21785189Y13122601D01*
X21785184Y13122590D01*
X21782595Y13117389D01*
X21781003Y13111796D01*
X21781001Y13111789D01*
X21726869Y12921536D01*
X21724244Y12912310D01*
X21704571Y12700000D01*
X21724244Y12487690D01*
X21725836Y12482092D01*
X21725837Y12482091D01*
X21781000Y12288214D01*
X21782595Y12282611D01*
X21785188Y12277403D01*
X21785191Y12277396D01*
X21876433Y12094155D01*
X21888992Y12025208D01*
X21862772Y11960216D01*
X21805884Y11919285D01*
X21735929Y11915079D01*
X21674547Y11948898D01*
X9112205Y24511240D01*
X9084891Y24552117D01*
X9075300Y24600335D01*
X9075300Y25991351D01*
X9076092Y26005460D01*
X9076931Y26012906D01*
X9079819Y26038535D01*
X9069780Y26091589D01*
X9068993Y26096221D01*
X9060949Y26149593D01*
X9057418Y26156925D01*
X9055905Y26164922D01*
X9048778Y26178407D01*
X9030682Y26212647D01*
X9028558Y26216854D01*
X9013618Y26247876D01*
X9005139Y26265484D01*
X8999601Y26271452D01*
X8995800Y26278645D01*
X8957643Y26316802D01*
X8954375Y26320194D01*
X8939172Y26336579D01*
X8917648Y26359776D01*
X8911868Y26363114D01*
X8906819Y26367626D01*
X8378326Y26896119D01*
X8345227Y26954481D01*
X8346776Y27021558D01*
X8382536Y27078329D01*
X8397670Y27092125D01*
X8473872Y27161593D01*
X8602366Y27331745D01*
X8657995Y27443463D01*
X8704456Y27494427D01*
X8770786Y27513300D01*
X18517013Y27513300D01*
X18565231Y27503709D01*
G37*
G04 #@! TD.AperFunction*
G04 #@! TA.AperFunction,Conductor*
G36*
X20520283Y38933709D02*
G01*
X20561160Y38906395D01*
X21062895Y38404660D01*
X21090209Y38363783D01*
X21099800Y38315565D01*
X21099800Y29820000D01*
X21082919Y29757000D01*
X21036800Y29710881D01*
X20973800Y29694000D01*
X20916611Y29694000D01*
X20909220Y29692179D01*
X20909217Y29692178D01*
X20770043Y29657875D01*
X20770036Y29657873D01*
X20762642Y29656050D01*
X20755890Y29652507D01*
X20755889Y29652506D01*
X20628981Y29585900D01*
X20628973Y29585895D01*
X20622229Y29582355D01*
X20616527Y29577304D01*
X20616522Y29577300D01*
X20509238Y29482254D01*
X20509234Y29482251D01*
X20503533Y29477199D01*
X20499206Y29470932D01*
X20499202Y29470926D01*
X20417780Y29352966D01*
X20417776Y29352961D01*
X20413451Y29346693D01*
X20410752Y29339578D01*
X20410748Y29339569D01*
X20359919Y29205545D01*
X20359917Y29205539D01*
X20357218Y29198421D01*
X20356299Y29190860D01*
X20356299Y29190856D01*
X20341794Y29071393D01*
X20338104Y29041000D01*
X20339023Y29033431D01*
X20353986Y28910191D01*
X20357218Y28883579D01*
X20359918Y28876460D01*
X20359919Y28876456D01*
X20410748Y28742432D01*
X20410750Y28742427D01*
X20413451Y28735307D01*
X20417779Y28729037D01*
X20417780Y28729035D01*
X20473253Y28648668D01*
X20503533Y28604801D01*
X20622229Y28499645D01*
X20727556Y28444365D01*
X20776829Y28397982D01*
X20795000Y28332798D01*
X20795000Y28091739D01*
X20781267Y28034536D01*
X20743061Y27989803D01*
X20688711Y27967290D01*
X20630064Y27971906D01*
X20579905Y28002644D01*
X19448378Y29134171D01*
X19438962Y29144707D01*
X19428380Y29157976D01*
X19418212Y29170727D01*
X19373609Y29201137D01*
X19369766Y29203864D01*
X19333935Y29230309D01*
X19333933Y29230310D01*
X19326340Y29235914D01*
X19318656Y29238603D01*
X19311934Y29243186D01*
X19302917Y29245968D01*
X19302914Y29245969D01*
X19260357Y29259096D01*
X19255884Y29260568D01*
X19213835Y29275281D01*
X19213833Y29275282D01*
X19204929Y29278397D01*
X19196795Y29278702D01*
X19189019Y29281100D01*
X19179582Y29281100D01*
X19135055Y29281100D01*
X19130343Y29281188D01*
X19085828Y29282854D01*
X19085826Y29282854D01*
X19076389Y29283207D01*
X19069941Y29281480D01*
X19063184Y29281100D01*
X9601535Y29281100D01*
X9553317Y29290691D01*
X9512440Y29318005D01*
X9417005Y29413440D01*
X9389691Y29454317D01*
X9380100Y29502535D01*
X9380100Y34195559D01*
X9380892Y34209667D01*
X9381138Y34211851D01*
X9384618Y34242736D01*
X9374582Y34295780D01*
X9373793Y34300425D01*
X9367155Y34344462D01*
X9365749Y34353793D01*
X9362218Y34361126D01*
X9360705Y34369122D01*
X9353308Y34383117D01*
X9335482Y34416847D01*
X9333358Y34421054D01*
X9321417Y34445849D01*
X9309939Y34469684D01*
X9304401Y34475652D01*
X9300600Y34482845D01*
X9262444Y34521001D01*
X9259175Y34524394D01*
X9240482Y34544540D01*
X9222448Y34563976D01*
X9216668Y34567314D01*
X9211619Y34571826D01*
X8737232Y35046213D01*
X8704373Y35103636D01*
X8705136Y35169786D01*
X8755756Y35347690D01*
X8775429Y35560000D01*
X8755756Y35772310D01*
X8697405Y35977389D01*
X8691162Y35989926D01*
X8610735Y36151448D01*
X8602366Y36168255D01*
X8473872Y36338407D01*
X8469568Y36342330D01*
X8469566Y36342333D01*
X8320605Y36478130D01*
X8320600Y36478134D01*
X8316302Y36482052D01*
X8249843Y36523202D01*
X8139975Y36591230D01*
X8139969Y36591233D01*
X8135019Y36594298D01*
X8129592Y36596401D01*
X8129585Y36596404D01*
X7941627Y36669218D01*
X7941625Y36669219D01*
X7936198Y36671321D01*
X7930476Y36672391D01*
X7930475Y36672391D01*
X7749907Y36706145D01*
X7688174Y36736885D01*
X7651870Y36795518D01*
X7651870Y36864482D01*
X7688174Y36923115D01*
X7749907Y36953855D01*
X7751897Y36954227D01*
X7936198Y36988679D01*
X8135019Y37065702D01*
X8316302Y37177948D01*
X8473872Y37321593D01*
X8602366Y37491745D01*
X8697405Y37682611D01*
X8755756Y37887690D01*
X8775429Y38100000D01*
X8755756Y38312310D01*
X8697405Y38517389D01*
X8691162Y38529926D01*
X8604962Y38703041D01*
X8602366Y38708255D01*
X8577360Y38741368D01*
X8552448Y38805674D01*
X8565119Y38873463D01*
X8611579Y38924427D01*
X8677910Y38943300D01*
X20472065Y38943300D01*
X20520283Y38933709D01*
G37*
G04 #@! TD.AperFunction*
G04 #@! TA.AperFunction,Conductor*
G36*
X30046963Y37197330D02*
G01*
X30097927Y37150870D01*
X30116800Y37084540D01*
X30116800Y37078438D01*
X30116007Y37064330D01*
X30112282Y37031261D01*
X30114036Y37021986D01*
X30114037Y37021984D01*
X30122315Y36978228D01*
X30123103Y36973587D01*
X30129743Y36929537D01*
X30129745Y36929531D01*
X30131151Y36920203D01*
X30134681Y36912871D01*
X30136195Y36904874D01*
X30140604Y36896532D01*
X30140605Y36896529D01*
X30161417Y36857150D01*
X30163540Y36852945D01*
X30182862Y36812822D01*
X30182864Y36812819D01*
X30186961Y36804312D01*
X30192498Y36798345D01*
X30196300Y36791151D01*
X30202976Y36784475D01*
X30234454Y36752997D01*
X30237723Y36749604D01*
X30274452Y36710020D01*
X30280230Y36706684D01*
X30285278Y36702173D01*
X31238917Y35748534D01*
X31248333Y35737999D01*
X31269088Y35711973D01*
X31313701Y35681556D01*
X31317515Y35678851D01*
X31360960Y35646786D01*
X31368643Y35644098D01*
X31375366Y35639514D01*
X31424602Y35624327D01*
X31426939Y35623606D01*
X31431403Y35622137D01*
X31482371Y35604303D01*
X31490504Y35603999D01*
X31498281Y35601600D01*
X31552261Y35601600D01*
X31556972Y35601512D01*
X31610911Y35599494D01*
X31617355Y35601221D01*
X31624111Y35601600D01*
X42609765Y35601600D01*
X42657983Y35592009D01*
X42698860Y35564695D01*
X42957795Y35305760D01*
X42985109Y35264883D01*
X42994700Y35216665D01*
X42994700Y34079642D01*
X42993907Y34065534D01*
X42990182Y34032465D01*
X42991936Y34023190D01*
X42991937Y34023188D01*
X43000215Y33979432D01*
X43001003Y33974791D01*
X43007643Y33930741D01*
X43007645Y33930735D01*
X43009051Y33921407D01*
X43012581Y33914075D01*
X43014095Y33906078D01*
X43018504Y33897736D01*
X43018505Y33897733D01*
X43039317Y33858354D01*
X43041440Y33854149D01*
X43060762Y33814026D01*
X43060764Y33814023D01*
X43064861Y33805516D01*
X43070398Y33799549D01*
X43074200Y33792355D01*
X43080876Y33785679D01*
X43112354Y33754201D01*
X43115623Y33750808D01*
X43136366Y33728452D01*
X43152352Y33711224D01*
X43158130Y33707888D01*
X43163178Y33703377D01*
X43332767Y33533788D01*
X43365626Y33476366D01*
X43364862Y33410211D01*
X43318292Y33246536D01*
X43314244Y33232310D01*
X43294571Y33020000D01*
X43314244Y32807690D01*
X43315836Y32802092D01*
X43315837Y32802091D01*
X43371000Y32608214D01*
X43372595Y32602611D01*
X43375186Y32597407D01*
X43375189Y32597400D01*
X43384224Y32579256D01*
X43467634Y32411745D01*
X43471142Y32407100D01*
X43471145Y32407095D01*
X43483656Y32390528D01*
X43596128Y32241593D01*
X43600430Y32237671D01*
X43600433Y32237668D01*
X43749394Y32101871D01*
X43749398Y32101868D01*
X43753698Y32097948D01*
X43823368Y32054810D01*
X43904556Y32004540D01*
X43934981Y31985702D01*
X43940411Y31983599D01*
X43940414Y31983597D01*
X44012229Y31955777D01*
X44133802Y31908679D01*
X44281046Y31881155D01*
X44320092Y31873855D01*
X44381825Y31843115D01*
X44418129Y31784481D01*
X44418129Y31715519D01*
X44381825Y31656885D01*
X44320092Y31626145D01*
X44139524Y31592391D01*
X44139520Y31592390D01*
X44133802Y31591321D01*
X44128377Y31589220D01*
X44128372Y31589218D01*
X43940414Y31516404D01*
X43940402Y31516399D01*
X43934981Y31514298D01*
X43930034Y31511236D01*
X43930024Y31511230D01*
X43758649Y31405118D01*
X43758645Y31405116D01*
X43753698Y31402052D01*
X43749404Y31398138D01*
X43749394Y31398130D01*
X43600433Y31262333D01*
X43600425Y31262325D01*
X43596128Y31258407D01*
X43592619Y31253761D01*
X43592615Y31253756D01*
X43471145Y31092906D01*
X43471139Y31092897D01*
X43467634Y31088255D01*
X43465040Y31083048D01*
X43465037Y31083041D01*
X43375189Y30902601D01*
X43375184Y30902590D01*
X43372595Y30897389D01*
X43371003Y30891796D01*
X43371001Y30891789D01*
X43316869Y30701536D01*
X43314244Y30692310D01*
X43294571Y30480000D01*
X43314244Y30267690D01*
X43315836Y30262092D01*
X43315837Y30262091D01*
X43364861Y30089791D01*
X43365625Y30023636D01*
X43332767Y29966214D01*
X43107460Y29740905D01*
X43066582Y29713591D01*
X43018364Y29704000D01*
X30312336Y29704000D01*
X30251024Y29719924D01*
X30205209Y29763669D01*
X30186470Y29824181D01*
X30199545Y29886163D01*
X30212840Y29912863D01*
X30287405Y30062611D01*
X30345756Y30267690D01*
X30365429Y30480000D01*
X30345756Y30692310D01*
X30287405Y30897389D01*
X30281162Y30909926D01*
X30194962Y31083041D01*
X30192366Y31088255D01*
X30063872Y31258407D01*
X30059568Y31262330D01*
X30059566Y31262333D01*
X29910605Y31398130D01*
X29910600Y31398134D01*
X29906302Y31402052D01*
X29839843Y31443202D01*
X29729975Y31511230D01*
X29729969Y31511233D01*
X29725019Y31514298D01*
X29719592Y31516401D01*
X29719585Y31516404D01*
X29531627Y31589218D01*
X29531625Y31589219D01*
X29526198Y31591321D01*
X29520476Y31592391D01*
X29520475Y31592391D01*
X29339907Y31626145D01*
X29278174Y31656885D01*
X29241870Y31715518D01*
X29241870Y31784482D01*
X29278174Y31843115D01*
X29339907Y31873855D01*
X29526198Y31908679D01*
X29725019Y31985702D01*
X29906302Y32097948D01*
X30063872Y32241593D01*
X30192366Y32411745D01*
X30287405Y32602611D01*
X30345756Y32807690D01*
X30365429Y33020000D01*
X30345756Y33232310D01*
X30287405Y33437389D01*
X30281162Y33449926D01*
X30194962Y33623041D01*
X30192366Y33628255D01*
X30063872Y33798407D01*
X30059568Y33802330D01*
X30059566Y33802333D01*
X29910605Y33938130D01*
X29910600Y33938134D01*
X29906302Y33942052D01*
X29853427Y33974791D01*
X29729975Y34051230D01*
X29729969Y34051233D01*
X29725019Y34054298D01*
X29719592Y34056401D01*
X29719585Y34056404D01*
X29531627Y34129218D01*
X29531625Y34129219D01*
X29526198Y34131321D01*
X29520478Y34132391D01*
X29520465Y34132394D01*
X29339907Y34166147D01*
X29278174Y34196886D01*
X29241870Y34255520D01*
X29241870Y34324483D01*
X29278175Y34383117D01*
X29339905Y34413855D01*
X29526198Y34448679D01*
X29725019Y34525702D01*
X29906302Y34637948D01*
X30063872Y34781593D01*
X30192366Y34951745D01*
X30287405Y35142611D01*
X30345756Y35347690D01*
X30365429Y35560000D01*
X30345756Y35772310D01*
X30287405Y35977389D01*
X30281162Y35989926D01*
X30200735Y36151448D01*
X30192366Y36168255D01*
X30063872Y36338407D01*
X30059568Y36342330D01*
X30059566Y36342333D01*
X29910605Y36478130D01*
X29910600Y36478134D01*
X29906302Y36482052D01*
X29839843Y36523202D01*
X29729975Y36591230D01*
X29729969Y36591233D01*
X29725019Y36594298D01*
X29719592Y36596401D01*
X29719585Y36596404D01*
X29531627Y36669218D01*
X29531625Y36669219D01*
X29526198Y36671321D01*
X29520476Y36672391D01*
X29520475Y36672391D01*
X29339907Y36706145D01*
X29278174Y36736885D01*
X29241870Y36795518D01*
X29241870Y36864482D01*
X29278174Y36923115D01*
X29339907Y36953855D01*
X29341897Y36954227D01*
X29526198Y36988679D01*
X29725019Y37065702D01*
X29906302Y37177948D01*
X29910607Y37181874D01*
X29914868Y37185090D01*
X29979174Y37210003D01*
X30046963Y37197330D01*
G37*
G04 #@! TD.AperFunction*
G04 #@! TA.AperFunction,Conductor*
G36*
X26799887Y43526916D02*
G01*
X28455169Y41871634D01*
X28464585Y41861099D01*
X28485340Y41835073D01*
X28529953Y41804656D01*
X28533752Y41801961D01*
X28543526Y41794748D01*
X28551617Y41788776D01*
X28590405Y41741878D01*
X28602688Y41682271D01*
X28585598Y41623860D01*
X28543125Y41580273D01*
X28518648Y41565118D01*
X28518640Y41565112D01*
X28513698Y41562052D01*
X28509404Y41558138D01*
X28509394Y41558130D01*
X28360433Y41422333D01*
X28360425Y41422325D01*
X28356128Y41418407D01*
X28352619Y41413761D01*
X28352615Y41413756D01*
X28231145Y41252906D01*
X28231139Y41252897D01*
X28227634Y41248255D01*
X28225040Y41243048D01*
X28225037Y41243041D01*
X28135189Y41062601D01*
X28135184Y41062590D01*
X28132595Y41057389D01*
X28131003Y41051796D01*
X28131001Y41051789D01*
X28076869Y40861536D01*
X28074244Y40852310D01*
X28054571Y40640000D01*
X28074244Y40427690D01*
X28075836Y40422092D01*
X28075837Y40422091D01*
X28131000Y40228214D01*
X28132595Y40222611D01*
X28135186Y40217407D01*
X28135189Y40217400D01*
X28144224Y40199256D01*
X28227634Y40031745D01*
X28231142Y40027100D01*
X28231145Y40027095D01*
X28243656Y40010528D01*
X28356128Y39861593D01*
X28360430Y39857671D01*
X28360433Y39857668D01*
X28509394Y39721871D01*
X28509398Y39721868D01*
X28513698Y39717948D01*
X28623807Y39649771D01*
X28664556Y39624540D01*
X28694981Y39605702D01*
X28700411Y39603599D01*
X28700414Y39603597D01*
X28772229Y39575777D01*
X28893802Y39528679D01*
X29041046Y39501155D01*
X29080092Y39493855D01*
X29141825Y39463115D01*
X29178129Y39404481D01*
X29178129Y39335519D01*
X29141825Y39276885D01*
X29080092Y39246145D01*
X28899524Y39212391D01*
X28899520Y39212390D01*
X28893802Y39211321D01*
X28888377Y39209220D01*
X28888372Y39209218D01*
X28700414Y39136404D01*
X28700402Y39136399D01*
X28694981Y39134298D01*
X28690034Y39131236D01*
X28690024Y39131230D01*
X28518649Y39025118D01*
X28518645Y39025116D01*
X28513698Y39022052D01*
X28509404Y39018138D01*
X28509394Y39018130D01*
X28360433Y38882333D01*
X28360425Y38882325D01*
X28356128Y38878407D01*
X28352619Y38873761D01*
X28352615Y38873756D01*
X28231145Y38712906D01*
X28231139Y38712897D01*
X28227634Y38708255D01*
X28225040Y38703048D01*
X28225037Y38703041D01*
X28135189Y38522601D01*
X28135184Y38522590D01*
X28132595Y38517389D01*
X28131003Y38511796D01*
X28131001Y38511789D01*
X28076869Y38321536D01*
X28074244Y38312310D01*
X28054571Y38100000D01*
X28074244Y37887690D01*
X28075836Y37882092D01*
X28075837Y37882091D01*
X28131000Y37688214D01*
X28132595Y37682611D01*
X28135186Y37677407D01*
X28135189Y37677400D01*
X28225037Y37496960D01*
X28227634Y37491745D01*
X28231142Y37487100D01*
X28231145Y37487095D01*
X28303200Y37391680D01*
X28356128Y37321593D01*
X28360430Y37317671D01*
X28360433Y37317668D01*
X28509394Y37181871D01*
X28509398Y37181868D01*
X28513698Y37177948D01*
X28583368Y37134810D01*
X28685844Y37071359D01*
X28694981Y37065702D01*
X28700411Y37063599D01*
X28700414Y37063597D01*
X28752836Y37043289D01*
X28893802Y36988679D01*
X29041046Y36961155D01*
X29080092Y36953855D01*
X29141825Y36923115D01*
X29178129Y36864481D01*
X29178129Y36795519D01*
X29141825Y36736885D01*
X29080092Y36706145D01*
X28899524Y36672391D01*
X28899520Y36672390D01*
X28893802Y36671321D01*
X28888377Y36669220D01*
X28888372Y36669218D01*
X28700414Y36596404D01*
X28700402Y36596399D01*
X28694981Y36594298D01*
X28690034Y36591236D01*
X28690024Y36591230D01*
X28518649Y36485118D01*
X28518645Y36485116D01*
X28513698Y36482052D01*
X28509404Y36478138D01*
X28509394Y36478130D01*
X28360433Y36342333D01*
X28360425Y36342325D01*
X28356128Y36338407D01*
X28352619Y36333761D01*
X28352615Y36333756D01*
X28231145Y36172906D01*
X28231139Y36172897D01*
X28227634Y36168255D01*
X28225040Y36163048D01*
X28225037Y36163041D01*
X28135189Y35982601D01*
X28135184Y35982590D01*
X28132595Y35977389D01*
X28131003Y35971796D01*
X28131001Y35971789D01*
X28076869Y35781536D01*
X28074244Y35772310D01*
X28054571Y35560000D01*
X28074244Y35347690D01*
X28075836Y35342094D01*
X28075837Y35342091D01*
X28131000Y35148214D01*
X28132595Y35142611D01*
X28135186Y35137407D01*
X28135189Y35137400D01*
X28180595Y35046213D01*
X28227634Y34951745D01*
X28231142Y34947100D01*
X28231145Y34947095D01*
X28243656Y34930528D01*
X28356128Y34781593D01*
X28360430Y34777671D01*
X28360433Y34777668D01*
X28509394Y34641871D01*
X28509398Y34641868D01*
X28513698Y34637948D01*
X28620506Y34571815D01*
X28664556Y34544540D01*
X28694981Y34525702D01*
X28700411Y34523599D01*
X28700414Y34523597D01*
X28772229Y34495777D01*
X28893802Y34448679D01*
X28899523Y34447610D01*
X28899525Y34447609D01*
X28939251Y34440183D01*
X29080093Y34413855D01*
X29141824Y34383116D01*
X29178129Y34324483D01*
X29178129Y34255520D01*
X29141825Y34196886D01*
X29080092Y34166147D01*
X28899534Y34132394D01*
X28899518Y34132390D01*
X28893802Y34131321D01*
X28888377Y34129220D01*
X28888372Y34129218D01*
X28700414Y34056404D01*
X28700402Y34056399D01*
X28694981Y34054298D01*
X28690034Y34051236D01*
X28690024Y34051230D01*
X28518649Y33945118D01*
X28518645Y33945116D01*
X28513698Y33942052D01*
X28509404Y33938138D01*
X28509394Y33938130D01*
X28360433Y33802333D01*
X28360425Y33802325D01*
X28356128Y33798407D01*
X28352619Y33793761D01*
X28352615Y33793756D01*
X28231145Y33632906D01*
X28231139Y33632897D01*
X28227634Y33628255D01*
X28225040Y33623048D01*
X28225037Y33623041D01*
X28135189Y33442601D01*
X28135184Y33442590D01*
X28132595Y33437389D01*
X28131003Y33431796D01*
X28131001Y33431789D01*
X28076869Y33241536D01*
X28074244Y33232310D01*
X28054571Y33020000D01*
X28074244Y32807690D01*
X28075836Y32802092D01*
X28075837Y32802091D01*
X28131000Y32608214D01*
X28132595Y32602611D01*
X28135186Y32597407D01*
X28135189Y32597400D01*
X28144224Y32579256D01*
X28227634Y32411745D01*
X28231142Y32407100D01*
X28231145Y32407095D01*
X28243656Y32390528D01*
X28356128Y32241593D01*
X28360430Y32237671D01*
X28360433Y32237668D01*
X28509394Y32101871D01*
X28509398Y32101868D01*
X28513698Y32097948D01*
X28583368Y32054810D01*
X28664556Y32004540D01*
X28694981Y31985702D01*
X28700411Y31983599D01*
X28700414Y31983597D01*
X28772229Y31955777D01*
X28893802Y31908679D01*
X29041046Y31881155D01*
X29080092Y31873855D01*
X29141825Y31843115D01*
X29178129Y31784481D01*
X29178129Y31715519D01*
X29141825Y31656885D01*
X29080092Y31626145D01*
X28899524Y31592391D01*
X28899520Y31592390D01*
X28893802Y31591321D01*
X28888377Y31589220D01*
X28888372Y31589218D01*
X28700414Y31516404D01*
X28700402Y31516399D01*
X28694981Y31514298D01*
X28690034Y31511236D01*
X28690024Y31511230D01*
X28518649Y31405118D01*
X28518645Y31405116D01*
X28513698Y31402052D01*
X28509404Y31398138D01*
X28509394Y31398130D01*
X28360433Y31262333D01*
X28360425Y31262325D01*
X28356128Y31258407D01*
X28352619Y31253761D01*
X28352615Y31253756D01*
X28231145Y31092906D01*
X28231139Y31092897D01*
X28227634Y31088255D01*
X28225040Y31083048D01*
X28225037Y31083041D01*
X28135189Y30902601D01*
X28135184Y30902590D01*
X28132595Y30897389D01*
X28131003Y30891796D01*
X28131001Y30891789D01*
X28076869Y30701536D01*
X28074244Y30692310D01*
X28054571Y30480000D01*
X28074244Y30267690D01*
X28075836Y30262092D01*
X28075837Y30262091D01*
X28131000Y30068214D01*
X28132595Y30062611D01*
X28135186Y30057407D01*
X28135189Y30057400D01*
X28220455Y29886163D01*
X28233530Y29824181D01*
X28214791Y29763669D01*
X28168976Y29719924D01*
X28107664Y29704000D01*
X26563190Y29704000D01*
X26501878Y29719924D01*
X26456063Y29763670D01*
X26437324Y29824181D01*
X26450400Y29886163D01*
X26490261Y29966214D01*
X26529229Y30044472D01*
X26590115Y30258464D01*
X26610643Y30480000D01*
X26590115Y30701536D01*
X26529229Y30915528D01*
X26430058Y31114689D01*
X26325040Y31253756D01*
X26299493Y31287586D01*
X26299490Y31287590D01*
X26295981Y31292236D01*
X26291677Y31296159D01*
X26291675Y31296162D01*
X26165394Y31411282D01*
X26131562Y31442124D01*
X25942401Y31559247D01*
X25936965Y31561353D01*
X25936959Y31561356D01*
X25753291Y31632509D01*
X25704139Y31666850D01*
X25676426Y31720020D01*
X25676426Y31779980D01*
X25704139Y31833150D01*
X25753291Y31867491D01*
X25865042Y31910784D01*
X25942401Y31940753D01*
X26131562Y32057876D01*
X26295981Y32207764D01*
X26430058Y32385311D01*
X26529229Y32584472D01*
X26590115Y32798464D01*
X26610643Y33020000D01*
X26590115Y33241536D01*
X26529229Y33455528D01*
X26430058Y33654689D01*
X26374355Y33728452D01*
X26299493Y33827586D01*
X26299490Y33827590D01*
X26295981Y33832236D01*
X26291677Y33836159D01*
X26291675Y33836162D01*
X26165394Y33951282D01*
X26131562Y33982124D01*
X25942401Y34099247D01*
X25936965Y34101353D01*
X25936959Y34101356D01*
X25753291Y34172509D01*
X25704139Y34206850D01*
X25676426Y34260020D01*
X25676426Y34319980D01*
X25704139Y34373150D01*
X25753291Y34407491D01*
X25865042Y34450784D01*
X25942401Y34480753D01*
X26131562Y34597876D01*
X26295981Y34747764D01*
X26430058Y34925311D01*
X26529229Y35124472D01*
X26590115Y35338464D01*
X26610643Y35560000D01*
X26590115Y35781536D01*
X26529229Y35995528D01*
X26430058Y36194689D01*
X26364392Y36281645D01*
X26299493Y36367586D01*
X26299490Y36367590D01*
X26295981Y36372236D01*
X26291677Y36376159D01*
X26291675Y36376162D01*
X26165394Y36491282D01*
X26131562Y36522124D01*
X25942401Y36639247D01*
X25936970Y36641351D01*
X25936962Y36641355D01*
X25753290Y36712510D01*
X25704139Y36746851D01*
X25676425Y36800022D01*
X25676426Y36859981D01*
X25704140Y36913152D01*
X25753285Y36947490D01*
X25942401Y37020753D01*
X26131562Y37137876D01*
X26295981Y37287764D01*
X26430058Y37465311D01*
X26529229Y37664472D01*
X26590115Y37878464D01*
X26610643Y38100000D01*
X26590115Y38321536D01*
X26529229Y38535528D01*
X26430058Y38734689D01*
X26328287Y38869456D01*
X26299493Y38907586D01*
X26299490Y38907590D01*
X26295981Y38912236D01*
X26291677Y38916159D01*
X26291675Y38916162D01*
X26135864Y39058202D01*
X26135865Y39058202D01*
X26131562Y39062124D01*
X25942401Y39179247D01*
X25936970Y39181351D01*
X25936962Y39181355D01*
X25753290Y39252510D01*
X25704139Y39286851D01*
X25676425Y39340022D01*
X25676426Y39399981D01*
X25704140Y39453152D01*
X25753285Y39487490D01*
X25942401Y39560753D01*
X26131562Y39677876D01*
X26295981Y39827764D01*
X26430058Y40005311D01*
X26529229Y40204472D01*
X26590115Y40418464D01*
X26610643Y40640000D01*
X26590115Y40861536D01*
X26529229Y41075528D01*
X26430058Y41274689D01*
X26369468Y41354923D01*
X26299493Y41447586D01*
X26299490Y41447590D01*
X26295981Y41452236D01*
X26291677Y41456159D01*
X26291675Y41456162D01*
X26139606Y41594791D01*
X26131562Y41602124D01*
X25942401Y41719247D01*
X25936970Y41721351D01*
X25936962Y41721355D01*
X25753290Y41792510D01*
X25704139Y41826851D01*
X25676425Y41880022D01*
X25676426Y41939981D01*
X25704140Y41993152D01*
X25753285Y42027490D01*
X25942401Y42100753D01*
X26131562Y42217876D01*
X26295981Y42367764D01*
X26430058Y42545311D01*
X26529229Y42744472D01*
X26590115Y42958464D01*
X26610643Y43180000D01*
X26590115Y43401536D01*
X26588520Y43407139D01*
X26587451Y43412863D01*
X26589464Y43413240D01*
X26588693Y43468930D01*
X26620877Y43526089D01*
X26677432Y43559324D01*
X26743028Y43559628D01*
X26799887Y43526916D01*
G37*
G04 #@! TD.AperFunction*
G04 #@! TA.AperFunction,Conductor*
G36*
X30567431Y51442509D02*
G01*
X30608308Y51415195D01*
X34348069Y47675434D01*
X34357485Y47664899D01*
X34378240Y47638873D01*
X34422853Y47608456D01*
X34426667Y47605751D01*
X34470112Y47573686D01*
X34477795Y47570998D01*
X34484518Y47566414D01*
X34533754Y47551227D01*
X34536091Y47550506D01*
X34540555Y47549037D01*
X34591523Y47531203D01*
X34599656Y47530899D01*
X34607433Y47528500D01*
X34661413Y47528500D01*
X34666124Y47528412D01*
X34720063Y47526394D01*
X34726507Y47528121D01*
X34733263Y47528500D01*
X42493865Y47528500D01*
X42542083Y47518909D01*
X42582960Y47491595D01*
X42957795Y47116760D01*
X42985109Y47075883D01*
X42994700Y47027665D01*
X42994700Y41699642D01*
X42993907Y41685534D01*
X42990182Y41652465D01*
X42991936Y41643190D01*
X42991937Y41643188D01*
X43000215Y41599432D01*
X43001003Y41594791D01*
X43007643Y41550741D01*
X43007645Y41550735D01*
X43009051Y41541407D01*
X43012581Y41534075D01*
X43014095Y41526078D01*
X43018504Y41517736D01*
X43018505Y41517733D01*
X43039317Y41478354D01*
X43041440Y41474149D01*
X43060762Y41434026D01*
X43060764Y41434023D01*
X43064861Y41425516D01*
X43070398Y41419549D01*
X43074200Y41412355D01*
X43080876Y41405679D01*
X43112354Y41374201D01*
X43115623Y41370808D01*
X43152352Y41331224D01*
X43158130Y41327888D01*
X43163178Y41323377D01*
X43332767Y41153788D01*
X43365626Y41096366D01*
X43364862Y41030211D01*
X43318292Y40866536D01*
X43314244Y40852310D01*
X43294571Y40640000D01*
X43314244Y40427690D01*
X43315836Y40422092D01*
X43315837Y40422091D01*
X43371000Y40228214D01*
X43372595Y40222611D01*
X43375186Y40217407D01*
X43375189Y40217400D01*
X43384224Y40199256D01*
X43467634Y40031745D01*
X43471142Y40027100D01*
X43471145Y40027095D01*
X43483656Y40010528D01*
X43596128Y39861593D01*
X43600430Y39857671D01*
X43600433Y39857668D01*
X43749394Y39721871D01*
X43749398Y39721868D01*
X43753698Y39717948D01*
X43863807Y39649771D01*
X43904556Y39624540D01*
X43934981Y39605702D01*
X43940411Y39603599D01*
X43940414Y39603597D01*
X44012229Y39575777D01*
X44133802Y39528679D01*
X44281046Y39501155D01*
X44320092Y39493855D01*
X44381825Y39463115D01*
X44418129Y39404481D01*
X44418129Y39335519D01*
X44381825Y39276885D01*
X44320092Y39246145D01*
X44139524Y39212391D01*
X44139520Y39212390D01*
X44133802Y39211321D01*
X44128377Y39209220D01*
X44128372Y39209218D01*
X43940414Y39136404D01*
X43940402Y39136399D01*
X43934981Y39134298D01*
X43930034Y39131236D01*
X43930024Y39131230D01*
X43758649Y39025118D01*
X43758645Y39025116D01*
X43753698Y39022052D01*
X43749404Y39018138D01*
X43749394Y39018130D01*
X43600433Y38882333D01*
X43600425Y38882325D01*
X43596128Y38878407D01*
X43592619Y38873761D01*
X43592615Y38873756D01*
X43471145Y38712906D01*
X43471139Y38712897D01*
X43467634Y38708255D01*
X43465040Y38703048D01*
X43465037Y38703041D01*
X43375189Y38522601D01*
X43375184Y38522590D01*
X43372595Y38517389D01*
X43371003Y38511796D01*
X43371001Y38511789D01*
X43316869Y38321536D01*
X43314244Y38312310D01*
X43294571Y38100000D01*
X43314244Y37887690D01*
X43315836Y37882092D01*
X43315837Y37882091D01*
X43371000Y37688214D01*
X43372595Y37682611D01*
X43375186Y37677407D01*
X43375189Y37677400D01*
X43465037Y37496960D01*
X43467634Y37491745D01*
X43471142Y37487100D01*
X43471145Y37487095D01*
X43543200Y37391680D01*
X43596128Y37321593D01*
X43600430Y37317671D01*
X43600433Y37317668D01*
X43637678Y37283715D01*
X43671105Y37233937D01*
X43677739Y37174346D01*
X43656079Y37118435D01*
X43611030Y37078866D01*
X43552792Y37064600D01*
X32044035Y37064600D01*
X31995817Y37074191D01*
X31954940Y37101505D01*
X31616705Y37439740D01*
X31589391Y37480617D01*
X31579800Y37528835D01*
X31579800Y47936851D01*
X31580592Y47950960D01*
X31584319Y47984035D01*
X31574273Y48037122D01*
X31573492Y48041724D01*
X31573437Y48042091D01*
X31565449Y48095093D01*
X31561917Y48102426D01*
X31560405Y48110421D01*
X31535167Y48158174D01*
X31533088Y48162292D01*
X31509639Y48210984D01*
X31504101Y48216952D01*
X31500300Y48224145D01*
X31462144Y48262301D01*
X31458875Y48265694D01*
X31454142Y48270795D01*
X31422148Y48305276D01*
X31416368Y48308614D01*
X31411319Y48313126D01*
X30202101Y49522344D01*
X30172894Y49568073D01*
X30165626Y49621846D01*
X30181647Y49673688D01*
X30214031Y49709604D01*
X30216483Y49710802D01*
X30299198Y49793517D01*
X30350573Y49898607D01*
X30360500Y49966740D01*
X30360500Y51326100D01*
X30377381Y51389100D01*
X30423500Y51435219D01*
X30486500Y51452100D01*
X30519213Y51452100D01*
X30567431Y51442509D01*
G37*
G04 #@! TD.AperFunction*
G04 #@! TA.AperFunction,Conductor*
G36*
X21763954Y43829576D02*
G01*
X21809769Y43785831D01*
X21828508Y43725319D01*
X21815433Y43663337D01*
X21785189Y43602601D01*
X21785184Y43602590D01*
X21782595Y43597389D01*
X21781003Y43591796D01*
X21781001Y43591789D01*
X21726869Y43401536D01*
X21724244Y43392310D01*
X21704571Y43180000D01*
X21724244Y42967690D01*
X21725836Y42962092D01*
X21725837Y42962091D01*
X21781000Y42768214D01*
X21782595Y42762611D01*
X21785186Y42757407D01*
X21785189Y42757400D01*
X21794224Y42739256D01*
X21877634Y42571745D01*
X21881142Y42567100D01*
X21881145Y42567095D01*
X21893656Y42550528D01*
X22006128Y42401593D01*
X22010430Y42397671D01*
X22010433Y42397668D01*
X22159394Y42261871D01*
X22159398Y42261868D01*
X22163698Y42257948D01*
X22344981Y42145702D01*
X22350411Y42143599D01*
X22350414Y42143597D01*
X22422229Y42115777D01*
X22543802Y42068679D01*
X22674319Y42044281D01*
X22730092Y42033855D01*
X22791825Y42003115D01*
X22828129Y41944481D01*
X22828129Y41875519D01*
X22791825Y41816885D01*
X22730092Y41786145D01*
X22549524Y41752391D01*
X22549520Y41752390D01*
X22543802Y41751321D01*
X22538377Y41749220D01*
X22538372Y41749218D01*
X22350414Y41676404D01*
X22350402Y41676399D01*
X22344981Y41674298D01*
X22340034Y41671236D01*
X22340024Y41671230D01*
X22168649Y41565118D01*
X22168645Y41565116D01*
X22163698Y41562052D01*
X22159404Y41558138D01*
X22159394Y41558130D01*
X22010433Y41422333D01*
X22010425Y41422325D01*
X22006128Y41418407D01*
X22002619Y41413761D01*
X22002615Y41413756D01*
X21881145Y41252906D01*
X21881139Y41252897D01*
X21877634Y41248255D01*
X21875040Y41243048D01*
X21875037Y41243041D01*
X21785189Y41062601D01*
X21785184Y41062590D01*
X21782595Y41057389D01*
X21781003Y41051796D01*
X21781001Y41051789D01*
X21726869Y40861536D01*
X21724244Y40852310D01*
X21704571Y40640000D01*
X21724244Y40427690D01*
X21725836Y40422092D01*
X21725837Y40422091D01*
X21781000Y40228214D01*
X21782595Y40222611D01*
X21785186Y40217407D01*
X21785189Y40217400D01*
X21794224Y40199256D01*
X21877634Y40031745D01*
X21881142Y40027100D01*
X21881145Y40027095D01*
X21893656Y40010528D01*
X22006128Y39861593D01*
X22010430Y39857671D01*
X22010433Y39857668D01*
X22159394Y39721871D01*
X22159398Y39721868D01*
X22163698Y39717948D01*
X22273807Y39649771D01*
X22314556Y39624540D01*
X22344981Y39605702D01*
X22350411Y39603599D01*
X22350414Y39603597D01*
X22422229Y39575777D01*
X22543802Y39528679D01*
X22691046Y39501155D01*
X22730092Y39493855D01*
X22791825Y39463115D01*
X22828129Y39404481D01*
X22828129Y39335519D01*
X22791825Y39276885D01*
X22730092Y39246145D01*
X22549524Y39212391D01*
X22549520Y39212390D01*
X22543802Y39211321D01*
X22538377Y39209220D01*
X22538372Y39209218D01*
X22350414Y39136404D01*
X22350402Y39136399D01*
X22344981Y39134298D01*
X22340034Y39131236D01*
X22340024Y39131230D01*
X22168649Y39025118D01*
X22168645Y39025116D01*
X22163698Y39022052D01*
X22159404Y39018138D01*
X22159394Y39018130D01*
X22010428Y38882328D01*
X22010422Y38882323D01*
X22006128Y38878407D01*
X22002621Y38873764D01*
X21998695Y38869456D01*
X21997859Y38870218D01*
X21962146Y38839800D01*
X21909525Y38825303D01*
X21855710Y38834419D01*
X21810800Y38865438D01*
X21806365Y38870218D01*
X21795548Y38881876D01*
X21789768Y38885214D01*
X21784719Y38889726D01*
X21024674Y39649771D01*
X21015258Y39660307D01*
X21000397Y39678942D01*
X21000398Y39678942D01*
X20994508Y39686327D01*
X20949905Y39716737D01*
X20946062Y39719464D01*
X20910231Y39745909D01*
X20910229Y39745910D01*
X20902636Y39751514D01*
X20894952Y39754203D01*
X20888230Y39758786D01*
X20879213Y39761568D01*
X20879210Y39761569D01*
X20836653Y39774696D01*
X20832180Y39776168D01*
X20790131Y39790881D01*
X20790129Y39790882D01*
X20781225Y39793997D01*
X20773091Y39794302D01*
X20765315Y39796700D01*
X20755878Y39796700D01*
X20711351Y39796700D01*
X20706639Y39796788D01*
X20662124Y39798454D01*
X20662122Y39798454D01*
X20652685Y39798807D01*
X20646237Y39797080D01*
X20639480Y39796700D01*
X8677910Y39796700D01*
X8611579Y39815573D01*
X8565119Y39866537D01*
X8552448Y39934326D01*
X8577360Y39998632D01*
X8582670Y40005663D01*
X8602366Y40031745D01*
X8697405Y40222611D01*
X8755756Y40427690D01*
X8775429Y40640000D01*
X8755756Y40852310D01*
X8697405Y41057389D01*
X8691162Y41069926D01*
X8604962Y41243041D01*
X8602366Y41248255D01*
X8540637Y41329996D01*
X8494943Y41390505D01*
X8473872Y41418407D01*
X8469568Y41422330D01*
X8469566Y41422333D01*
X8320605Y41558130D01*
X8320600Y41558134D01*
X8316302Y41562052D01*
X8263427Y41594791D01*
X8139975Y41671230D01*
X8139969Y41671233D01*
X8135019Y41674298D01*
X8129592Y41676401D01*
X8129585Y41676404D01*
X8113625Y41682586D01*
X8060802Y41721303D01*
X8034548Y41781303D01*
X8033757Y41786551D01*
X8033756Y41786552D01*
X8032349Y41795893D01*
X8028817Y41803226D01*
X8027305Y41811221D01*
X8002067Y41858974D01*
X7999988Y41863092D01*
X7976539Y41911784D01*
X7971999Y41916677D01*
X7968505Y41922475D01*
X7967202Y41924941D01*
X7968818Y41925795D01*
X7951741Y41965514D01*
X7954789Y42022788D01*
X7982907Y42072776D01*
X8030267Y42105122D01*
X8135019Y42145702D01*
X8316302Y42257948D01*
X8473872Y42401593D01*
X8602366Y42571745D01*
X8697405Y42762611D01*
X8755756Y42967690D01*
X8775429Y43180000D01*
X8755756Y43392310D01*
X8705138Y43570211D01*
X8704374Y43636366D01*
X8737233Y43693789D01*
X8852041Y43808596D01*
X8892918Y43835909D01*
X8941136Y43845500D01*
X21702642Y43845500D01*
X21763954Y43829576D01*
G37*
G04 #@! TD.AperFunction*
G04 #@! TA.AperFunction,Conductor*
G36*
X8895801Y49929697D02*
G01*
X8946456Y49898799D01*
X12248721Y46596534D01*
X12258137Y46585999D01*
X12278892Y46559973D01*
X12323505Y46529556D01*
X12327319Y46526851D01*
X12370764Y46494786D01*
X12378447Y46492098D01*
X12385170Y46487514D01*
X12436779Y46471595D01*
X12441160Y46470153D01*
X12492175Y46452302D01*
X12500312Y46451998D01*
X12508085Y46449600D01*
X12562038Y46449600D01*
X12566749Y46449512D01*
X12620715Y46447493D01*
X12627162Y46449221D01*
X12633921Y46449600D01*
X21734560Y46449600D01*
X21795872Y46433676D01*
X21841687Y46389931D01*
X21860426Y46329419D01*
X21847351Y46267437D01*
X21785189Y46142600D01*
X21785186Y46142594D01*
X21782595Y46137389D01*
X21781003Y46131796D01*
X21781001Y46131789D01*
X21726869Y45941536D01*
X21724244Y45932310D01*
X21704571Y45720000D01*
X21724244Y45507690D01*
X21725836Y45502092D01*
X21725837Y45502091D01*
X21781000Y45308214D01*
X21782595Y45302611D01*
X21785186Y45297407D01*
X21785189Y45297400D01*
X21840728Y45185863D01*
X21853803Y45123880D01*
X21835064Y45063369D01*
X21789249Y45019624D01*
X21727937Y45003700D01*
X9499935Y45003700D01*
X9451717Y45013291D01*
X9410840Y45040605D01*
X9112205Y45339240D01*
X9084891Y45380117D01*
X9075300Y45428335D01*
X9075300Y47200359D01*
X9076092Y47214467D01*
X9076782Y47220589D01*
X9079818Y47247536D01*
X9069782Y47300580D01*
X9068993Y47305225D01*
X9066044Y47324790D01*
X9060949Y47358593D01*
X9057418Y47365926D01*
X9055905Y47373922D01*
X9048553Y47387832D01*
X9030682Y47421647D01*
X9028558Y47425854D01*
X9021444Y47440626D01*
X9005139Y47474484D01*
X8999601Y47480452D01*
X8995800Y47487645D01*
X8957643Y47525802D01*
X8954375Y47529194D01*
X8934600Y47550506D01*
X8917648Y47568776D01*
X8911868Y47572114D01*
X8906819Y47576626D01*
X8737232Y47746213D01*
X8704373Y47803636D01*
X8705136Y47869786D01*
X8755756Y48047690D01*
X8775429Y48260000D01*
X8755756Y48472310D01*
X8697405Y48677389D01*
X8691162Y48689926D01*
X8604962Y48863041D01*
X8602366Y48868255D01*
X8473872Y49038407D01*
X8469568Y49042330D01*
X8469566Y49042333D01*
X8320605Y49178130D01*
X8320600Y49178134D01*
X8316302Y49182052D01*
X8253719Y49220802D01*
X8139975Y49291230D01*
X8139969Y49291233D01*
X8135019Y49294298D01*
X8129592Y49296401D01*
X8129585Y49296404D01*
X7941627Y49369218D01*
X7941625Y49369219D01*
X7936198Y49371321D01*
X7930476Y49372391D01*
X7930475Y49372391D01*
X7784679Y49399645D01*
X7728840Y49425336D01*
X7691798Y49474387D01*
X7682370Y49535126D01*
X7702798Y49593098D01*
X7748222Y49634508D01*
X7807832Y49649500D01*
X8448698Y49649500D01*
X8453260Y49649500D01*
X8521393Y49659427D01*
X8626483Y49710802D01*
X8709198Y49793517D01*
X8744165Y49865046D01*
X8782041Y49910714D01*
X8836622Y49933985D01*
X8895801Y49929697D01*
G37*
G04 #@! TD.AperFunction*
G04 #@! TA.AperFunction,Conductor*
G36*
X21757282Y51436176D02*
G01*
X21803097Y51392430D01*
X21821836Y51331919D01*
X21808760Y51269937D01*
X21785193Y51222609D01*
X21785190Y51222601D01*
X21782595Y51217389D01*
X21781003Y51211796D01*
X21781001Y51211789D01*
X21736106Y51054000D01*
X21724244Y51012310D01*
X21704571Y50800000D01*
X21724244Y50587690D01*
X21725836Y50582092D01*
X21725837Y50582091D01*
X21737103Y50542494D01*
X21782595Y50382611D01*
X21785186Y50377407D01*
X21785189Y50377400D01*
X21872059Y50202941D01*
X21877634Y50191745D01*
X21881142Y50187100D01*
X21881145Y50187095D01*
X21968440Y50071500D01*
X22006128Y50021593D01*
X22010430Y50017671D01*
X22010433Y50017668D01*
X22159394Y49881871D01*
X22159398Y49881868D01*
X22163698Y49877948D01*
X22225285Y49839815D01*
X22304076Y49791029D01*
X22344981Y49765702D01*
X22350411Y49763599D01*
X22350414Y49763597D01*
X22421313Y49736131D01*
X22543802Y49688679D01*
X22677288Y49663726D01*
X22730092Y49653855D01*
X22791825Y49623115D01*
X22828129Y49564481D01*
X22828129Y49495519D01*
X22791825Y49436885D01*
X22730092Y49406145D01*
X22549524Y49372391D01*
X22549520Y49372390D01*
X22543802Y49371321D01*
X22538377Y49369220D01*
X22538372Y49369218D01*
X22350414Y49296404D01*
X22350402Y49296399D01*
X22344981Y49294298D01*
X22340034Y49291236D01*
X22340024Y49291230D01*
X22168649Y49185118D01*
X22168645Y49185116D01*
X22163698Y49182052D01*
X22159404Y49178138D01*
X22159394Y49178130D01*
X22010433Y49042333D01*
X22010425Y49042325D01*
X22006128Y49038407D01*
X22002619Y49033761D01*
X22002615Y49033756D01*
X21881145Y48872906D01*
X21881139Y48872897D01*
X21877634Y48868255D01*
X21875040Y48863048D01*
X21875037Y48863041D01*
X21785189Y48682601D01*
X21785184Y48682590D01*
X21782595Y48677389D01*
X21781003Y48671796D01*
X21781001Y48671789D01*
X21726869Y48481536D01*
X21724244Y48472310D01*
X21704571Y48260000D01*
X21724244Y48047690D01*
X21725836Y48042094D01*
X21725837Y48042091D01*
X21781000Y47848214D01*
X21782595Y47842611D01*
X21785186Y47837407D01*
X21785189Y47837400D01*
X21819967Y47767557D01*
X21877634Y47651745D01*
X21881142Y47647100D01*
X21881145Y47647095D01*
X21988503Y47504932D01*
X22013415Y47440626D01*
X22000744Y47372837D01*
X21954284Y47321873D01*
X21887953Y47303000D01*
X12801335Y47303000D01*
X12753117Y47312591D01*
X12712240Y47339905D01*
X8972374Y51079771D01*
X8962958Y51090307D01*
X8948097Y51108942D01*
X8948098Y51108942D01*
X8942208Y51116327D01*
X8897605Y51146737D01*
X8893762Y51149464D01*
X8857931Y51175909D01*
X8857929Y51175910D01*
X8850336Y51181514D01*
X8842652Y51184203D01*
X8835930Y51188786D01*
X8835076Y51189050D01*
X8788578Y51233010D01*
X8770500Y51298040D01*
X8770500Y51326100D01*
X8787381Y51389100D01*
X8833500Y51435219D01*
X8896500Y51452100D01*
X21695970Y51452100D01*
X21757282Y51436176D01*
G37*
G04 #@! TD.AperFunction*
G04 #@! TA.AperFunction,Conductor*
G36*
X26742289Y49914751D02*
G01*
X26797871Y49882384D01*
X27315221Y49365034D01*
X27324637Y49354499D01*
X27345392Y49328473D01*
X27390020Y49298047D01*
X27393807Y49295360D01*
X27437265Y49263286D01*
X27444946Y49260599D01*
X27451670Y49256014D01*
X27502673Y49240283D01*
X27503238Y49240108D01*
X27507717Y49238634D01*
X27558676Y49220802D01*
X27566812Y49220498D01*
X27574585Y49218100D01*
X27628539Y49218100D01*
X27633250Y49218012D01*
X27687216Y49215993D01*
X27693663Y49217721D01*
X27700424Y49218100D01*
X28042052Y49218100D01*
X28107417Y49199819D01*
X28153815Y49150280D01*
X28167782Y49083859D01*
X28145265Y49019829D01*
X28076068Y48921007D01*
X28070586Y48911511D01*
X27978510Y48714054D01*
X27974764Y48703762D01*
X27927669Y48528002D01*
X27927296Y48516592D01*
X27938411Y48514000D01*
X29338000Y48514000D01*
X29401000Y48497119D01*
X29447119Y48451000D01*
X29464000Y48388000D01*
X29464000Y48132000D01*
X29447119Y48069000D01*
X29401000Y48022881D01*
X29338000Y48006000D01*
X27938411Y48006000D01*
X27927296Y48003409D01*
X27927669Y47991999D01*
X27974764Y47816239D01*
X27978510Y47805947D01*
X27987322Y47787050D01*
X27998857Y47725559D01*
X27979394Y47666100D01*
X27933732Y47623332D01*
X27873127Y47607800D01*
X26712835Y47607800D01*
X26664617Y47617391D01*
X26623740Y47644705D01*
X26562703Y47705742D01*
X26529844Y47763164D01*
X26530608Y47829319D01*
X26534390Y47842611D01*
X26590115Y48038464D01*
X26610643Y48260000D01*
X26590115Y48481536D01*
X26529229Y48695528D01*
X26430058Y48894689D01*
X26325040Y49033756D01*
X26299493Y49067586D01*
X26299490Y49067590D01*
X26295981Y49072236D01*
X26291677Y49076159D01*
X26291675Y49076162D01*
X26136845Y49217308D01*
X26131562Y49222124D01*
X25942401Y49339247D01*
X25936970Y49341351D01*
X25936968Y49341352D01*
X25924061Y49346352D01*
X25899131Y49356010D01*
X25844100Y49397568D01*
X25819188Y49461874D01*
X25831859Y49529663D01*
X25878319Y49580627D01*
X25944650Y49599500D01*
X26283698Y49599500D01*
X26288260Y49599500D01*
X26356393Y49609427D01*
X26461483Y49660802D01*
X26544198Y49743517D01*
X26595573Y49848607D01*
X26598822Y49847019D01*
X26621684Y49884344D01*
X26677973Y49915466D01*
X26742289Y49914751D01*
G37*
G04 #@! TD.AperFunction*
G04 #@! TA.AperFunction,Conductor*
G36*
X73496490Y56931140D02*
G01*
X73536374Y56905808D01*
X74460299Y56037319D01*
X74489650Y55995524D01*
X74500000Y55945512D01*
X74500000Y9052190D01*
X74490409Y9003972D01*
X74463095Y8963095D01*
X73536905Y8036905D01*
X73496028Y8009591D01*
X73447810Y8000000D01*
X28500000Y8000000D01*
X28491227Y7991228D01*
X28491224Y7991225D01*
X27508775Y7008776D01*
X27508772Y7008773D01*
X27500000Y7000000D01*
X27500000Y6987590D01*
X27500000Y1552190D01*
X27490409Y1503972D01*
X27463097Y1463098D01*
X26536779Y536780D01*
X26536780Y536780D01*
X26496043Y509525D01*
X26447987Y499876D01*
X1554532Y440131D01*
X1504461Y450377D01*
X1462578Y479667D01*
X613856Y1379312D01*
X534347Y1463592D01*
X508902Y1503537D01*
X500000Y1550055D01*
X500000Y2545000D01*
X3879357Y2545000D01*
X3899885Y2323464D01*
X3960771Y2109472D01*
X3963367Y2104259D01*
X3963368Y2104256D01*
X4057344Y1915528D01*
X4059942Y1910311D01*
X4063452Y1905663D01*
X4190506Y1737415D01*
X4190510Y1737411D01*
X4194019Y1732764D01*
X4198321Y1728842D01*
X4198324Y1728839D01*
X4203809Y1723839D01*
X4358438Y1582876D01*
X4547599Y1465753D01*
X4755060Y1385382D01*
X4973757Y1344500D01*
X5190416Y1344500D01*
X5196243Y1344500D01*
X5414940Y1385382D01*
X5622401Y1465753D01*
X5811562Y1582876D01*
X5975981Y1732764D01*
X6110058Y1910311D01*
X6209229Y2109472D01*
X6256591Y2275934D01*
X6289511Y2331364D01*
X6345543Y2363256D01*
X6410015Y2363257D01*
X6466048Y2331366D01*
X6498970Y2275933D01*
X6542595Y2122611D01*
X6545186Y2117407D01*
X6545189Y2117400D01*
X6554224Y2099256D01*
X6637634Y1931745D01*
X6641142Y1927100D01*
X6641145Y1927095D01*
X6653656Y1910528D01*
X6766128Y1761593D01*
X6770430Y1757671D01*
X6770433Y1757668D01*
X6919394Y1621871D01*
X6919398Y1621868D01*
X6923698Y1617948D01*
X7104981Y1505702D01*
X7110411Y1503599D01*
X7110414Y1503597D01*
X7182229Y1475777D01*
X7303802Y1428679D01*
X7513390Y1389500D01*
X7720783Y1389500D01*
X7726610Y1389500D01*
X7936198Y1428679D01*
X8135019Y1505702D01*
X8316302Y1617948D01*
X8473872Y1761593D01*
X8602366Y1931745D01*
X8697405Y2122611D01*
X8755756Y2327690D01*
X8775429Y2540000D01*
X8755756Y2752310D01*
X8697405Y2957389D01*
X8691162Y2969926D01*
X8604962Y3143041D01*
X8602366Y3148255D01*
X8473872Y3318407D01*
X8469568Y3322330D01*
X8469566Y3322333D01*
X8320605Y3458130D01*
X8320600Y3458134D01*
X8316302Y3462052D01*
X8249843Y3503202D01*
X8139975Y3571230D01*
X8139969Y3571233D01*
X8135019Y3574298D01*
X8129592Y3576401D01*
X8129585Y3576404D01*
X7941627Y3649218D01*
X7941625Y3649219D01*
X7936198Y3651321D01*
X7930476Y3652391D01*
X7930475Y3652391D01*
X7749907Y3686145D01*
X7688174Y3716885D01*
X7651870Y3775518D01*
X7651870Y3844482D01*
X7688174Y3903115D01*
X7749907Y3933855D01*
X7936198Y3968679D01*
X8135019Y4045702D01*
X8316302Y4157948D01*
X8473872Y4301593D01*
X8602366Y4471745D01*
X8697405Y4662611D01*
X8755756Y4867690D01*
X8775429Y5080000D01*
X8755756Y5292310D01*
X8697405Y5497389D01*
X8691162Y5509926D01*
X8604962Y5683041D01*
X8602366Y5688255D01*
X8473872Y5858407D01*
X8469568Y5862330D01*
X8469566Y5862333D01*
X8320605Y5998130D01*
X8320600Y5998134D01*
X8316302Y6002052D01*
X8249843Y6043202D01*
X8139975Y6111230D01*
X8139969Y6111233D01*
X8135019Y6114298D01*
X8129592Y6116401D01*
X8129585Y6116404D01*
X7941627Y6189218D01*
X7941625Y6189219D01*
X7936198Y6191321D01*
X7930476Y6192391D01*
X7930475Y6192391D01*
X7749907Y6226145D01*
X7688174Y6256885D01*
X7651870Y6315518D01*
X7651870Y6384482D01*
X7688174Y6443115D01*
X7749907Y6473855D01*
X7936198Y6508679D01*
X8135019Y6585702D01*
X8316302Y6697948D01*
X8473872Y6841593D01*
X8602366Y7011745D01*
X8697405Y7202611D01*
X8755756Y7407690D01*
X8775429Y7620000D01*
X8755756Y7832310D01*
X8697405Y8037389D01*
X8691162Y8049926D01*
X8604962Y8223041D01*
X8602366Y8228255D01*
X8553916Y8292412D01*
X8518684Y8339067D01*
X8473872Y8398407D01*
X8469568Y8402330D01*
X8469566Y8402333D01*
X8320605Y8538130D01*
X8320600Y8538134D01*
X8316302Y8542052D01*
X8249843Y8583202D01*
X8139975Y8651230D01*
X8139969Y8651233D01*
X8135019Y8654298D01*
X8129592Y8656401D01*
X8129585Y8656404D01*
X7941627Y8729218D01*
X7941625Y8729219D01*
X7936198Y8731321D01*
X7930476Y8732391D01*
X7930475Y8732391D01*
X7749907Y8766145D01*
X7688174Y8796885D01*
X7651870Y8855518D01*
X7651870Y8924482D01*
X7688174Y8983115D01*
X7749907Y9013855D01*
X7936198Y9048679D01*
X8135019Y9125702D01*
X8316302Y9237948D01*
X8473872Y9381593D01*
X8602366Y9551745D01*
X8697405Y9742611D01*
X8755756Y9947690D01*
X8775429Y10160000D01*
X8755756Y10372310D01*
X8697405Y10577389D01*
X8691162Y10589926D01*
X8604962Y10763041D01*
X8602366Y10768255D01*
X8473872Y10938407D01*
X8469568Y10942330D01*
X8469566Y10942333D01*
X8320605Y11078130D01*
X8320600Y11078134D01*
X8316302Y11082052D01*
X8246630Y11125191D01*
X8139973Y11191231D01*
X8139969Y11191233D01*
X8135019Y11194298D01*
X8127182Y11197334D01*
X8125324Y11198525D01*
X8124375Y11198997D01*
X8124426Y11199100D01*
X8084989Y11224365D01*
X8056666Y11265710D01*
X8046700Y11314824D01*
X8046700Y11545176D01*
X8056666Y11594290D01*
X8084989Y11635635D01*
X8124426Y11660901D01*
X8124375Y11661003D01*
X8125324Y11661476D01*
X8127182Y11662667D01*
X8135019Y11665702D01*
X8316302Y11777948D01*
X8473872Y11921593D01*
X8602366Y12091745D01*
X8697405Y12282611D01*
X8755756Y12487690D01*
X8775429Y12700000D01*
X8755756Y12912310D01*
X8697405Y13117389D01*
X8691162Y13129926D01*
X8604962Y13303041D01*
X8602366Y13308255D01*
X8473872Y13478407D01*
X8469568Y13482330D01*
X8469566Y13482333D01*
X8320605Y13618130D01*
X8320600Y13618134D01*
X8316302Y13622052D01*
X8249843Y13663202D01*
X8139975Y13731230D01*
X8139969Y13731233D01*
X8135019Y13734298D01*
X8129592Y13736401D01*
X8129585Y13736404D01*
X8113625Y13742586D01*
X8060802Y13781303D01*
X8034548Y13841302D01*
X8032349Y13855893D01*
X8028816Y13863229D01*
X8027304Y13871222D01*
X8002071Y13918965D01*
X7999989Y13923088D01*
X7976539Y13971784D01*
X7971999Y13976677D01*
X7968505Y13982475D01*
X7967202Y13984941D01*
X7968818Y13985795D01*
X7951741Y14025514D01*
X7954789Y14082788D01*
X7982907Y14132776D01*
X8030267Y14165122D01*
X8135019Y14205702D01*
X8316302Y14317948D01*
X8473872Y14461593D01*
X8602366Y14631745D01*
X8697405Y14822611D01*
X8755756Y15027690D01*
X8775429Y15240000D01*
X8755756Y15452310D01*
X8697405Y15657389D01*
X8691979Y15668285D01*
X8636889Y15778923D01*
X8602366Y15848255D01*
X8594385Y15858823D01*
X8477384Y16013756D01*
X8473872Y16018407D01*
X8469568Y16022330D01*
X8469566Y16022333D01*
X8320605Y16158130D01*
X8320600Y16158134D01*
X8316302Y16162052D01*
X8248058Y16204307D01*
X8139975Y16271230D01*
X8139969Y16271233D01*
X8135019Y16274298D01*
X8129592Y16276401D01*
X8129585Y16276404D01*
X7941627Y16349218D01*
X7941625Y16349219D01*
X7936198Y16351321D01*
X7930476Y16352391D01*
X7930475Y16352391D01*
X7749907Y16386145D01*
X7688174Y16416885D01*
X7651870Y16475518D01*
X7651870Y16544482D01*
X7688174Y16603115D01*
X7749907Y16633855D01*
X7936198Y16668679D01*
X8135019Y16745702D01*
X8316302Y16857948D01*
X8473872Y17001593D01*
X8602366Y17171745D01*
X8697405Y17362611D01*
X8755756Y17567690D01*
X8775429Y17780000D01*
X8755756Y17992310D01*
X8697405Y18197389D01*
X8693063Y18206108D01*
X8640546Y18311578D01*
X8602366Y18388255D01*
X8473872Y18558407D01*
X8469568Y18562330D01*
X8469566Y18562333D01*
X8320605Y18698130D01*
X8320600Y18698134D01*
X8316302Y18702052D01*
X8249843Y18743202D01*
X8139975Y18811230D01*
X8139969Y18811233D01*
X8135019Y18814298D01*
X8129592Y18816401D01*
X8129585Y18816404D01*
X7941627Y18889218D01*
X7941625Y18889219D01*
X7936198Y18891321D01*
X7930476Y18892391D01*
X7930475Y18892391D01*
X7749907Y18926145D01*
X7688174Y18956885D01*
X7651870Y19015518D01*
X7651870Y19084482D01*
X7688174Y19143115D01*
X7749907Y19173855D01*
X7936198Y19208679D01*
X8135019Y19285702D01*
X8316302Y19397948D01*
X8473872Y19541593D01*
X8602366Y19711745D01*
X8697405Y19902611D01*
X8755756Y20107690D01*
X8775429Y20320000D01*
X8755756Y20532310D01*
X8697405Y20737389D01*
X8693567Y20745096D01*
X8643433Y20845780D01*
X8602366Y20928255D01*
X8598454Y20933435D01*
X8530363Y21023602D01*
X8473872Y21098407D01*
X8469568Y21102330D01*
X8469566Y21102333D01*
X8320605Y21238130D01*
X8320600Y21238134D01*
X8316302Y21242052D01*
X8249843Y21283202D01*
X8139975Y21351230D01*
X8139969Y21351233D01*
X8135019Y21354298D01*
X8129592Y21356401D01*
X8129585Y21356404D01*
X7941627Y21429218D01*
X7941625Y21429219D01*
X7936198Y21431321D01*
X7930476Y21432391D01*
X7930475Y21432391D01*
X7749907Y21466145D01*
X7688174Y21496885D01*
X7651870Y21555518D01*
X7651870Y21624482D01*
X7688174Y21683115D01*
X7749907Y21713855D01*
X7936198Y21748679D01*
X8135019Y21825702D01*
X8316302Y21937948D01*
X8473872Y22081593D01*
X8602366Y22251745D01*
X8697405Y22442611D01*
X8755756Y22647690D01*
X8775429Y22860000D01*
X8755756Y23072310D01*
X8697405Y23277389D01*
X8687436Y23297409D01*
X8603566Y23465845D01*
X8591007Y23534793D01*
X8617227Y23599785D01*
X8674115Y23640716D01*
X8744070Y23644922D01*
X8805452Y23611103D01*
X21742767Y10673788D01*
X21775626Y10616366D01*
X21774862Y10550211D01*
X21728292Y10386536D01*
X21724244Y10372310D01*
X21704571Y10160000D01*
X21724244Y9947690D01*
X21725836Y9942092D01*
X21725837Y9942091D01*
X21727039Y9937865D01*
X21782595Y9742611D01*
X21785186Y9737407D01*
X21785189Y9737400D01*
X21794224Y9719256D01*
X21877634Y9551745D01*
X21881142Y9547100D01*
X21881145Y9547095D01*
X21893656Y9530528D01*
X22006128Y9381593D01*
X22010430Y9377671D01*
X22010433Y9377668D01*
X22159394Y9241871D01*
X22159398Y9241868D01*
X22163698Y9237948D01*
X22344981Y9125702D01*
X22350411Y9123599D01*
X22350414Y9123597D01*
X22409723Y9100621D01*
X22543802Y9048679D01*
X22691046Y9021155D01*
X22730092Y9013855D01*
X22791825Y8983115D01*
X22828129Y8924481D01*
X22828129Y8855519D01*
X22791825Y8796885D01*
X22730092Y8766145D01*
X22549524Y8732391D01*
X22549520Y8732390D01*
X22543802Y8731321D01*
X22538377Y8729220D01*
X22538372Y8729218D01*
X22350414Y8656404D01*
X22350402Y8656399D01*
X22344981Y8654298D01*
X22340034Y8651236D01*
X22340024Y8651230D01*
X22168649Y8545118D01*
X22168645Y8545116D01*
X22163698Y8542052D01*
X22159404Y8538138D01*
X22159394Y8538130D01*
X22010433Y8402333D01*
X22010425Y8402325D01*
X22006128Y8398407D01*
X22002619Y8393761D01*
X22002615Y8393756D01*
X21881145Y8232906D01*
X21881139Y8232897D01*
X21877634Y8228255D01*
X21875040Y8223048D01*
X21875037Y8223041D01*
X21785189Y8042601D01*
X21785184Y8042590D01*
X21782595Y8037389D01*
X21781003Y8031796D01*
X21781001Y8031789D01*
X21726869Y7841536D01*
X21724244Y7832310D01*
X21723707Y7826518D01*
X21723707Y7826516D01*
X21721026Y7797585D01*
X21704571Y7620000D01*
X21724244Y7407690D01*
X21725836Y7402092D01*
X21725837Y7402091D01*
X21765451Y7262863D01*
X21782595Y7202611D01*
X21785186Y7197407D01*
X21785189Y7197400D01*
X21794224Y7179256D01*
X21877634Y7011745D01*
X21881142Y7007100D01*
X21881145Y7007095D01*
X21890049Y6995305D01*
X22006128Y6841593D01*
X22010430Y6837671D01*
X22010433Y6837668D01*
X22159394Y6701871D01*
X22159398Y6701868D01*
X22163698Y6697948D01*
X22233368Y6654810D01*
X22339478Y6589109D01*
X22344981Y6585702D01*
X22350411Y6583599D01*
X22350414Y6583597D01*
X22421205Y6556173D01*
X22543802Y6508679D01*
X22691046Y6481155D01*
X22730092Y6473855D01*
X22791825Y6443115D01*
X22828129Y6384481D01*
X22828129Y6315519D01*
X22791825Y6256885D01*
X22730092Y6226145D01*
X22549524Y6192391D01*
X22549520Y6192390D01*
X22543802Y6191321D01*
X22538377Y6189220D01*
X22538372Y6189218D01*
X22350414Y6116404D01*
X22350402Y6116399D01*
X22344981Y6114298D01*
X22340034Y6111236D01*
X22340024Y6111230D01*
X22168649Y6005118D01*
X22168645Y6005116D01*
X22163698Y6002052D01*
X22159404Y5998138D01*
X22159394Y5998130D01*
X22010433Y5862333D01*
X22010425Y5862325D01*
X22006128Y5858407D01*
X22002619Y5853761D01*
X22002615Y5853756D01*
X21881145Y5692906D01*
X21881139Y5692897D01*
X21877634Y5688255D01*
X21875040Y5683048D01*
X21875037Y5683041D01*
X21785189Y5502601D01*
X21785184Y5502590D01*
X21782595Y5497389D01*
X21781003Y5491796D01*
X21781001Y5491789D01*
X21726869Y5301536D01*
X21724244Y5292310D01*
X21704571Y5080000D01*
X21724244Y4867690D01*
X21725836Y4862092D01*
X21725837Y4862091D01*
X21781000Y4668214D01*
X21782595Y4662611D01*
X21785186Y4657407D01*
X21785189Y4657400D01*
X21794224Y4639256D01*
X21877634Y4471745D01*
X21881142Y4467100D01*
X21881145Y4467095D01*
X21893656Y4450528D01*
X22006128Y4301593D01*
X22010430Y4297671D01*
X22010433Y4297668D01*
X22159394Y4161871D01*
X22159398Y4161868D01*
X22163698Y4157948D01*
X22344981Y4045702D01*
X22350411Y4043599D01*
X22350414Y4043597D01*
X22422229Y4015777D01*
X22543802Y3968679D01*
X22691046Y3941155D01*
X22730092Y3933855D01*
X22791825Y3903115D01*
X22828129Y3844481D01*
X22828129Y3775519D01*
X22791825Y3716885D01*
X22730092Y3686145D01*
X22549524Y3652391D01*
X22549520Y3652390D01*
X22543802Y3651321D01*
X22538377Y3649220D01*
X22538372Y3649218D01*
X22350414Y3576404D01*
X22350402Y3576399D01*
X22344981Y3574298D01*
X22340034Y3571236D01*
X22340024Y3571230D01*
X22168649Y3465118D01*
X22168645Y3465116D01*
X22163698Y3462052D01*
X22159404Y3458138D01*
X22159394Y3458130D01*
X22010433Y3322333D01*
X22010425Y3322325D01*
X22006128Y3318407D01*
X22002619Y3313761D01*
X22002615Y3313756D01*
X21881145Y3152906D01*
X21881139Y3152897D01*
X21877634Y3148255D01*
X21875040Y3143048D01*
X21875037Y3143041D01*
X21785189Y2962601D01*
X21785184Y2962590D01*
X21782595Y2957389D01*
X21781003Y2951796D01*
X21781001Y2951789D01*
X21726869Y2761536D01*
X21724244Y2752310D01*
X21704571Y2540000D01*
X21724244Y2327690D01*
X21725836Y2322092D01*
X21725837Y2322091D01*
X21781000Y2128214D01*
X21782595Y2122611D01*
X21785186Y2117407D01*
X21785189Y2117400D01*
X21794224Y2099256D01*
X21877634Y1931745D01*
X21881142Y1927100D01*
X21881145Y1927095D01*
X21893656Y1910528D01*
X22006128Y1761593D01*
X22010430Y1757671D01*
X22010433Y1757668D01*
X22159394Y1621871D01*
X22159398Y1621868D01*
X22163698Y1617948D01*
X22344981Y1505702D01*
X22350411Y1503599D01*
X22350414Y1503597D01*
X22422229Y1475777D01*
X22543802Y1428679D01*
X22753390Y1389500D01*
X22960783Y1389500D01*
X22966610Y1389500D01*
X23176198Y1428679D01*
X23375019Y1505702D01*
X23556302Y1617948D01*
X23713872Y1761593D01*
X23842366Y1931745D01*
X23937405Y2122611D01*
X23985318Y2291007D01*
X24018238Y2346438D01*
X24074271Y2378329D01*
X24138743Y2378330D01*
X24194775Y2346438D01*
X24227697Y2291005D01*
X24279176Y2110075D01*
X24279179Y2110068D01*
X24280771Y2104472D01*
X24283367Y2099259D01*
X24283368Y2099256D01*
X24377344Y1910528D01*
X24379942Y1905311D01*
X24383452Y1900663D01*
X24510506Y1732415D01*
X24510510Y1732411D01*
X24514019Y1727764D01*
X24518321Y1723842D01*
X24518324Y1723839D01*
X24614428Y1636229D01*
X24678438Y1577876D01*
X24867599Y1460753D01*
X25075060Y1380382D01*
X25293757Y1339500D01*
X25510416Y1339500D01*
X25516243Y1339500D01*
X25734940Y1380382D01*
X25942401Y1460753D01*
X26131562Y1577876D01*
X26295981Y1727764D01*
X26430058Y1905311D01*
X26529229Y2104472D01*
X26590115Y2318464D01*
X26610643Y2540000D01*
X26590115Y2761536D01*
X26529229Y2975528D01*
X26430058Y3174689D01*
X26325040Y3313756D01*
X26299493Y3347586D01*
X26299490Y3347590D01*
X26295981Y3352236D01*
X26291677Y3356159D01*
X26291675Y3356162D01*
X26135864Y3498202D01*
X26135865Y3498202D01*
X26131562Y3502124D01*
X25942401Y3619247D01*
X25936965Y3621353D01*
X25936959Y3621356D01*
X25753291Y3692509D01*
X25704139Y3726850D01*
X25676426Y3780020D01*
X25676426Y3839980D01*
X25704139Y3893150D01*
X25753291Y3927491D01*
X25865040Y3970783D01*
X25942401Y4000753D01*
X26131562Y4117876D01*
X26295981Y4267764D01*
X26430058Y4445311D01*
X26529229Y4644472D01*
X26590115Y4858464D01*
X26610643Y5080000D01*
X26590115Y5301536D01*
X26529229Y5515528D01*
X26430058Y5714689D01*
X26325040Y5853756D01*
X26299493Y5887586D01*
X26299490Y5887590D01*
X26295981Y5892236D01*
X26291677Y5896159D01*
X26291675Y5896162D01*
X26135864Y6038202D01*
X26135865Y6038202D01*
X26131562Y6042124D01*
X25942401Y6159247D01*
X25936970Y6161351D01*
X25936962Y6161355D01*
X25830132Y6202741D01*
X25790150Y6227679D01*
X25772505Y6251533D01*
X25770955Y6250475D01*
X25765635Y6258277D01*
X25761539Y6266784D01*
X25756001Y6272752D01*
X25752200Y6279945D01*
X25745517Y6286628D01*
X25741396Y6292212D01*
X25718734Y6344904D01*
X25721776Y6402181D01*
X25749894Y6452176D01*
X25797254Y6484523D01*
X25942401Y6540753D01*
X26131562Y6657876D01*
X26295981Y6807764D01*
X26430058Y6985311D01*
X26529229Y7184472D01*
X26590115Y7398464D01*
X26610643Y7620000D01*
X26590115Y7841536D01*
X26529229Y8055528D01*
X26430058Y8254689D01*
X26325040Y8393756D01*
X26299493Y8427586D01*
X26299490Y8427590D01*
X26295981Y8432236D01*
X26291677Y8436159D01*
X26291675Y8436162D01*
X26135864Y8578202D01*
X26135865Y8578202D01*
X26131562Y8582124D01*
X25942401Y8699247D01*
X25936970Y8701351D01*
X25936962Y8701355D01*
X25753290Y8772510D01*
X25704139Y8806851D01*
X25676425Y8860022D01*
X25676426Y8919981D01*
X25704140Y8973152D01*
X25753285Y9007490D01*
X25942401Y9080753D01*
X26131562Y9197876D01*
X26295981Y9347764D01*
X26430058Y9525311D01*
X26529229Y9724472D01*
X26590115Y9938464D01*
X26610643Y10160000D01*
X26590115Y10381536D01*
X26529229Y10595528D01*
X26430058Y10794689D01*
X26384171Y10855453D01*
X26299493Y10967586D01*
X26299490Y10967590D01*
X26295981Y10972236D01*
X26259600Y11005402D01*
X26174209Y11083247D01*
X26138450Y11140019D01*
X26136901Y11207095D01*
X26169998Y11265455D01*
X26769177Y11864634D01*
X26779702Y11874039D01*
X26805727Y11894792D01*
X26836154Y11939423D01*
X26838817Y11943177D01*
X26870914Y11986664D01*
X26873602Y11994348D01*
X26878186Y12001070D01*
X26894114Y12052710D01*
X26895545Y12057060D01*
X26913397Y12108075D01*
X26913701Y12116209D01*
X26916100Y12123985D01*
X26916100Y12177965D01*
X26916188Y12182676D01*
X26916196Y12182916D01*
X26918206Y12236615D01*
X26916479Y12243060D01*
X26916100Y12249815D01*
X26916100Y12443409D01*
X27927296Y12443409D01*
X27927669Y12431999D01*
X27974764Y12256239D01*
X27978510Y12245947D01*
X28070586Y12048490D01*
X28076068Y12038994D01*
X28201028Y11860534D01*
X28208084Y11852125D01*
X28362124Y11698085D01*
X28370533Y11691029D01*
X28548993Y11566069D01*
X28558489Y11560587D01*
X28755946Y11468511D01*
X28766238Y11464765D01*
X28941998Y11417670D01*
X28953408Y11417297D01*
X28956000Y11428411D01*
X29464000Y11428411D01*
X29466591Y11417297D01*
X29478001Y11417670D01*
X29653761Y11464765D01*
X29664053Y11468511D01*
X29861510Y11560587D01*
X29871006Y11566069D01*
X30049466Y11691029D01*
X30057875Y11698085D01*
X30211915Y11852125D01*
X30218971Y11860534D01*
X30343931Y12038994D01*
X30349413Y12048490D01*
X30441489Y12245947D01*
X30445235Y12256239D01*
X30492330Y12431999D01*
X30492703Y12443409D01*
X30481589Y12446000D01*
X29480590Y12446000D01*
X29467506Y12442494D01*
X29464000Y12429410D01*
X29464000Y11428411D01*
X28956000Y11428411D01*
X28956000Y12429410D01*
X28952493Y12442494D01*
X28939410Y12446000D01*
X27938411Y12446000D01*
X27927296Y12443409D01*
X26916100Y12443409D01*
X26916100Y20745559D01*
X26916892Y20759667D01*
X26917577Y20765745D01*
X26920618Y20792736D01*
X26910582Y20845780D01*
X26909793Y20850425D01*
X26903155Y20894462D01*
X26901749Y20903793D01*
X26898218Y20911126D01*
X26896705Y20919122D01*
X26882060Y20946832D01*
X26871482Y20966847D01*
X26869358Y20971054D01*
X26864731Y20980661D01*
X26845939Y21019684D01*
X26840401Y21025652D01*
X26836600Y21032845D01*
X26798443Y21071002D01*
X26795175Y21074394D01*
X26782570Y21087979D01*
X26758448Y21113976D01*
X26752668Y21117314D01*
X26747619Y21121826D01*
X26251142Y21618303D01*
X26217287Y21679844D01*
X26221639Y21749949D01*
X26262847Y21806830D01*
X26323783Y21854259D01*
X26331432Y21861300D01*
X26476789Y22019201D01*
X26483177Y22027407D01*
X26600568Y22207087D01*
X26605511Y22216222D01*
X26691729Y22412777D01*
X26695099Y22422592D01*
X26738013Y22592057D01*
X26738248Y22603435D01*
X26727160Y22606000D01*
X22732000Y22606000D01*
X22669000Y22622881D01*
X22622881Y22669000D01*
X22606000Y22732000D01*
X22606000Y22988000D01*
X22622881Y23051000D01*
X22669000Y23097119D01*
X22732000Y23114000D01*
X26727160Y23114000D01*
X26738248Y23116566D01*
X26738013Y23127944D01*
X26695099Y23297409D01*
X26691729Y23307224D01*
X26605511Y23503779D01*
X26600568Y23512914D01*
X26483177Y23692594D01*
X26476789Y23700800D01*
X26331432Y23858701D01*
X26323788Y23865738D01*
X26154411Y23997569D01*
X26145718Y24003248D01*
X25954815Y24106560D01*
X25907496Y24151304D01*
X25888838Y24213698D01*
X25903825Y24277074D01*
X25948451Y24324500D01*
X26131562Y24437876D01*
X26295981Y24587764D01*
X26430058Y24765311D01*
X26529229Y24964472D01*
X26590115Y25178464D01*
X26610643Y25400000D01*
X26590115Y25621536D01*
X26529229Y25835528D01*
X26430058Y26034689D01*
X26331521Y26165174D01*
X26299493Y26207586D01*
X26299490Y26207590D01*
X26295981Y26212236D01*
X26291677Y26216159D01*
X26291675Y26216162D01*
X26135864Y26358202D01*
X26135865Y26358202D01*
X26131562Y26362124D01*
X25942401Y26479247D01*
X25936965Y26481353D01*
X25936959Y26481356D01*
X25753291Y26552509D01*
X25704139Y26586850D01*
X25676426Y26640020D01*
X25676426Y26699980D01*
X25704139Y26753150D01*
X25753291Y26787491D01*
X25882342Y26837486D01*
X25942401Y26860753D01*
X26131562Y26977876D01*
X26295981Y27127764D01*
X26430058Y27305311D01*
X26529229Y27504472D01*
X26590115Y27718464D01*
X26610643Y27940000D01*
X26590115Y28161536D01*
X26529229Y28375528D01*
X26430058Y28574689D01*
X26374192Y28648668D01*
X26349279Y28712974D01*
X26361952Y28780763D01*
X26408412Y28831727D01*
X26474742Y28850600D01*
X28202913Y28850600D01*
X28269244Y28831727D01*
X28315704Y28780763D01*
X28328375Y28712974D01*
X28303463Y28648668D01*
X28231145Y28552906D01*
X28231139Y28552897D01*
X28227634Y28548255D01*
X28225040Y28543048D01*
X28225037Y28543041D01*
X28135189Y28362601D01*
X28135184Y28362590D01*
X28132595Y28357389D01*
X28131003Y28351796D01*
X28131001Y28351789D01*
X28076869Y28161536D01*
X28074244Y28152310D01*
X28054571Y27940000D01*
X28074244Y27727690D01*
X28075836Y27722092D01*
X28075837Y27722091D01*
X28131000Y27528214D01*
X28132595Y27522611D01*
X28135186Y27517407D01*
X28135189Y27517400D01*
X28222059Y27342941D01*
X28227634Y27331745D01*
X28231142Y27327100D01*
X28231145Y27327095D01*
X28267470Y27278994D01*
X28356128Y27161593D01*
X28360430Y27157671D01*
X28360433Y27157668D01*
X28509394Y27021871D01*
X28509398Y27021868D01*
X28513698Y27017948D01*
X28635193Y26942722D01*
X28654076Y26931029D01*
X28694981Y26905702D01*
X28700411Y26903599D01*
X28700414Y26903597D01*
X28772229Y26875777D01*
X28893802Y26828679D01*
X29041046Y26801155D01*
X29080092Y26793855D01*
X29141825Y26763115D01*
X29178129Y26704481D01*
X29178129Y26635519D01*
X29141825Y26576885D01*
X29080092Y26546145D01*
X28899524Y26512391D01*
X28899520Y26512390D01*
X28893802Y26511321D01*
X28888377Y26509220D01*
X28888372Y26509218D01*
X28700414Y26436404D01*
X28700402Y26436399D01*
X28694981Y26434298D01*
X28690034Y26431236D01*
X28690024Y26431230D01*
X28518649Y26325118D01*
X28518645Y26325116D01*
X28513698Y26322052D01*
X28509404Y26318138D01*
X28509394Y26318130D01*
X28360433Y26182333D01*
X28360425Y26182325D01*
X28356128Y26178407D01*
X28352619Y26173761D01*
X28352615Y26173756D01*
X28231145Y26012906D01*
X28231139Y26012897D01*
X28227634Y26008255D01*
X28225040Y26003048D01*
X28225037Y26003041D01*
X28135189Y25822601D01*
X28135184Y25822590D01*
X28132595Y25817389D01*
X28131003Y25811796D01*
X28131001Y25811789D01*
X28076869Y25621536D01*
X28074244Y25612310D01*
X28054571Y25400000D01*
X28074244Y25187690D01*
X28075836Y25182092D01*
X28075837Y25182091D01*
X28131000Y24988214D01*
X28132595Y24982611D01*
X28135186Y24977407D01*
X28135189Y24977400D01*
X28150851Y24945947D01*
X28227634Y24791745D01*
X28231142Y24787100D01*
X28231145Y24787095D01*
X28243656Y24770528D01*
X28356128Y24621593D01*
X28360430Y24617671D01*
X28360433Y24617668D01*
X28509394Y24481871D01*
X28509398Y24481868D01*
X28513698Y24477948D01*
X28635193Y24402722D01*
X28654076Y24391029D01*
X28694981Y24365702D01*
X28700411Y24363599D01*
X28700414Y24363597D01*
X28700417Y24363596D01*
X28893802Y24288679D01*
X29041046Y24261155D01*
X29080092Y24253855D01*
X29141825Y24223115D01*
X29178129Y24164481D01*
X29178129Y24095519D01*
X29141825Y24036885D01*
X29080092Y24006145D01*
X28899524Y23972391D01*
X28899520Y23972390D01*
X28893802Y23971321D01*
X28888377Y23969220D01*
X28888372Y23969218D01*
X28700414Y23896404D01*
X28700402Y23896399D01*
X28694981Y23894298D01*
X28690034Y23891236D01*
X28690024Y23891230D01*
X28518649Y23785118D01*
X28518645Y23785116D01*
X28513698Y23782052D01*
X28509404Y23778138D01*
X28509394Y23778130D01*
X28360433Y23642333D01*
X28360425Y23642325D01*
X28356128Y23638407D01*
X28352619Y23633761D01*
X28352615Y23633756D01*
X28231145Y23472906D01*
X28231139Y23472897D01*
X28227634Y23468255D01*
X28225040Y23463048D01*
X28225037Y23463041D01*
X28135189Y23282601D01*
X28135184Y23282590D01*
X28132595Y23277389D01*
X28131003Y23271796D01*
X28131001Y23271789D01*
X28076643Y23080742D01*
X28074244Y23072310D01*
X28054571Y22860000D01*
X28055108Y22854205D01*
X28071483Y22677481D01*
X28074244Y22647690D01*
X28075836Y22642092D01*
X28075837Y22642091D01*
X28106070Y22535833D01*
X28132595Y22442611D01*
X28135186Y22437407D01*
X28135189Y22437400D01*
X28221616Y22263831D01*
X28227634Y22251745D01*
X28231142Y22247100D01*
X28231145Y22247095D01*
X28340751Y22101955D01*
X28356128Y22081593D01*
X28360430Y22077671D01*
X28360433Y22077668D01*
X28509394Y21941871D01*
X28509398Y21941868D01*
X28513698Y21937948D01*
X28607999Y21879559D01*
X28664598Y21844514D01*
X28694981Y21825702D01*
X28700411Y21823599D01*
X28700414Y21823597D01*
X28759723Y21800621D01*
X28893802Y21748679D01*
X29041046Y21721155D01*
X29080092Y21713855D01*
X29141825Y21683115D01*
X29178129Y21624481D01*
X29178129Y21555519D01*
X29141825Y21496885D01*
X29080092Y21466145D01*
X28899524Y21432391D01*
X28899520Y21432390D01*
X28893802Y21431321D01*
X28888377Y21429220D01*
X28888372Y21429218D01*
X28700414Y21356404D01*
X28700402Y21356399D01*
X28694981Y21354298D01*
X28690034Y21351236D01*
X28690024Y21351230D01*
X28518649Y21245118D01*
X28518645Y21245116D01*
X28513698Y21242052D01*
X28509404Y21238138D01*
X28509394Y21238130D01*
X28360433Y21102333D01*
X28360425Y21102325D01*
X28356128Y21098407D01*
X28352619Y21093761D01*
X28352615Y21093756D01*
X28231145Y20932906D01*
X28231139Y20932897D01*
X28227634Y20928255D01*
X28225040Y20923048D01*
X28225037Y20923041D01*
X28135189Y20742601D01*
X28135184Y20742590D01*
X28132595Y20737389D01*
X28131003Y20731796D01*
X28131001Y20731789D01*
X28076643Y20540742D01*
X28074244Y20532310D01*
X28054571Y20320000D01*
X28074244Y20107690D01*
X28075836Y20102092D01*
X28075837Y20102091D01*
X28077039Y20097865D01*
X28132595Y19902611D01*
X28135186Y19897407D01*
X28135189Y19897400D01*
X28195263Y19776755D01*
X28227634Y19711745D01*
X28231142Y19707100D01*
X28231145Y19707095D01*
X28288392Y19631289D01*
X28356128Y19541593D01*
X28360430Y19537671D01*
X28360433Y19537668D01*
X28509394Y19401871D01*
X28509398Y19401868D01*
X28513698Y19397948D01*
X28694981Y19285702D01*
X28700411Y19283599D01*
X28700414Y19283597D01*
X28759723Y19260621D01*
X28893802Y19208679D01*
X29041046Y19181155D01*
X29080092Y19173855D01*
X29141825Y19143115D01*
X29178129Y19084481D01*
X29178129Y19015519D01*
X29141825Y18956885D01*
X29080092Y18926145D01*
X28899524Y18892391D01*
X28899520Y18892390D01*
X28893802Y18891321D01*
X28888377Y18889220D01*
X28888372Y18889218D01*
X28700414Y18816404D01*
X28700402Y18816399D01*
X28694981Y18814298D01*
X28690034Y18811236D01*
X28690024Y18811230D01*
X28518649Y18705118D01*
X28518645Y18705116D01*
X28513698Y18702052D01*
X28509404Y18698138D01*
X28509394Y18698130D01*
X28360433Y18562333D01*
X28360425Y18562325D01*
X28356128Y18558407D01*
X28352619Y18553761D01*
X28352615Y18553756D01*
X28231145Y18392906D01*
X28231139Y18392897D01*
X28227634Y18388255D01*
X28225040Y18383048D01*
X28225037Y18383041D01*
X28135189Y18202601D01*
X28135184Y18202590D01*
X28132595Y18197389D01*
X28131003Y18191796D01*
X28131001Y18191789D01*
X28076869Y18001536D01*
X28074244Y17992310D01*
X28054571Y17780000D01*
X28074244Y17567690D01*
X28075836Y17562092D01*
X28075837Y17562091D01*
X28131000Y17368214D01*
X28132595Y17362611D01*
X28135186Y17357407D01*
X28135189Y17357400D01*
X28224491Y17178057D01*
X28227634Y17171745D01*
X28231142Y17167100D01*
X28231145Y17167095D01*
X28243656Y17150528D01*
X28356128Y17001593D01*
X28360430Y16997671D01*
X28360433Y16997668D01*
X28509394Y16861871D01*
X28509398Y16861868D01*
X28513698Y16857948D01*
X28694981Y16745702D01*
X28700411Y16743599D01*
X28700414Y16743597D01*
X28737903Y16729074D01*
X28893802Y16668679D01*
X29041046Y16641155D01*
X29080092Y16633855D01*
X29141825Y16603115D01*
X29178129Y16544481D01*
X29178129Y16475519D01*
X29141825Y16416885D01*
X29080092Y16386145D01*
X28899524Y16352391D01*
X28899520Y16352390D01*
X28893802Y16351321D01*
X28888377Y16349220D01*
X28888372Y16349218D01*
X28700414Y16276404D01*
X28700402Y16276399D01*
X28694981Y16274298D01*
X28690034Y16271236D01*
X28690024Y16271230D01*
X28518649Y16165118D01*
X28518645Y16165116D01*
X28513698Y16162052D01*
X28509404Y16158138D01*
X28509394Y16158130D01*
X28360433Y16022333D01*
X28360425Y16022325D01*
X28356128Y16018407D01*
X28352619Y16013761D01*
X28352615Y16013756D01*
X28231145Y15852906D01*
X28231139Y15852897D01*
X28227634Y15848255D01*
X28225040Y15843048D01*
X28225037Y15843041D01*
X28135189Y15662601D01*
X28135184Y15662590D01*
X28132595Y15657389D01*
X28131003Y15651796D01*
X28131001Y15651789D01*
X28076869Y15461536D01*
X28074244Y15452310D01*
X28054571Y15240000D01*
X28074244Y15027690D01*
X28075836Y15022092D01*
X28075837Y15022091D01*
X28131000Y14828214D01*
X28132595Y14822611D01*
X28135186Y14817407D01*
X28135189Y14817400D01*
X28225035Y14636964D01*
X28227634Y14631745D01*
X28231142Y14627100D01*
X28231145Y14627095D01*
X28261358Y14587087D01*
X28356128Y14461593D01*
X28360430Y14457671D01*
X28360433Y14457668D01*
X28509394Y14321871D01*
X28509398Y14321868D01*
X28513698Y14317948D01*
X28583368Y14274810D01*
X28648853Y14234263D01*
X28694981Y14205702D01*
X28700411Y14203599D01*
X28700414Y14203597D01*
X28777103Y14173888D01*
X28828025Y14137487D01*
X28855147Y14081074D01*
X28851775Y14018570D01*
X28818743Y13965402D01*
X28770920Y13938474D01*
X28771413Y13937119D01*
X28755946Y13931490D01*
X28558489Y13839414D01*
X28548993Y13833932D01*
X28370533Y13708972D01*
X28362124Y13701916D01*
X28208084Y13547876D01*
X28201028Y13539467D01*
X28076068Y13361007D01*
X28070586Y13351511D01*
X27978510Y13154054D01*
X27974764Y13143762D01*
X27927669Y12968002D01*
X27927296Y12956592D01*
X27938411Y12954000D01*
X30481589Y12954000D01*
X30492703Y12956592D01*
X30492330Y12968002D01*
X30445235Y13143762D01*
X30441489Y13154054D01*
X30349413Y13351511D01*
X30343931Y13361007D01*
X30218971Y13539467D01*
X30211915Y13547876D01*
X30057875Y13701916D01*
X30049466Y13708972D01*
X29871006Y13833932D01*
X29861510Y13839414D01*
X29664053Y13931490D01*
X29648587Y13937119D01*
X29649080Y13938476D01*
X29601262Y13965397D01*
X29568225Y14018565D01*
X29564852Y14081070D01*
X29591973Y14137486D01*
X29642894Y14173888D01*
X29725019Y14205702D01*
X29906302Y14317948D01*
X30063872Y14461593D01*
X30192366Y14631745D01*
X30254540Y14756610D01*
X30293180Y14802317D01*
X30348552Y14825038D01*
X30365893Y14827651D01*
X30373225Y14831182D01*
X30381222Y14832695D01*
X30428980Y14857937D01*
X30433095Y14860015D01*
X30481784Y14883461D01*
X30487751Y14888999D01*
X30494945Y14892800D01*
X30533137Y14930994D01*
X30536475Y14934209D01*
X30576076Y14970952D01*
X30579413Y14976735D01*
X30583910Y14981767D01*
X31457240Y15855096D01*
X31498118Y15882409D01*
X31546336Y15892000D01*
X43285920Y15892000D01*
X43347232Y15876076D01*
X43393047Y15832330D01*
X43411786Y15771819D01*
X43398711Y15709837D01*
X43375189Y15662600D01*
X43375186Y15662594D01*
X43372595Y15657389D01*
X43371003Y15651796D01*
X43371001Y15651789D01*
X43316869Y15461536D01*
X43314244Y15452310D01*
X43294571Y15240000D01*
X43314244Y15027690D01*
X43315836Y15022092D01*
X43315837Y15022091D01*
X43371000Y14828214D01*
X43372595Y14822611D01*
X43375186Y14817407D01*
X43375189Y14817400D01*
X43465035Y14636964D01*
X43467634Y14631745D01*
X43471142Y14627100D01*
X43471145Y14627095D01*
X43501358Y14587087D01*
X43596128Y14461593D01*
X43600430Y14457671D01*
X43600433Y14457668D01*
X43749394Y14321871D01*
X43749398Y14321868D01*
X43753698Y14317948D01*
X43823368Y14274810D01*
X43888853Y14234263D01*
X43934981Y14205702D01*
X43940411Y14203599D01*
X43940414Y14203597D01*
X44011313Y14176131D01*
X44133802Y14128679D01*
X44274210Y14102432D01*
X44320092Y14093855D01*
X44381825Y14063115D01*
X44418129Y14004481D01*
X44418129Y13935519D01*
X44381825Y13876885D01*
X44320092Y13846145D01*
X44139524Y13812391D01*
X44139520Y13812390D01*
X44133802Y13811321D01*
X44128377Y13809220D01*
X44128372Y13809218D01*
X43940414Y13736404D01*
X43940402Y13736399D01*
X43934981Y13734298D01*
X43930034Y13731236D01*
X43930024Y13731230D01*
X43758649Y13625118D01*
X43758645Y13625116D01*
X43753698Y13622052D01*
X43749404Y13618138D01*
X43749394Y13618130D01*
X43600433Y13482333D01*
X43600425Y13482325D01*
X43596128Y13478407D01*
X43592619Y13473761D01*
X43592615Y13473756D01*
X43471145Y13312906D01*
X43471139Y13312897D01*
X43467634Y13308255D01*
X43465040Y13303048D01*
X43465037Y13303041D01*
X43375189Y13122601D01*
X43375184Y13122590D01*
X43372595Y13117389D01*
X43371003Y13111796D01*
X43371001Y13111789D01*
X43316869Y12921536D01*
X43314244Y12912310D01*
X43294571Y12700000D01*
X43314244Y12487690D01*
X43315836Y12482092D01*
X43315837Y12482091D01*
X43371000Y12288214D01*
X43372595Y12282611D01*
X43375186Y12277407D01*
X43375189Y12277400D01*
X43459742Y12107594D01*
X43467634Y12091745D01*
X43471142Y12087100D01*
X43471145Y12087095D01*
X43544727Y11989658D01*
X43596128Y11921593D01*
X43600430Y11917671D01*
X43600433Y11917668D01*
X43749394Y11781871D01*
X43749398Y11781868D01*
X43753698Y11777948D01*
X43875193Y11702722D01*
X43894076Y11691029D01*
X43934981Y11665702D01*
X43940411Y11663599D01*
X43940414Y11663597D01*
X43956372Y11657415D01*
X44133802Y11588679D01*
X44343390Y11549500D01*
X44550783Y11549500D01*
X44556610Y11549500D01*
X44766198Y11588679D01*
X44965019Y11665702D01*
X45146302Y11777948D01*
X45303872Y11921593D01*
X45432366Y12091745D01*
X45527405Y12282611D01*
X45585756Y12487690D01*
X45605429Y12700000D01*
X45585756Y12912310D01*
X45527405Y13117389D01*
X45521162Y13129926D01*
X45434962Y13303041D01*
X45432366Y13308255D01*
X45303872Y13478407D01*
X45299568Y13482330D01*
X45299566Y13482333D01*
X45150605Y13618130D01*
X45150600Y13618134D01*
X45146302Y13622052D01*
X45079843Y13663202D01*
X44969975Y13731230D01*
X44969969Y13731233D01*
X44965019Y13734298D01*
X44959592Y13736401D01*
X44959585Y13736404D01*
X44771627Y13809218D01*
X44771625Y13809219D01*
X44766198Y13811321D01*
X44760476Y13812391D01*
X44760475Y13812391D01*
X44579907Y13846145D01*
X44518174Y13876885D01*
X44481870Y13935518D01*
X44481870Y14004482D01*
X44518174Y14063115D01*
X44579907Y14093855D01*
X44592532Y14096215D01*
X44766198Y14128679D01*
X44965019Y14205702D01*
X45146302Y14317948D01*
X45303872Y14461593D01*
X45432366Y14631745D01*
X45527405Y14822611D01*
X45573164Y14983435D01*
X53911751Y14983435D01*
X53911986Y14972057D01*
X53954900Y14802592D01*
X53958270Y14792777D01*
X54044488Y14596222D01*
X54049431Y14587087D01*
X54166822Y14407407D01*
X54173210Y14399201D01*
X54318567Y14241300D01*
X54326211Y14234263D01*
X54495588Y14102432D01*
X54504281Y14096753D01*
X54693042Y13994600D01*
X54702559Y13990425D01*
X54905557Y13920736D01*
X54915627Y13918186D01*
X54977461Y13907868D01*
X54988598Y13908444D01*
X54991000Y13919336D01*
X54991000Y14969410D01*
X54987493Y14982494D01*
X54974410Y14986000D01*
X53922840Y14986000D01*
X53911751Y14983435D01*
X45573164Y14983435D01*
X45585756Y15027690D01*
X45605429Y15240000D01*
X45585756Y15452310D01*
X45527405Y15657389D01*
X45501288Y15709838D01*
X45488214Y15771819D01*
X45506953Y15832330D01*
X45552768Y15876076D01*
X45614080Y15892000D01*
X53855237Y15892000D01*
X53915207Y15876814D01*
X53960720Y15834915D01*
X53980807Y15776404D01*
X53970624Y15715386D01*
X53958270Y15687224D01*
X53954900Y15677409D01*
X53911986Y15507944D01*
X53911751Y15496566D01*
X53922840Y15494000D01*
X55373000Y15494000D01*
X55436000Y15477119D01*
X55482119Y15431000D01*
X55499000Y15368000D01*
X55499000Y13919336D01*
X55501401Y13908444D01*
X55512538Y13907868D01*
X55574372Y13918186D01*
X55584442Y13920736D01*
X55787440Y13990425D01*
X55796957Y13994600D01*
X55985718Y14096753D01*
X55994411Y14102432D01*
X56163788Y14234263D01*
X56171432Y14241300D01*
X56316789Y14399201D01*
X56323177Y14407407D01*
X56440568Y14587087D01*
X56445508Y14596217D01*
X56486732Y14690196D01*
X56531927Y14744220D01*
X56599056Y14765546D01*
X56667143Y14747509D01*
X56714910Y14695747D01*
X56754854Y14615528D01*
X56759942Y14605311D01*
X56763452Y14600663D01*
X56890506Y14432415D01*
X56890510Y14432411D01*
X56894019Y14427764D01*
X56898321Y14423842D01*
X56898324Y14423839D01*
X56925351Y14399201D01*
X57058438Y14277876D01*
X57247599Y14160753D01*
X57455060Y14080382D01*
X57673757Y14039500D01*
X57890416Y14039500D01*
X57896243Y14039500D01*
X58114940Y14080382D01*
X58322401Y14160753D01*
X58511562Y14277876D01*
X58675981Y14427764D01*
X58810058Y14605311D01*
X58909229Y14804472D01*
X58918833Y14838227D01*
X58947844Y14889647D01*
X58997099Y14922207D01*
X59055778Y14928755D01*
X59110996Y14907853D01*
X59132416Y14893249D01*
X59136226Y14890545D01*
X59152330Y14878659D01*
X59181062Y14849060D01*
X59196947Y14815463D01*
X59197071Y14815510D01*
X59197732Y14813803D01*
X59198695Y14811767D01*
X59199175Y14810078D01*
X59199178Y14810069D01*
X59200771Y14804472D01*
X59203367Y14799259D01*
X59203368Y14799256D01*
X59295178Y14614878D01*
X59299942Y14605311D01*
X59303452Y14600663D01*
X59430506Y14432415D01*
X59430510Y14432411D01*
X59434019Y14427764D01*
X59438321Y14423842D01*
X59438324Y14423839D01*
X59465351Y14399201D01*
X59598438Y14277876D01*
X59787599Y14160753D01*
X59995060Y14080382D01*
X60213757Y14039500D01*
X60430416Y14039500D01*
X60436243Y14039500D01*
X60654940Y14080382D01*
X60862401Y14160753D01*
X61051562Y14277876D01*
X61215981Y14427764D01*
X61350058Y14605311D01*
X61449229Y14804472D01*
X61473809Y14890865D01*
X61506731Y14946299D01*
X61562764Y14978191D01*
X61627236Y14978191D01*
X61683269Y14946299D01*
X61716190Y14890865D01*
X61737092Y14817400D01*
X61740771Y14804472D01*
X61743367Y14799259D01*
X61743368Y14799256D01*
X61835178Y14614878D01*
X61839942Y14605311D01*
X61843452Y14600663D01*
X61970506Y14432415D01*
X61970510Y14432411D01*
X61974019Y14427764D01*
X61978321Y14423842D01*
X61978324Y14423839D01*
X62005351Y14399201D01*
X62138438Y14277876D01*
X62327599Y14160753D01*
X62535060Y14080382D01*
X62753757Y14039500D01*
X62970416Y14039500D01*
X62976243Y14039500D01*
X63194940Y14080382D01*
X63402401Y14160753D01*
X63591562Y14277876D01*
X63755981Y14427764D01*
X63890058Y14605311D01*
X63989229Y14804472D01*
X64013809Y14890865D01*
X64046731Y14946299D01*
X64102764Y14978191D01*
X64167236Y14978191D01*
X64223269Y14946299D01*
X64256190Y14890865D01*
X64277092Y14817400D01*
X64280771Y14804472D01*
X64283367Y14799259D01*
X64283368Y14799256D01*
X64375178Y14614878D01*
X64379942Y14605311D01*
X64383452Y14600663D01*
X64510506Y14432415D01*
X64510510Y14432411D01*
X64514019Y14427764D01*
X64518321Y14423842D01*
X64518324Y14423839D01*
X64545351Y14399201D01*
X64678438Y14277876D01*
X64867599Y14160753D01*
X65075060Y14080382D01*
X65293757Y14039500D01*
X65510416Y14039500D01*
X65516243Y14039500D01*
X65734940Y14080382D01*
X65942401Y14160753D01*
X66131562Y14277876D01*
X66295981Y14427764D01*
X66430058Y14605311D01*
X66505710Y14757241D01*
X66550201Y14806960D01*
X66613844Y14826991D01*
X66678793Y14811715D01*
X66726835Y14765416D01*
X66744500Y14701077D01*
X66744500Y14356740D01*
X66745156Y14352233D01*
X66745157Y14352229D01*
X66750598Y14314883D01*
X66754427Y14288607D01*
X66758724Y14279816D01*
X66758725Y14279815D01*
X66759673Y14277876D01*
X66805802Y14183517D01*
X66888517Y14100802D01*
X66993607Y14049427D01*
X67061740Y14039500D01*
X68823698Y14039500D01*
X68828260Y14039500D01*
X68896393Y14049427D01*
X69001483Y14100802D01*
X69084198Y14183517D01*
X69135573Y14288607D01*
X69145500Y14356740D01*
X69145500Y16123260D01*
X69135573Y16191393D01*
X69084198Y16296483D01*
X69001483Y16379198D01*
X68964019Y16397513D01*
X68905185Y16426275D01*
X68905184Y16426276D01*
X68896393Y16430573D01*
X68886713Y16431984D01*
X68886711Y16431984D01*
X68832771Y16439843D01*
X68832767Y16439844D01*
X68828260Y16440500D01*
X67061740Y16440500D01*
X67057233Y16439844D01*
X67057228Y16439843D01*
X67003288Y16431984D01*
X67003285Y16431984D01*
X66993607Y16430573D01*
X66984817Y16426277D01*
X66984814Y16426275D01*
X66897901Y16383786D01*
X66897898Y16383785D01*
X66888517Y16379198D01*
X66881133Y16371815D01*
X66881130Y16371812D01*
X66813188Y16303870D01*
X66813185Y16303867D01*
X66805802Y16296483D01*
X66801215Y16287102D01*
X66801214Y16287099D01*
X66758725Y16200186D01*
X66758723Y16200183D01*
X66754427Y16191393D01*
X66753016Y16181715D01*
X66753016Y16181712D01*
X66745157Y16127772D01*
X66744500Y16123260D01*
X66744500Y16118697D01*
X66744500Y15778923D01*
X66726835Y15714584D01*
X66678793Y15668285D01*
X66613844Y15653009D01*
X66550201Y15673040D01*
X66505710Y15722760D01*
X66445817Y15843041D01*
X66430058Y15874689D01*
X66325036Y16013761D01*
X66299493Y16047586D01*
X66299490Y16047590D01*
X66295981Y16052236D01*
X66291677Y16056159D01*
X66291675Y16056162D01*
X66135864Y16198202D01*
X66135865Y16198202D01*
X66131562Y16202124D01*
X65942401Y16319247D01*
X65856847Y16352391D01*
X65740375Y16397513D01*
X65740369Y16397515D01*
X65734940Y16399618D01*
X65729220Y16400688D01*
X65729214Y16400689D01*
X65521967Y16439430D01*
X65521966Y16439431D01*
X65516243Y16440500D01*
X65293757Y16440500D01*
X65288034Y16439431D01*
X65288032Y16439430D01*
X65080785Y16400689D01*
X65080776Y16400687D01*
X65075060Y16399618D01*
X65069632Y16397516D01*
X65069624Y16397513D01*
X64873037Y16321354D01*
X64873034Y16321353D01*
X64867599Y16319247D01*
X64862643Y16316179D01*
X64862638Y16316176D01*
X64686513Y16207124D01*
X64678438Y16202124D01*
X64674139Y16198206D01*
X64674135Y16198202D01*
X64518324Y16056162D01*
X64518316Y16056154D01*
X64514019Y16052236D01*
X64510514Y16047596D01*
X64510506Y16047586D01*
X64383452Y15879338D01*
X64383448Y15879333D01*
X64379942Y15874689D01*
X64377347Y15869479D01*
X64377344Y15869473D01*
X64283368Y15680745D01*
X64283365Y15680739D01*
X64280771Y15675528D01*
X64279177Y15669927D01*
X64279177Y15669926D01*
X64256190Y15589135D01*
X64223268Y15533702D01*
X64167236Y15501810D01*
X64102764Y15501810D01*
X64046732Y15533702D01*
X64013810Y15589135D01*
X63995636Y15653009D01*
X63989229Y15675528D01*
X63890058Y15874689D01*
X63785036Y16013761D01*
X63759493Y16047586D01*
X63759490Y16047590D01*
X63755981Y16052236D01*
X63751677Y16056159D01*
X63751675Y16056162D01*
X63595864Y16198202D01*
X63595865Y16198202D01*
X63591562Y16202124D01*
X63402401Y16319247D01*
X63316847Y16352391D01*
X63200375Y16397513D01*
X63200369Y16397515D01*
X63194940Y16399618D01*
X63189220Y16400688D01*
X63189214Y16400689D01*
X62981967Y16439430D01*
X62981966Y16439431D01*
X62976243Y16440500D01*
X62753757Y16440500D01*
X62748034Y16439431D01*
X62748032Y16439430D01*
X62540785Y16400689D01*
X62540776Y16400687D01*
X62535060Y16399618D01*
X62529632Y16397516D01*
X62529624Y16397513D01*
X62333037Y16321354D01*
X62333034Y16321353D01*
X62327599Y16319247D01*
X62322643Y16316179D01*
X62322638Y16316176D01*
X62146513Y16207124D01*
X62138438Y16202124D01*
X62134139Y16198206D01*
X62134135Y16198202D01*
X61978324Y16056162D01*
X61978316Y16056154D01*
X61974019Y16052236D01*
X61970514Y16047596D01*
X61970506Y16047586D01*
X61843452Y15879338D01*
X61843448Y15879333D01*
X61839942Y15874689D01*
X61837347Y15869479D01*
X61837344Y15869473D01*
X61743368Y15680745D01*
X61743365Y15680739D01*
X61740771Y15675528D01*
X61739177Y15669927D01*
X61739177Y15669926D01*
X61716190Y15589135D01*
X61683268Y15533702D01*
X61627236Y15501810D01*
X61562764Y15501810D01*
X61506732Y15533702D01*
X61473810Y15589135D01*
X61455636Y15653009D01*
X61449229Y15675528D01*
X61350058Y15874689D01*
X61245036Y16013761D01*
X61219493Y16047586D01*
X61219490Y16047590D01*
X61215981Y16052236D01*
X61211677Y16056159D01*
X61211675Y16056162D01*
X61055864Y16198202D01*
X61055865Y16198202D01*
X61051562Y16202124D01*
X60862401Y16319247D01*
X60776847Y16352391D01*
X60660375Y16397513D01*
X60660369Y16397515D01*
X60654940Y16399618D01*
X60649220Y16400688D01*
X60649214Y16400689D01*
X60441967Y16439430D01*
X60441966Y16439431D01*
X60436243Y16440500D01*
X60213757Y16440500D01*
X60208034Y16439431D01*
X60208032Y16439430D01*
X60000785Y16400689D01*
X60000776Y16400687D01*
X59995060Y16399618D01*
X59989632Y16397516D01*
X59989624Y16397513D01*
X59793037Y16321354D01*
X59793034Y16321353D01*
X59787599Y16319247D01*
X59782643Y16316179D01*
X59782638Y16316176D01*
X59606513Y16207124D01*
X59598438Y16202124D01*
X59594139Y16198206D01*
X59594135Y16198202D01*
X59438324Y16056162D01*
X59438316Y16056154D01*
X59434019Y16052236D01*
X59430510Y16047591D01*
X59430505Y16047584D01*
X59408761Y16018790D01*
X59351913Y15976544D01*
X59281256Y15971640D01*
X59219117Y16005628D01*
X58626274Y16598471D01*
X58616858Y16609007D01*
X58607787Y16620382D01*
X58596108Y16635027D01*
X58551505Y16665437D01*
X58547662Y16668164D01*
X58511831Y16694609D01*
X58511829Y16694610D01*
X58504236Y16700214D01*
X58496552Y16702903D01*
X58489830Y16707486D01*
X58480813Y16710268D01*
X58480810Y16710269D01*
X58438253Y16723396D01*
X58433780Y16724868D01*
X58391731Y16739581D01*
X58391729Y16739582D01*
X58382825Y16742697D01*
X58374691Y16743002D01*
X58366915Y16745400D01*
X58357478Y16745400D01*
X58312951Y16745400D01*
X58308239Y16745488D01*
X58263724Y16747154D01*
X58263722Y16747154D01*
X58254285Y16747507D01*
X58247837Y16745780D01*
X58241080Y16745400D01*
X45348086Y16745400D01*
X45289848Y16759666D01*
X45244799Y16799235D01*
X45223139Y16855146D01*
X45229773Y16914737D01*
X45263200Y16964514D01*
X45299560Y16997662D01*
X45299560Y16997663D01*
X45303872Y17001593D01*
X45432366Y17171745D01*
X45527405Y17362611D01*
X45585756Y17567690D01*
X45605429Y17780000D01*
X45585756Y17992310D01*
X45527405Y18197389D01*
X45523063Y18206108D01*
X45470546Y18311578D01*
X45432366Y18388255D01*
X45303872Y18558407D01*
X45299568Y18562330D01*
X45299566Y18562333D01*
X45150605Y18698130D01*
X45150600Y18698134D01*
X45146302Y18702052D01*
X45079843Y18743202D01*
X44969975Y18811230D01*
X44969969Y18811233D01*
X44965019Y18814298D01*
X44959592Y18816401D01*
X44959585Y18816404D01*
X44771627Y18889218D01*
X44771625Y18889219D01*
X44766198Y18891321D01*
X44760476Y18892391D01*
X44760475Y18892391D01*
X44579907Y18926145D01*
X44518174Y18956885D01*
X44481870Y19015518D01*
X44481870Y19084482D01*
X44518174Y19143115D01*
X44579907Y19173855D01*
X44766198Y19208679D01*
X44965019Y19285702D01*
X45146302Y19397948D01*
X45303872Y19541593D01*
X45432366Y19711745D01*
X45527405Y19902611D01*
X45585756Y20107690D01*
X45605429Y20320000D01*
X45585756Y20532310D01*
X45527405Y20737389D01*
X45523567Y20745096D01*
X45473433Y20845780D01*
X45432366Y20928255D01*
X45428454Y20933435D01*
X45360363Y21023602D01*
X45303872Y21098407D01*
X45299568Y21102330D01*
X45299566Y21102333D01*
X45150605Y21238130D01*
X45150600Y21238134D01*
X45146302Y21242052D01*
X45079843Y21283202D01*
X44969975Y21351230D01*
X44969969Y21351233D01*
X44965019Y21354298D01*
X44959592Y21356401D01*
X44959585Y21356404D01*
X44771627Y21429218D01*
X44771625Y21429219D01*
X44766198Y21431321D01*
X44760476Y21432391D01*
X44760475Y21432391D01*
X44579907Y21466145D01*
X44518174Y21496885D01*
X44481870Y21555518D01*
X44481870Y21624482D01*
X44518174Y21683115D01*
X44579907Y21713855D01*
X44766198Y21748679D01*
X44965019Y21825702D01*
X45146302Y21937948D01*
X45303872Y22081593D01*
X45432366Y22251745D01*
X45527405Y22442611D01*
X45585756Y22647690D01*
X45605429Y22860000D01*
X45585756Y23072310D01*
X45527405Y23277389D01*
X45517436Y23297409D01*
X45443522Y23445850D01*
X45432366Y23468255D01*
X45303872Y23638407D01*
X45299568Y23642330D01*
X45299566Y23642333D01*
X45150605Y23778130D01*
X45150600Y23778134D01*
X45146302Y23782052D01*
X45107284Y23806211D01*
X44969975Y23891230D01*
X44969969Y23891233D01*
X44965019Y23894298D01*
X44959583Y23896404D01*
X44959579Y23896406D01*
X44882895Y23926114D01*
X44831968Y23962522D01*
X44804849Y24018946D01*
X44808232Y24081457D01*
X44841283Y24134624D01*
X44889082Y24161520D01*
X44888587Y24162881D01*
X44904053Y24168511D01*
X45101510Y24260587D01*
X45111006Y24266069D01*
X45289466Y24391029D01*
X45297875Y24398085D01*
X45451915Y24552125D01*
X45458971Y24560534D01*
X45583931Y24738994D01*
X45589413Y24748490D01*
X45681489Y24945947D01*
X45685235Y24956239D01*
X45732330Y25131999D01*
X45732703Y25143409D01*
X45721589Y25146000D01*
X43178411Y25146000D01*
X43167296Y25143409D01*
X43167669Y25131999D01*
X43214764Y24956239D01*
X43218510Y24945947D01*
X43310586Y24748490D01*
X43316068Y24738994D01*
X43441028Y24560534D01*
X43448084Y24552125D01*
X43602124Y24398085D01*
X43610533Y24391029D01*
X43788993Y24266069D01*
X43798489Y24260587D01*
X43995946Y24168511D01*
X44011413Y24162881D01*
X44010917Y24161521D01*
X44058722Y24134619D01*
X44091769Y24081452D01*
X44095150Y24018942D01*
X44068030Y23962520D01*
X44017104Y23926114D01*
X43940420Y23896407D01*
X43940402Y23896399D01*
X43934981Y23894298D01*
X43930034Y23891236D01*
X43930024Y23891230D01*
X43758649Y23785118D01*
X43758645Y23785116D01*
X43753698Y23782052D01*
X43749404Y23778138D01*
X43749394Y23778130D01*
X43600433Y23642333D01*
X43600425Y23642325D01*
X43596128Y23638407D01*
X43592619Y23633761D01*
X43592615Y23633756D01*
X43471145Y23472906D01*
X43471139Y23472897D01*
X43467634Y23468255D01*
X43465040Y23463048D01*
X43465037Y23463041D01*
X43375189Y23282601D01*
X43375184Y23282590D01*
X43372595Y23277389D01*
X43371003Y23271796D01*
X43371001Y23271789D01*
X43316643Y23080742D01*
X43314244Y23072310D01*
X43294571Y22860000D01*
X43295108Y22854205D01*
X43311483Y22677481D01*
X43314244Y22647690D01*
X43315836Y22642092D01*
X43315837Y22642091D01*
X43346070Y22535833D01*
X43372595Y22442611D01*
X43375186Y22437407D01*
X43375189Y22437400D01*
X43461616Y22263831D01*
X43467634Y22251745D01*
X43471142Y22247100D01*
X43471145Y22247095D01*
X43580751Y22101955D01*
X43596128Y22081593D01*
X43600430Y22077671D01*
X43600433Y22077668D01*
X43749394Y21941871D01*
X43749398Y21941868D01*
X43753698Y21937948D01*
X43847999Y21879559D01*
X43904598Y21844514D01*
X43934981Y21825702D01*
X43940411Y21823599D01*
X43940414Y21823597D01*
X43999723Y21800621D01*
X44133802Y21748679D01*
X44281046Y21721155D01*
X44320092Y21713855D01*
X44381825Y21683115D01*
X44418129Y21624481D01*
X44418129Y21555519D01*
X44381825Y21496885D01*
X44320092Y21466145D01*
X44139524Y21432391D01*
X44139520Y21432390D01*
X44133802Y21431321D01*
X44128377Y21429220D01*
X44128372Y21429218D01*
X43940414Y21356404D01*
X43940402Y21356399D01*
X43934981Y21354298D01*
X43930034Y21351236D01*
X43930024Y21351230D01*
X43758649Y21245118D01*
X43758645Y21245116D01*
X43753698Y21242052D01*
X43749404Y21238138D01*
X43749394Y21238130D01*
X43600433Y21102333D01*
X43600425Y21102325D01*
X43596128Y21098407D01*
X43592619Y21093761D01*
X43592615Y21093756D01*
X43471145Y20932906D01*
X43471139Y20932897D01*
X43467634Y20928255D01*
X43465040Y20923048D01*
X43465037Y20923041D01*
X43375189Y20742601D01*
X43375184Y20742590D01*
X43372595Y20737389D01*
X43371003Y20731796D01*
X43371001Y20731789D01*
X43316643Y20540742D01*
X43314244Y20532310D01*
X43294571Y20320000D01*
X43314244Y20107690D01*
X43315836Y20102092D01*
X43315837Y20102091D01*
X43317039Y20097865D01*
X43372595Y19902611D01*
X43375186Y19897407D01*
X43375189Y19897400D01*
X43435263Y19776755D01*
X43467634Y19711745D01*
X43471142Y19707100D01*
X43471145Y19707095D01*
X43528392Y19631289D01*
X43596128Y19541593D01*
X43600430Y19537671D01*
X43600433Y19537668D01*
X43749394Y19401871D01*
X43749398Y19401868D01*
X43753698Y19397948D01*
X43934981Y19285702D01*
X43940411Y19283599D01*
X43940414Y19283597D01*
X43999723Y19260621D01*
X44133802Y19208679D01*
X44281046Y19181155D01*
X44320092Y19173855D01*
X44381825Y19143115D01*
X44418129Y19084481D01*
X44418129Y19015519D01*
X44381825Y18956885D01*
X44320092Y18926145D01*
X44139524Y18892391D01*
X44139520Y18892390D01*
X44133802Y18891321D01*
X44128377Y18889220D01*
X44128372Y18889218D01*
X43940414Y18816404D01*
X43940402Y18816399D01*
X43934981Y18814298D01*
X43930034Y18811236D01*
X43930024Y18811230D01*
X43758649Y18705118D01*
X43758645Y18705116D01*
X43753698Y18702052D01*
X43749404Y18698138D01*
X43749394Y18698130D01*
X43600433Y18562333D01*
X43600425Y18562325D01*
X43596128Y18558407D01*
X43592619Y18553761D01*
X43592615Y18553756D01*
X43471145Y18392906D01*
X43471139Y18392897D01*
X43467634Y18388255D01*
X43465040Y18383048D01*
X43465037Y18383041D01*
X43375189Y18202601D01*
X43375184Y18202590D01*
X43372595Y18197389D01*
X43371003Y18191796D01*
X43371001Y18191789D01*
X43316869Y18001536D01*
X43314244Y17992310D01*
X43294571Y17780000D01*
X43314244Y17567690D01*
X43315836Y17562092D01*
X43315837Y17562091D01*
X43371000Y17368214D01*
X43372595Y17362611D01*
X43375186Y17357407D01*
X43375189Y17357400D01*
X43464491Y17178057D01*
X43467634Y17171745D01*
X43471142Y17167100D01*
X43471145Y17167095D01*
X43483656Y17150528D01*
X43596128Y17001593D01*
X43600433Y16997668D01*
X43600439Y16997662D01*
X43636800Y16964514D01*
X43670227Y16914737D01*
X43676861Y16855146D01*
X43655201Y16799235D01*
X43610152Y16759666D01*
X43551914Y16745400D01*
X31348441Y16745400D01*
X31334333Y16746192D01*
X31310645Y16748861D01*
X31301264Y16749918D01*
X31291988Y16748164D01*
X31291983Y16748163D01*
X31248208Y16739882D01*
X31243572Y16739094D01*
X31199537Y16732456D01*
X31199533Y16732455D01*
X31190207Y16731049D01*
X31182874Y16727519D01*
X31174878Y16726005D01*
X31166538Y16721598D01*
X31166534Y16721596D01*
X31127151Y16700782D01*
X31122950Y16698661D01*
X31082816Y16679333D01*
X31082813Y16679332D01*
X31074316Y16675239D01*
X31068348Y16669702D01*
X31061155Y16665900D01*
X31054490Y16659237D01*
X31054484Y16659231D01*
X31022982Y16627729D01*
X31019594Y16624465D01*
X30986938Y16594164D01*
X30986936Y16594162D01*
X30980024Y16587748D01*
X30976689Y16581974D01*
X30972171Y16576918D01*
X30316756Y15921503D01*
X30254617Y15887515D01*
X30183960Y15892419D01*
X30127112Y15934664D01*
X30063872Y16018407D01*
X30059568Y16022330D01*
X30059566Y16022333D01*
X29910605Y16158130D01*
X29910600Y16158134D01*
X29906302Y16162052D01*
X29838058Y16204307D01*
X29729975Y16271230D01*
X29729969Y16271233D01*
X29725019Y16274298D01*
X29719592Y16276401D01*
X29719585Y16276404D01*
X29531627Y16349218D01*
X29531625Y16349219D01*
X29526198Y16351321D01*
X29520476Y16352391D01*
X29520475Y16352391D01*
X29339907Y16386145D01*
X29278174Y16416885D01*
X29241870Y16475518D01*
X29241870Y16544482D01*
X29278174Y16603115D01*
X29339907Y16633855D01*
X29526198Y16668679D01*
X29725019Y16745702D01*
X29906302Y16857948D01*
X30063872Y17001593D01*
X30192366Y17171745D01*
X30287405Y17362611D01*
X30345756Y17567690D01*
X30365429Y17780000D01*
X30345756Y17992310D01*
X30287405Y18197389D01*
X30283063Y18206108D01*
X30230546Y18311578D01*
X30192366Y18388255D01*
X30063872Y18558407D01*
X30059568Y18562330D01*
X30059566Y18562333D01*
X29910605Y18698130D01*
X29910600Y18698134D01*
X29906302Y18702052D01*
X29839843Y18743202D01*
X29729975Y18811230D01*
X29729969Y18811233D01*
X29725019Y18814298D01*
X29719592Y18816401D01*
X29719585Y18816404D01*
X29531627Y18889218D01*
X29531625Y18889219D01*
X29526198Y18891321D01*
X29520476Y18892391D01*
X29520475Y18892391D01*
X29339907Y18926145D01*
X29278174Y18956885D01*
X29241870Y19015518D01*
X29241870Y19084482D01*
X29278174Y19143115D01*
X29339907Y19173855D01*
X29526198Y19208679D01*
X29725019Y19285702D01*
X29906302Y19397948D01*
X30063872Y19541593D01*
X30192366Y19711745D01*
X30287405Y19902611D01*
X30345756Y20107690D01*
X30365429Y20320000D01*
X30345756Y20532310D01*
X30287405Y20737389D01*
X30283567Y20745096D01*
X30233433Y20845780D01*
X30192366Y20928255D01*
X30188454Y20933435D01*
X30120363Y21023602D01*
X30063872Y21098407D01*
X30059568Y21102330D01*
X30059566Y21102333D01*
X29910605Y21238130D01*
X29910600Y21238134D01*
X29906302Y21242052D01*
X29839843Y21283202D01*
X29729975Y21351230D01*
X29729969Y21351233D01*
X29725019Y21354298D01*
X29719592Y21356401D01*
X29719585Y21356404D01*
X29531627Y21429218D01*
X29531625Y21429219D01*
X29526198Y21431321D01*
X29520476Y21432391D01*
X29520475Y21432391D01*
X29339907Y21466145D01*
X29278174Y21496885D01*
X29241870Y21555518D01*
X29241870Y21624482D01*
X29278174Y21683115D01*
X29339907Y21713855D01*
X29526198Y21748679D01*
X29725019Y21825702D01*
X29906302Y21937948D01*
X30063872Y22081593D01*
X30192366Y22251745D01*
X30287405Y22442611D01*
X30345756Y22647690D01*
X30365429Y22860000D01*
X30345756Y23072310D01*
X30287405Y23277389D01*
X30277436Y23297409D01*
X30203522Y23445850D01*
X30192366Y23468255D01*
X30063872Y23638407D01*
X30059568Y23642330D01*
X30059566Y23642333D01*
X29910605Y23778130D01*
X29910600Y23778134D01*
X29906302Y23782052D01*
X29867284Y23806211D01*
X29729975Y23891230D01*
X29729969Y23891233D01*
X29725019Y23894298D01*
X29719592Y23896401D01*
X29719585Y23896404D01*
X29531627Y23969218D01*
X29531625Y23969219D01*
X29526198Y23971321D01*
X29520476Y23972391D01*
X29520475Y23972391D01*
X29339907Y24006145D01*
X29278174Y24036885D01*
X29241870Y24095518D01*
X29241870Y24164482D01*
X29278174Y24223115D01*
X29339907Y24253855D01*
X29526198Y24288679D01*
X29725019Y24365702D01*
X29906302Y24477948D01*
X30063872Y24621593D01*
X30192366Y24791745D01*
X30287405Y24982611D01*
X30345756Y25187690D01*
X30365429Y25400000D01*
X30345756Y25612310D01*
X30287405Y25817389D01*
X30281162Y25829926D01*
X30200783Y25991351D01*
X30192366Y26008255D01*
X30169499Y26038535D01*
X30086492Y26148453D01*
X30063872Y26178407D01*
X30059568Y26182330D01*
X30059566Y26182333D01*
X29910605Y26318130D01*
X29910600Y26318134D01*
X29906302Y26322052D01*
X29847918Y26358202D01*
X29729975Y26431230D01*
X29729969Y26431233D01*
X29725019Y26434298D01*
X29719592Y26436401D01*
X29719585Y26436404D01*
X29531627Y26509218D01*
X29531625Y26509219D01*
X29526198Y26511321D01*
X29520476Y26512391D01*
X29520475Y26512391D01*
X29339907Y26546145D01*
X29278174Y26576885D01*
X29241870Y26635518D01*
X29241870Y26704482D01*
X29278174Y26763115D01*
X29339907Y26793855D01*
X29371137Y26799693D01*
X29526198Y26828679D01*
X29725019Y26905702D01*
X29906302Y27017948D01*
X30063872Y27161593D01*
X30192366Y27331745D01*
X30287405Y27522611D01*
X30345756Y27727690D01*
X30365429Y27940000D01*
X30345756Y28152310D01*
X30287405Y28357389D01*
X30281162Y28369926D01*
X30194962Y28543041D01*
X30192366Y28548255D01*
X30116537Y28648668D01*
X30091625Y28712974D01*
X30104296Y28780763D01*
X30150756Y28831727D01*
X30217087Y28850600D01*
X43216258Y28850600D01*
X43230366Y28849808D01*
X43263435Y28846082D01*
X43316508Y28856125D01*
X43321087Y28856902D01*
X43374493Y28864951D01*
X43381825Y28868482D01*
X43389822Y28869995D01*
X43422920Y28887489D01*
X43488665Y28901904D01*
X43552453Y28880416D01*
X43596077Y28829158D01*
X43607089Y28762756D01*
X43582347Y28700159D01*
X43471145Y28552906D01*
X43471139Y28552897D01*
X43467634Y28548255D01*
X43465040Y28543048D01*
X43465037Y28543041D01*
X43375189Y28362601D01*
X43375184Y28362590D01*
X43372595Y28357389D01*
X43371003Y28351796D01*
X43371001Y28351789D01*
X43316869Y28161536D01*
X43314244Y28152310D01*
X43294571Y27940000D01*
X43314244Y27727690D01*
X43315836Y27722092D01*
X43315837Y27722091D01*
X43371000Y27528214D01*
X43372595Y27522611D01*
X43375186Y27517407D01*
X43375189Y27517400D01*
X43462059Y27342941D01*
X43467634Y27331745D01*
X43471142Y27327100D01*
X43471145Y27327095D01*
X43507470Y27278994D01*
X43596128Y27161593D01*
X43600430Y27157671D01*
X43600433Y27157668D01*
X43749394Y27021871D01*
X43749398Y27021868D01*
X43753698Y27017948D01*
X43875193Y26942722D01*
X43894076Y26931029D01*
X43934981Y26905702D01*
X43940411Y26903599D01*
X43940414Y26903597D01*
X44017103Y26873888D01*
X44068025Y26837487D01*
X44095147Y26781074D01*
X44091775Y26718570D01*
X44058743Y26665402D01*
X44010920Y26638474D01*
X44011413Y26637119D01*
X43995946Y26631490D01*
X43798489Y26539414D01*
X43788993Y26533932D01*
X43610533Y26408972D01*
X43602124Y26401916D01*
X43448084Y26247876D01*
X43441028Y26239467D01*
X43316068Y26061007D01*
X43310586Y26051511D01*
X43218510Y25854054D01*
X43214764Y25843762D01*
X43167669Y25668002D01*
X43167296Y25656592D01*
X43178411Y25654000D01*
X45721589Y25654000D01*
X45732703Y25656592D01*
X45732330Y25668002D01*
X45685235Y25843762D01*
X45681489Y25854054D01*
X45589413Y26051511D01*
X45583931Y26061007D01*
X45458971Y26239467D01*
X45451915Y26247876D01*
X45297875Y26401916D01*
X45289466Y26408972D01*
X45111006Y26533932D01*
X45101510Y26539414D01*
X44904053Y26631490D01*
X44888587Y26637119D01*
X44889080Y26638476D01*
X44841262Y26665397D01*
X44808225Y26718565D01*
X44804852Y26781070D01*
X44831973Y26837486D01*
X44882894Y26873888D01*
X44965019Y26905702D01*
X45146302Y27017948D01*
X45303872Y27161593D01*
X45432366Y27331745D01*
X45527405Y27522611D01*
X45585756Y27727690D01*
X45605429Y27940000D01*
X45585756Y28152310D01*
X45527405Y28357389D01*
X45521162Y28369926D01*
X45434962Y28543041D01*
X45432366Y28548255D01*
X45303872Y28718407D01*
X45299568Y28722330D01*
X45299566Y28722333D01*
X45150609Y28858126D01*
X45150606Y28858128D01*
X45146302Y28862052D01*
X45146388Y28862147D01*
X45105553Y28917094D01*
X45100648Y28987753D01*
X45134634Y29049891D01*
X45763077Y29678334D01*
X45773602Y29687739D01*
X45799627Y29708492D01*
X45830054Y29753123D01*
X45832717Y29756877D01*
X45864814Y29800364D01*
X45867502Y29808048D01*
X45872086Y29814770D01*
X45888000Y29866367D01*
X45889446Y29870760D01*
X45907298Y29921775D01*
X45907602Y29929913D01*
X45910000Y29937685D01*
X45910000Y29991638D01*
X45910088Y29996349D01*
X45910098Y29996629D01*
X45912107Y30050315D01*
X45910379Y30056763D01*
X45910000Y30063521D01*
X45910000Y35994351D01*
X45910792Y36008460D01*
X45914519Y36041535D01*
X45904473Y36094622D01*
X45903692Y36099224D01*
X45895649Y36152593D01*
X45892117Y36159926D01*
X45890605Y36167921D01*
X45865367Y36215674D01*
X45863288Y36219792D01*
X45839839Y36268484D01*
X45834301Y36274452D01*
X45830500Y36281645D01*
X45792344Y36319801D01*
X45789075Y36323194D01*
X45774959Y36338407D01*
X45752348Y36362776D01*
X45746568Y36366114D01*
X45741519Y36370626D01*
X45194474Y36917671D01*
X45185058Y36928207D01*
X45175349Y36940382D01*
X45164308Y36954227D01*
X45156506Y36959547D01*
X45156501Y36959551D01*
X45143710Y36968272D01*
X45104011Y37012160D01*
X45088728Y37069331D01*
X45101231Y37127174D01*
X45138763Y37172929D01*
X45141343Y37174878D01*
X45146302Y37177948D01*
X45303872Y37321593D01*
X45432366Y37491745D01*
X45527405Y37682611D01*
X45585756Y37887690D01*
X45605429Y38100000D01*
X45585756Y38312310D01*
X45527405Y38517389D01*
X45521162Y38529926D01*
X45434962Y38703041D01*
X45432366Y38708255D01*
X45303872Y38878407D01*
X45299568Y38882330D01*
X45299566Y38882333D01*
X45150605Y39018130D01*
X45150600Y39018134D01*
X45146302Y39022052D01*
X45079843Y39063202D01*
X44969975Y39131230D01*
X44969969Y39131233D01*
X44965019Y39134298D01*
X44959592Y39136401D01*
X44959585Y39136404D01*
X44771627Y39209218D01*
X44771625Y39209219D01*
X44766198Y39211321D01*
X44760476Y39212391D01*
X44760475Y39212391D01*
X44579907Y39246145D01*
X44518174Y39276885D01*
X44481870Y39335518D01*
X44481870Y39404482D01*
X44518174Y39463115D01*
X44579907Y39493855D01*
X44766198Y39528679D01*
X44965019Y39605702D01*
X45146302Y39717948D01*
X45303872Y39861593D01*
X45432366Y40031745D01*
X45527405Y40222611D01*
X45585756Y40427690D01*
X45605429Y40640000D01*
X45585756Y40852310D01*
X45527405Y41057389D01*
X45521162Y41069926D01*
X45434962Y41243041D01*
X45432366Y41248255D01*
X45370637Y41329996D01*
X45324943Y41390505D01*
X45303872Y41418407D01*
X45299568Y41422330D01*
X45299566Y41422333D01*
X45150605Y41558130D01*
X45150600Y41558134D01*
X45146302Y41562052D01*
X45093427Y41594791D01*
X44969975Y41671230D01*
X44969969Y41671233D01*
X44965019Y41674298D01*
X44959592Y41676401D01*
X44959585Y41676404D01*
X44771627Y41749218D01*
X44771625Y41749219D01*
X44766198Y41751321D01*
X44760476Y41752391D01*
X44760475Y41752391D01*
X44579907Y41786145D01*
X44518174Y41816885D01*
X44481870Y41875518D01*
X44481870Y41944482D01*
X44518174Y42003115D01*
X44579907Y42033855D01*
X44598459Y42037323D01*
X44766198Y42068679D01*
X44965019Y42145702D01*
X45146302Y42257948D01*
X45303872Y42401593D01*
X45432366Y42571745D01*
X45527405Y42762611D01*
X45585756Y42967690D01*
X45605429Y43180000D01*
X45585756Y43392310D01*
X45527405Y43597389D01*
X45521162Y43609926D01*
X45434962Y43783041D01*
X45432366Y43788255D01*
X45303872Y43958407D01*
X45299568Y43962330D01*
X45299566Y43962333D01*
X45150605Y44098130D01*
X45150600Y44098134D01*
X45146302Y44102052D01*
X45079843Y44143202D01*
X44969975Y44211230D01*
X44969969Y44211233D01*
X44965019Y44214298D01*
X44959592Y44216401D01*
X44959585Y44216404D01*
X44771627Y44289218D01*
X44771625Y44289219D01*
X44766198Y44291321D01*
X44760478Y44292391D01*
X44760465Y44292394D01*
X44579907Y44326147D01*
X44518174Y44356886D01*
X44481870Y44415520D01*
X44481870Y44484483D01*
X44518175Y44543117D01*
X44579905Y44573855D01*
X44766198Y44608679D01*
X44965019Y44685702D01*
X45146302Y44797948D01*
X45303872Y44941593D01*
X45432366Y45111745D01*
X45527405Y45302611D01*
X45585756Y45507690D01*
X45605429Y45720000D01*
X45585756Y45932310D01*
X45527405Y46137389D01*
X45521162Y46149926D01*
X45434962Y46323041D01*
X45432366Y46328255D01*
X45303872Y46498407D01*
X45299568Y46502330D01*
X45299566Y46502333D01*
X45150605Y46638130D01*
X45150600Y46638134D01*
X45146302Y46642052D01*
X45079843Y46683202D01*
X44969975Y46751230D01*
X44969969Y46751233D01*
X44965019Y46754298D01*
X44959592Y46756401D01*
X44959585Y46756404D01*
X44771627Y46829218D01*
X44771625Y46829219D01*
X44766198Y46831321D01*
X44760476Y46832391D01*
X44760475Y46832391D01*
X44579907Y46866145D01*
X44518174Y46896885D01*
X44481870Y46955518D01*
X44481870Y47024482D01*
X44518174Y47083115D01*
X44579907Y47113855D01*
X44595447Y47116760D01*
X44766198Y47148679D01*
X44965019Y47225702D01*
X45146302Y47337948D01*
X45303872Y47481593D01*
X45432366Y47651745D01*
X45527405Y47842611D01*
X45585756Y48047690D01*
X45605429Y48260000D01*
X45585756Y48472310D01*
X45527405Y48677389D01*
X45521162Y48689926D01*
X45434962Y48863041D01*
X45432366Y48868255D01*
X45303872Y49038407D01*
X45299568Y49042330D01*
X45299566Y49042333D01*
X45150605Y49178130D01*
X45150600Y49178134D01*
X45146302Y49182052D01*
X45083719Y49220802D01*
X44969975Y49291230D01*
X44969969Y49291233D01*
X44965019Y49294298D01*
X44959592Y49296401D01*
X44959585Y49296404D01*
X44771627Y49369218D01*
X44771625Y49369219D01*
X44766198Y49371321D01*
X44760476Y49372391D01*
X44760475Y49372391D01*
X44579907Y49406145D01*
X44518174Y49436885D01*
X44481870Y49495518D01*
X44481870Y49564482D01*
X44518174Y49623115D01*
X44579907Y49653855D01*
X44592532Y49656215D01*
X44766198Y49688679D01*
X44965019Y49765702D01*
X45146302Y49877948D01*
X45303872Y50021593D01*
X45432366Y50191745D01*
X45527405Y50382611D01*
X45585756Y50587690D01*
X45605429Y50800000D01*
X45585756Y51012310D01*
X45527405Y51217389D01*
X45501239Y51269937D01*
X45434962Y51403041D01*
X45432366Y51408255D01*
X45406498Y51442509D01*
X45307384Y51573756D01*
X45303872Y51578407D01*
X45299568Y51582330D01*
X45299566Y51582333D01*
X45150605Y51718130D01*
X45150600Y51718134D01*
X45146302Y51722052D01*
X45090840Y51756393D01*
X44969975Y51831230D01*
X44969969Y51831233D01*
X44965019Y51834298D01*
X44959592Y51836401D01*
X44959585Y51836404D01*
X44771627Y51909218D01*
X44771625Y51909219D01*
X44766198Y51911321D01*
X44760476Y51912391D01*
X44760475Y51912391D01*
X44562335Y51949430D01*
X44562332Y51949431D01*
X44556610Y51950500D01*
X44343390Y51950500D01*
X44337668Y51949431D01*
X44337664Y51949430D01*
X44139524Y51912391D01*
X44139520Y51912390D01*
X44133802Y51911321D01*
X44128377Y51909220D01*
X44128372Y51909218D01*
X43940414Y51836404D01*
X43940402Y51836399D01*
X43934981Y51834298D01*
X43930034Y51831236D01*
X43930024Y51831230D01*
X43758649Y51725118D01*
X43758645Y51725116D01*
X43753698Y51722052D01*
X43749404Y51718138D01*
X43749394Y51718130D01*
X43600433Y51582333D01*
X43600425Y51582325D01*
X43596128Y51578407D01*
X43592619Y51573761D01*
X43592615Y51573756D01*
X43471145Y51412906D01*
X43471139Y51412897D01*
X43467634Y51408255D01*
X43465040Y51403048D01*
X43465037Y51403041D01*
X43375189Y51222601D01*
X43375184Y51222590D01*
X43372595Y51217389D01*
X43371003Y51211796D01*
X43371001Y51211789D01*
X43326106Y51054000D01*
X43314244Y51012310D01*
X43294571Y50800000D01*
X43314244Y50587690D01*
X43315836Y50582092D01*
X43315837Y50582091D01*
X43327103Y50542494D01*
X43372595Y50382611D01*
X43375186Y50377407D01*
X43375189Y50377400D01*
X43462059Y50202941D01*
X43467634Y50191745D01*
X43471142Y50187100D01*
X43471145Y50187095D01*
X43558440Y50071500D01*
X43596128Y50021593D01*
X43600430Y50017671D01*
X43600433Y50017668D01*
X43749394Y49881871D01*
X43749398Y49881868D01*
X43753698Y49877948D01*
X43815285Y49839815D01*
X43894076Y49791029D01*
X43934981Y49765702D01*
X43940411Y49763599D01*
X43940414Y49763597D01*
X44011313Y49736131D01*
X44133802Y49688679D01*
X44267288Y49663726D01*
X44320092Y49653855D01*
X44381825Y49623115D01*
X44418129Y49564481D01*
X44418129Y49495519D01*
X44381825Y49436885D01*
X44320092Y49406145D01*
X44139524Y49372391D01*
X44139520Y49372390D01*
X44133802Y49371321D01*
X44128377Y49369220D01*
X44128372Y49369218D01*
X43940414Y49296404D01*
X43940402Y49296399D01*
X43934981Y49294298D01*
X43930034Y49291236D01*
X43930024Y49291230D01*
X43758649Y49185118D01*
X43758645Y49185116D01*
X43753698Y49182052D01*
X43749404Y49178138D01*
X43749394Y49178130D01*
X43600433Y49042333D01*
X43600425Y49042325D01*
X43596128Y49038407D01*
X43592619Y49033761D01*
X43592615Y49033756D01*
X43471145Y48872906D01*
X43471139Y48872897D01*
X43467634Y48868255D01*
X43465040Y48863048D01*
X43465037Y48863041D01*
X43412005Y48756537D01*
X43365544Y48705573D01*
X43299214Y48686700D01*
X35026935Y48686700D01*
X34978717Y48696291D01*
X34937840Y48723605D01*
X31197874Y52463571D01*
X31188458Y52474107D01*
X31173597Y52492742D01*
X31173598Y52492742D01*
X31167708Y52500127D01*
X31123105Y52530537D01*
X31119262Y52533264D01*
X31083431Y52559709D01*
X31083429Y52559710D01*
X31075836Y52565314D01*
X31068152Y52568003D01*
X31061430Y52572586D01*
X31052413Y52575368D01*
X31052410Y52575369D01*
X31009853Y52588496D01*
X31005380Y52589968D01*
X30963331Y52604681D01*
X30963329Y52604682D01*
X30954425Y52607797D01*
X30946291Y52608102D01*
X30938515Y52610500D01*
X30929078Y52610500D01*
X30884551Y52610500D01*
X30879839Y52610588D01*
X30835324Y52612254D01*
X30835322Y52612254D01*
X30825885Y52612607D01*
X30819437Y52610880D01*
X30812680Y52610500D01*
X6666149Y52610500D01*
X6652040Y52611292D01*
X6628348Y52613962D01*
X6628346Y52613962D01*
X6618965Y52615019D01*
X6609689Y52613265D01*
X6609688Y52613264D01*
X6595546Y52610588D01*
X6565921Y52604983D01*
X6561298Y52604198D01*
X6517247Y52597558D01*
X6517239Y52597556D01*
X6507907Y52596149D01*
X6500574Y52592618D01*
X6492579Y52591105D01*
X6484237Y52586697D01*
X6484236Y52586696D01*
X6444868Y52565890D01*
X6440667Y52563769D01*
X6400516Y52544433D01*
X6400513Y52544432D01*
X6392016Y52540339D01*
X6386048Y52534802D01*
X6378855Y52531000D01*
X6372190Y52524337D01*
X6372184Y52524331D01*
X6340682Y52492829D01*
X6337294Y52489565D01*
X6304638Y52459264D01*
X6304636Y52459262D01*
X6297724Y52452848D01*
X6294389Y52447074D01*
X6289871Y52442018D01*
X5982531Y52134678D01*
X5971999Y52125265D01*
X5953358Y52110399D01*
X5953352Y52110394D01*
X5945973Y52104508D01*
X5915981Y52060520D01*
X5870752Y52020101D01*
X5811877Y52005500D01*
X4201740Y52005500D01*
X4197233Y52004844D01*
X4197228Y52004843D01*
X4143288Y51996984D01*
X4143285Y51996984D01*
X4133607Y51995573D01*
X4124817Y51991277D01*
X4124814Y51991275D01*
X4037901Y51948786D01*
X4037898Y51948785D01*
X4028517Y51944198D01*
X4021133Y51936815D01*
X4021130Y51936812D01*
X3953188Y51868870D01*
X3953185Y51868867D01*
X3945802Y51861483D01*
X3941215Y51852102D01*
X3941214Y51852099D01*
X3898725Y51765186D01*
X3898723Y51765183D01*
X3894427Y51756393D01*
X3893016Y51746715D01*
X3893016Y51746712D01*
X3888852Y51718130D01*
X3884500Y51688260D01*
X3884500Y49921740D01*
X3885156Y49917233D01*
X3885157Y49917229D01*
X3890880Y49877948D01*
X3894427Y49853607D01*
X3945802Y49748517D01*
X4028517Y49665802D01*
X4133607Y49614427D01*
X4201740Y49604500D01*
X4545350Y49604500D01*
X4611681Y49585627D01*
X4658141Y49534663D01*
X4670812Y49466874D01*
X4645900Y49402568D01*
X4590868Y49361010D01*
X4570104Y49352966D01*
X4553031Y49346352D01*
X4553025Y49346350D01*
X4547599Y49344247D01*
X4542643Y49341179D01*
X4542638Y49341176D01*
X4363391Y49230191D01*
X4358438Y49227124D01*
X4354139Y49223206D01*
X4354135Y49223202D01*
X4198324Y49081162D01*
X4198316Y49081154D01*
X4194019Y49077236D01*
X4190514Y49072596D01*
X4190506Y49072586D01*
X4063452Y48904338D01*
X4063448Y48904333D01*
X4059942Y48899689D01*
X4057347Y48894479D01*
X4057344Y48894473D01*
X3963368Y48705745D01*
X3963365Y48705739D01*
X3960771Y48700528D01*
X3959177Y48694927D01*
X3959177Y48694926D01*
X3908437Y48516592D01*
X3899885Y48486536D01*
X3899348Y48480744D01*
X3899348Y48480742D01*
X3893874Y48421671D01*
X3879357Y48265000D01*
X3879894Y48259205D01*
X3895966Y48085752D01*
X3899885Y48043464D01*
X3960771Y47829472D01*
X3963367Y47824259D01*
X3963368Y47824256D01*
X4057344Y47635528D01*
X4059942Y47630311D01*
X4063452Y47625663D01*
X4190506Y47457415D01*
X4190510Y47457411D01*
X4194019Y47452764D01*
X4198321Y47448842D01*
X4198324Y47448839D01*
X4229380Y47420528D01*
X4358438Y47302876D01*
X4547599Y47185753D01*
X4680734Y47134176D01*
X4736709Y47112491D01*
X4785860Y47078150D01*
X4813573Y47024980D01*
X4813573Y46965020D01*
X4785860Y46911850D01*
X4736709Y46877509D01*
X4553037Y46806354D01*
X4553034Y46806353D01*
X4547599Y46804247D01*
X4542643Y46801179D01*
X4542638Y46801176D01*
X4367537Y46692758D01*
X4358438Y46687124D01*
X4354139Y46683206D01*
X4354135Y46683202D01*
X4198324Y46541162D01*
X4198316Y46541154D01*
X4194019Y46537236D01*
X4190514Y46532596D01*
X4190506Y46532586D01*
X4063452Y46364338D01*
X4063448Y46364333D01*
X4059942Y46359689D01*
X4057347Y46354479D01*
X4057344Y46354473D01*
X3963368Y46165745D01*
X3963365Y46165739D01*
X3960771Y46160528D01*
X3899885Y45946536D01*
X3899348Y45940744D01*
X3899348Y45940742D01*
X3893874Y45881671D01*
X3879357Y45725000D01*
X3899885Y45503464D01*
X3960771Y45289472D01*
X3963367Y45284259D01*
X3963368Y45284256D01*
X4057344Y45095528D01*
X4059942Y45090311D01*
X4063452Y45085663D01*
X4190506Y44917415D01*
X4190510Y44917411D01*
X4194019Y44912764D01*
X4198321Y44908842D01*
X4198324Y44908839D01*
X4294428Y44821229D01*
X4358438Y44762876D01*
X4547599Y44645753D01*
X4680734Y44594176D01*
X4736709Y44572491D01*
X4785860Y44538150D01*
X4813573Y44484980D01*
X4813573Y44425020D01*
X4785860Y44371850D01*
X4736709Y44337509D01*
X4553037Y44266354D01*
X4553034Y44266353D01*
X4547599Y44264247D01*
X4542643Y44261179D01*
X4542638Y44261176D01*
X4363567Y44150300D01*
X4358438Y44147124D01*
X4354139Y44143206D01*
X4354135Y44143202D01*
X4198324Y44001162D01*
X4198316Y44001154D01*
X4194019Y43997236D01*
X4190514Y43992596D01*
X4190506Y43992586D01*
X4063452Y43824338D01*
X4063448Y43824333D01*
X4059942Y43819689D01*
X4057347Y43814479D01*
X4057344Y43814473D01*
X3963368Y43625745D01*
X3963365Y43625739D01*
X3960771Y43620528D01*
X3959177Y43614927D01*
X3959177Y43614926D01*
X3917638Y43468930D01*
X3899885Y43406536D01*
X3899348Y43400744D01*
X3899348Y43400742D01*
X3893874Y43341671D01*
X3879357Y43185000D01*
X3899885Y42963464D01*
X3960771Y42749472D01*
X3963367Y42744259D01*
X3963368Y42744256D01*
X4051669Y42566925D01*
X4059942Y42550311D01*
X4063452Y42545663D01*
X4190506Y42377415D01*
X4190508Y42377413D01*
X4194019Y42372764D01*
X4198321Y42368842D01*
X4198324Y42368839D01*
X4203809Y42363839D01*
X4358438Y42222876D01*
X4483079Y42145702D01*
X4536033Y42112914D01*
X4547599Y42105753D01*
X4659867Y42062261D01*
X4699847Y42037323D01*
X4717492Y42013471D01*
X4719043Y42014528D01*
X4724362Y42006726D01*
X4728461Y41998216D01*
X4733998Y41992249D01*
X4737800Y41985055D01*
X4744478Y41978377D01*
X4748601Y41972791D01*
X4771265Y41920099D01*
X4768223Y41862821D01*
X4740106Y41812826D01*
X4692741Y41780476D01*
X4553037Y41726354D01*
X4553034Y41726353D01*
X4547599Y41724247D01*
X4542643Y41721179D01*
X4542638Y41721176D01*
X4363391Y41610191D01*
X4358438Y41607124D01*
X4354139Y41603206D01*
X4354135Y41603202D01*
X4198324Y41461162D01*
X4198316Y41461154D01*
X4194019Y41457236D01*
X4190514Y41452596D01*
X4190506Y41452586D01*
X4063452Y41284338D01*
X4063448Y41284333D01*
X4059942Y41279689D01*
X4057347Y41274479D01*
X4057344Y41274473D01*
X3963368Y41085745D01*
X3963365Y41085739D01*
X3960771Y41080528D01*
X3959177Y41074927D01*
X3959177Y41074926D01*
X3946455Y41030211D01*
X3899885Y40866536D01*
X3899348Y40860744D01*
X3899348Y40860742D01*
X3893874Y40801671D01*
X3879357Y40645000D01*
X3899885Y40423464D01*
X3960771Y40209472D01*
X3963367Y40204259D01*
X3963368Y40204256D01*
X4057344Y40015528D01*
X4059942Y40010311D01*
X4063452Y40005663D01*
X4190506Y39837415D01*
X4190510Y39837411D01*
X4194019Y39832764D01*
X4198321Y39828842D01*
X4198324Y39828839D01*
X4239962Y39790881D01*
X4358438Y39682876D01*
X4547599Y39565753D01*
X4736712Y39492490D01*
X4785860Y39458152D01*
X4813573Y39404981D01*
X4813574Y39345022D01*
X4785860Y39291851D01*
X4736709Y39257510D01*
X4553037Y39186355D01*
X4553025Y39186350D01*
X4547599Y39184247D01*
X4542643Y39181179D01*
X4542638Y39181176D01*
X4363391Y39070191D01*
X4358438Y39067124D01*
X4354139Y39063206D01*
X4354135Y39063202D01*
X4198324Y38921162D01*
X4198316Y38921154D01*
X4194019Y38917236D01*
X4190514Y38912596D01*
X4190506Y38912586D01*
X4063452Y38744338D01*
X4063448Y38744333D01*
X4059942Y38739689D01*
X4057347Y38734479D01*
X4057344Y38734473D01*
X3963368Y38545745D01*
X3963365Y38545739D01*
X3960771Y38540528D01*
X3959177Y38534927D01*
X3959177Y38534926D01*
X3910483Y38363783D01*
X3899885Y38326536D01*
X3899348Y38320744D01*
X3899348Y38320742D01*
X3893874Y38261671D01*
X3879357Y38105000D01*
X3899885Y37883464D01*
X3960771Y37669472D01*
X3963367Y37664259D01*
X3963368Y37664256D01*
X4054810Y37480617D01*
X4059942Y37470311D01*
X4063452Y37465663D01*
X4190506Y37297415D01*
X4190510Y37297411D01*
X4194019Y37292764D01*
X4198321Y37288842D01*
X4198324Y37288839D01*
X4203809Y37283839D01*
X4358438Y37142876D01*
X4547599Y37025753D01*
X4736712Y36952490D01*
X4785860Y36918152D01*
X4813573Y36864981D01*
X4813574Y36805022D01*
X4785860Y36751851D01*
X4736709Y36717510D01*
X4553037Y36646355D01*
X4553025Y36646350D01*
X4547599Y36644247D01*
X4542643Y36641179D01*
X4542638Y36641176D01*
X4363391Y36530191D01*
X4358438Y36527124D01*
X4354139Y36523206D01*
X4354135Y36523202D01*
X4198324Y36381162D01*
X4198316Y36381154D01*
X4194019Y36377236D01*
X4190514Y36372596D01*
X4190506Y36372586D01*
X4063452Y36204338D01*
X4063448Y36204333D01*
X4059942Y36199689D01*
X4057347Y36194479D01*
X4057344Y36194473D01*
X3963368Y36005745D01*
X3963365Y36005739D01*
X3960771Y36000528D01*
X3899885Y35786536D01*
X3899348Y35780744D01*
X3899348Y35780742D01*
X3893874Y35721671D01*
X3879357Y35565000D01*
X3899885Y35343464D01*
X3960771Y35129472D01*
X3963367Y35124259D01*
X3963368Y35124256D01*
X4057344Y34935528D01*
X4059942Y34930311D01*
X4063452Y34925663D01*
X4190506Y34757415D01*
X4190510Y34757411D01*
X4194019Y34752764D01*
X4198321Y34748842D01*
X4198324Y34748839D01*
X4203809Y34743839D01*
X4358438Y34602876D01*
X4547599Y34485753D01*
X4736712Y34412490D01*
X4785860Y34378152D01*
X4813573Y34324981D01*
X4813574Y34265022D01*
X4785860Y34211851D01*
X4736709Y34177510D01*
X4553037Y34106355D01*
X4553025Y34106350D01*
X4547599Y34104247D01*
X4542643Y34101179D01*
X4542638Y34101176D01*
X4363391Y33990191D01*
X4358438Y33987124D01*
X4354139Y33983206D01*
X4354135Y33983202D01*
X4198324Y33841162D01*
X4198316Y33841154D01*
X4194019Y33837236D01*
X4190514Y33832596D01*
X4190506Y33832586D01*
X4063452Y33664338D01*
X4063448Y33664333D01*
X4059942Y33659689D01*
X4057347Y33654479D01*
X4057344Y33654473D01*
X3963368Y33465745D01*
X3963365Y33465739D01*
X3960771Y33460528D01*
X3959177Y33454927D01*
X3959177Y33454926D01*
X3946455Y33410211D01*
X3899885Y33246536D01*
X3899348Y33240744D01*
X3899348Y33240742D01*
X3893874Y33181671D01*
X3879357Y33025000D01*
X3899885Y32803464D01*
X3960771Y32589472D01*
X3963367Y32584259D01*
X3963368Y32584256D01*
X4057344Y32395528D01*
X4059942Y32390311D01*
X4063452Y32385663D01*
X4190506Y32217415D01*
X4190510Y32217411D01*
X4194019Y32212764D01*
X4198321Y32208842D01*
X4198324Y32208839D01*
X4203809Y32203839D01*
X4358438Y32062876D01*
X4547599Y31945753D01*
X4690961Y31890214D01*
X4736709Y31872491D01*
X4785860Y31838150D01*
X4813573Y31784980D01*
X4813573Y31725020D01*
X4785860Y31671850D01*
X4736709Y31637509D01*
X4553037Y31566354D01*
X4553034Y31566353D01*
X4547599Y31564247D01*
X4542643Y31561179D01*
X4542638Y31561176D01*
X4375346Y31457593D01*
X4358438Y31447124D01*
X4354139Y31443206D01*
X4354135Y31443202D01*
X4198324Y31301162D01*
X4198316Y31301154D01*
X4194019Y31297236D01*
X4190514Y31292596D01*
X4190506Y31292586D01*
X4063452Y31124338D01*
X4063448Y31124333D01*
X4059942Y31119689D01*
X4057347Y31114479D01*
X4057344Y31114473D01*
X3963368Y30925745D01*
X3963365Y30925739D01*
X3960771Y30920528D01*
X3899885Y30706536D01*
X3899348Y30700744D01*
X3899348Y30700742D01*
X3893874Y30641671D01*
X3879357Y30485000D01*
X3899885Y30263464D01*
X3960771Y30049472D01*
X3963367Y30044259D01*
X3963368Y30044256D01*
X4051973Y29866315D01*
X4059942Y29850311D01*
X4063452Y29845663D01*
X4190506Y29677415D01*
X4190510Y29677411D01*
X4194019Y29672764D01*
X4198321Y29668842D01*
X4198324Y29668839D01*
X4210351Y29657875D01*
X4358438Y29522876D01*
X4547599Y29405753D01*
X4650603Y29365849D01*
X4736709Y29332491D01*
X4785860Y29298150D01*
X4813573Y29244980D01*
X4813573Y29185020D01*
X4785860Y29131850D01*
X4736709Y29097509D01*
X4553037Y29026354D01*
X4553034Y29026353D01*
X4547599Y29024247D01*
X4542643Y29021179D01*
X4542638Y29021176D01*
X4374540Y28917094D01*
X4358438Y28907124D01*
X4354139Y28903206D01*
X4354135Y28903202D01*
X4198324Y28761162D01*
X4198316Y28761154D01*
X4194019Y28757236D01*
X4190514Y28752596D01*
X4190506Y28752586D01*
X4063452Y28584338D01*
X4063448Y28584333D01*
X4059942Y28579689D01*
X4057347Y28574479D01*
X4057344Y28574473D01*
X3963368Y28385745D01*
X3963365Y28385739D01*
X3960771Y28380528D01*
X3959177Y28374927D01*
X3959177Y28374926D01*
X3908437Y28196592D01*
X3899885Y28166536D01*
X3899348Y28160744D01*
X3899348Y28160742D01*
X3893874Y28101671D01*
X3879357Y27945000D01*
X3899885Y27723464D01*
X3960771Y27509472D01*
X3963367Y27504259D01*
X3963368Y27504256D01*
X4057344Y27315528D01*
X4059942Y27310311D01*
X4063452Y27305663D01*
X4190506Y27137415D01*
X4190508Y27137413D01*
X4194019Y27132764D01*
X4198321Y27128842D01*
X4198324Y27128839D01*
X4253731Y27078329D01*
X4358438Y26982876D01*
X4547599Y26865753D01*
X4680734Y26814176D01*
X4736709Y26792491D01*
X4785860Y26758150D01*
X4813573Y26704980D01*
X4813573Y26645020D01*
X4785860Y26591850D01*
X4736709Y26557509D01*
X4553037Y26486354D01*
X4553034Y26486353D01*
X4547599Y26484247D01*
X4542643Y26481179D01*
X4542638Y26481176D01*
X4363391Y26370191D01*
X4358438Y26367124D01*
X4354139Y26363206D01*
X4354135Y26363202D01*
X4198324Y26221162D01*
X4198316Y26221154D01*
X4194019Y26217236D01*
X4190514Y26212596D01*
X4190506Y26212586D01*
X4063452Y26044338D01*
X4063448Y26044333D01*
X4059942Y26039689D01*
X4057347Y26034479D01*
X4057344Y26034473D01*
X3963368Y25845745D01*
X3963365Y25845739D01*
X3960771Y25840528D01*
X3959177Y25834927D01*
X3959177Y25834926D01*
X3908437Y25656592D01*
X3899885Y25626536D01*
X3899348Y25620744D01*
X3899348Y25620742D01*
X3893874Y25561671D01*
X3879357Y25405000D01*
X3899885Y25183464D01*
X3960771Y24969472D01*
X3963367Y24964259D01*
X3963368Y24964256D01*
X4057344Y24775528D01*
X4059942Y24770311D01*
X4063452Y24765663D01*
X4190506Y24597415D01*
X4190510Y24597411D01*
X4194019Y24592764D01*
X4198321Y24588842D01*
X4198324Y24588839D01*
X4283446Y24511240D01*
X4358438Y24442876D01*
X4547599Y24325753D01*
X4647436Y24287076D01*
X4736709Y24252491D01*
X4785860Y24218150D01*
X4813573Y24164980D01*
X4813573Y24105020D01*
X4785860Y24051850D01*
X4736709Y24017509D01*
X4553037Y23946354D01*
X4553034Y23946353D01*
X4547599Y23944247D01*
X4542643Y23941179D01*
X4542638Y23941176D01*
X4380834Y23840991D01*
X4358438Y23827124D01*
X4354139Y23823206D01*
X4354135Y23823202D01*
X4198324Y23681162D01*
X4198316Y23681154D01*
X4194019Y23677236D01*
X4190514Y23672596D01*
X4190506Y23672586D01*
X4063452Y23504338D01*
X4063448Y23504333D01*
X4059942Y23499689D01*
X4057347Y23494479D01*
X4057344Y23494473D01*
X3963368Y23305745D01*
X3963365Y23305739D01*
X3960771Y23300528D01*
X3959177Y23294927D01*
X3959177Y23294926D01*
X3911667Y23127944D01*
X3899885Y23086536D01*
X3879357Y22865000D01*
X3899885Y22643464D01*
X3960771Y22429472D01*
X3963367Y22424259D01*
X3963368Y22424256D01*
X4055616Y22238998D01*
X4059942Y22230311D01*
X4063452Y22225663D01*
X4190506Y22057415D01*
X4190510Y22057411D01*
X4194019Y22052764D01*
X4198321Y22048842D01*
X4198324Y22048839D01*
X4256820Y21995513D01*
X4358438Y21902876D01*
X4547599Y21785753D01*
X4680636Y21734214D01*
X4736709Y21712491D01*
X4785860Y21678150D01*
X4813573Y21624980D01*
X4813573Y21565020D01*
X4785860Y21511850D01*
X4736709Y21477509D01*
X4553037Y21406354D01*
X4553034Y21406353D01*
X4547599Y21404247D01*
X4542643Y21401179D01*
X4542638Y21401176D01*
X4363391Y21290191D01*
X4358438Y21287124D01*
X4354139Y21283206D01*
X4354135Y21283202D01*
X4198324Y21141162D01*
X4198316Y21141154D01*
X4194019Y21137236D01*
X4190514Y21132596D01*
X4190506Y21132586D01*
X4063452Y20964338D01*
X4063448Y20964333D01*
X4059942Y20959689D01*
X4057347Y20954479D01*
X4057344Y20954473D01*
X3963368Y20765745D01*
X3963365Y20765739D01*
X3960771Y20760528D01*
X3959177Y20754927D01*
X3959177Y20754926D01*
X3911496Y20587343D01*
X3899885Y20546536D01*
X3879357Y20325000D01*
X3899885Y20103464D01*
X3960771Y19889472D01*
X3963367Y19884259D01*
X3963368Y19884256D01*
X4057344Y19695528D01*
X4059942Y19690311D01*
X4063452Y19685663D01*
X4190506Y19517415D01*
X4190510Y19517411D01*
X4194019Y19512764D01*
X4198321Y19508842D01*
X4198324Y19508839D01*
X4256820Y19455513D01*
X4358438Y19362876D01*
X4547599Y19245753D01*
X4680636Y19194214D01*
X4736709Y19172491D01*
X4785860Y19138150D01*
X4813573Y19084980D01*
X4813573Y19025020D01*
X4785860Y18971850D01*
X4736709Y18937509D01*
X4553037Y18866354D01*
X4553034Y18866353D01*
X4547599Y18864247D01*
X4542643Y18861179D01*
X4542638Y18861176D01*
X4376609Y18758375D01*
X4358438Y18747124D01*
X4354139Y18743206D01*
X4354135Y18743202D01*
X4198324Y18601162D01*
X4198316Y18601154D01*
X4194019Y18597236D01*
X4190514Y18592596D01*
X4190506Y18592586D01*
X4063452Y18424338D01*
X4063448Y18424333D01*
X4059942Y18419689D01*
X4057347Y18414479D01*
X4057344Y18414473D01*
X3963368Y18225745D01*
X3963365Y18225739D01*
X3960771Y18220528D01*
X3959177Y18214927D01*
X3959177Y18214926D01*
X3909841Y18041526D01*
X3899885Y18006536D01*
X3899348Y18000744D01*
X3899348Y18000742D01*
X3893874Y17941671D01*
X3879357Y17785000D01*
X3899885Y17563464D01*
X3960771Y17349472D01*
X3963367Y17344259D01*
X3963368Y17344256D01*
X4057344Y17155528D01*
X4059942Y17150311D01*
X4063452Y17145663D01*
X4190506Y16977415D01*
X4190510Y16977411D01*
X4194019Y16972764D01*
X4198321Y16968842D01*
X4198324Y16968839D01*
X4256820Y16915513D01*
X4358438Y16822876D01*
X4547599Y16705753D01*
X4654529Y16664328D01*
X4736709Y16632491D01*
X4785860Y16598150D01*
X4813573Y16544980D01*
X4813573Y16485020D01*
X4785860Y16431850D01*
X4736709Y16397509D01*
X4553037Y16326354D01*
X4553034Y16326353D01*
X4547599Y16324247D01*
X4542643Y16321179D01*
X4542638Y16321176D01*
X4363391Y16210191D01*
X4358438Y16207124D01*
X4354139Y16203206D01*
X4354135Y16203202D01*
X4198324Y16061162D01*
X4198316Y16061154D01*
X4194019Y16057236D01*
X4190514Y16052596D01*
X4190506Y16052586D01*
X4063452Y15884338D01*
X4063448Y15884333D01*
X4059942Y15879689D01*
X4057347Y15874479D01*
X4057344Y15874473D01*
X3963368Y15685745D01*
X3963365Y15685739D01*
X3960771Y15680528D01*
X3959177Y15674927D01*
X3959177Y15674926D01*
X3911667Y15507944D01*
X3899885Y15466536D01*
X3899348Y15460744D01*
X3899348Y15460742D01*
X3893874Y15401671D01*
X3879357Y15245000D01*
X3899885Y15023464D01*
X3960771Y14809472D01*
X3963367Y14804259D01*
X3963368Y14804256D01*
X4053686Y14622875D01*
X4059942Y14610311D01*
X4063452Y14605663D01*
X4190506Y14437415D01*
X4190510Y14437411D01*
X4194019Y14432764D01*
X4198321Y14428842D01*
X4198324Y14428839D01*
X4294428Y14341229D01*
X4358438Y14282876D01*
X4547599Y14165753D01*
X4646677Y14127370D01*
X4736709Y14092491D01*
X4785860Y14058150D01*
X4813573Y14004980D01*
X4813573Y13945020D01*
X4785860Y13891850D01*
X4736709Y13857509D01*
X4553037Y13786354D01*
X4553034Y13786353D01*
X4547599Y13784247D01*
X4542643Y13781179D01*
X4542638Y13781176D01*
X4363391Y13670191D01*
X4358438Y13667124D01*
X4354139Y13663206D01*
X4354135Y13663202D01*
X4198324Y13521162D01*
X4198316Y13521154D01*
X4194019Y13517236D01*
X4190514Y13512596D01*
X4190506Y13512586D01*
X4063452Y13344338D01*
X4063448Y13344333D01*
X4059942Y13339689D01*
X4057347Y13334479D01*
X4057344Y13334473D01*
X3963368Y13145745D01*
X3963365Y13145739D01*
X3960771Y13140528D01*
X3959177Y13134927D01*
X3959177Y13134926D01*
X3908437Y12956592D01*
X3899885Y12926536D01*
X3899348Y12920744D01*
X3899348Y12920742D01*
X3893874Y12861671D01*
X3879357Y12705000D01*
X3899885Y12483464D01*
X3960771Y12269472D01*
X3963367Y12264259D01*
X3963368Y12264256D01*
X4057344Y12075528D01*
X4059942Y12070311D01*
X4063452Y12065663D01*
X4190506Y11897415D01*
X4190510Y11897411D01*
X4194019Y11892764D01*
X4198321Y11888842D01*
X4198324Y11888839D01*
X4294428Y11801229D01*
X4358438Y11742876D01*
X4547599Y11625753D01*
X4690961Y11570214D01*
X4736709Y11552491D01*
X4785860Y11518150D01*
X4813573Y11464980D01*
X4813573Y11405020D01*
X4785860Y11351850D01*
X4736709Y11317509D01*
X4553037Y11246354D01*
X4553034Y11246353D01*
X4547599Y11244247D01*
X4542643Y11241179D01*
X4542638Y11241176D01*
X4379264Y11140019D01*
X4358438Y11127124D01*
X4354139Y11123206D01*
X4354135Y11123202D01*
X4198324Y10981162D01*
X4198316Y10981154D01*
X4194019Y10977236D01*
X4190514Y10972596D01*
X4190506Y10972586D01*
X4063452Y10804338D01*
X4063448Y10804333D01*
X4059942Y10799689D01*
X4057347Y10794479D01*
X4057344Y10794473D01*
X3963368Y10605745D01*
X3963365Y10605739D01*
X3960771Y10600528D01*
X3959177Y10594927D01*
X3959177Y10594926D01*
X3946455Y10550211D01*
X3899885Y10386536D01*
X3899348Y10380744D01*
X3899348Y10380742D01*
X3895734Y10341744D01*
X3879357Y10165000D01*
X3899885Y9943464D01*
X3960771Y9729472D01*
X3963367Y9724259D01*
X3963368Y9724256D01*
X4057344Y9535528D01*
X4059942Y9530311D01*
X4063452Y9525663D01*
X4190506Y9357415D01*
X4190510Y9357411D01*
X4194019Y9352764D01*
X4198321Y9348842D01*
X4198324Y9348839D01*
X4252305Y9299629D01*
X4358438Y9202876D01*
X4547599Y9085753D01*
X4736712Y9012490D01*
X4785860Y8978152D01*
X4813573Y8924981D01*
X4813574Y8865022D01*
X4785860Y8811851D01*
X4736709Y8777510D01*
X4553037Y8706355D01*
X4553025Y8706350D01*
X4547599Y8704247D01*
X4542643Y8701179D01*
X4542638Y8701176D01*
X4363391Y8590191D01*
X4358438Y8587124D01*
X4354139Y8583206D01*
X4354135Y8583202D01*
X4198324Y8441162D01*
X4198316Y8441154D01*
X4194019Y8437236D01*
X4190514Y8432596D01*
X4190506Y8432586D01*
X4063452Y8264338D01*
X4063448Y8264333D01*
X4059942Y8259689D01*
X4057347Y8254479D01*
X4057344Y8254473D01*
X3963368Y8065745D01*
X3963365Y8065739D01*
X3960771Y8060528D01*
X3959177Y8054927D01*
X3959177Y8054926D01*
X3941053Y7991225D01*
X3899885Y7846536D01*
X3899348Y7840744D01*
X3899348Y7840742D01*
X3895734Y7801744D01*
X3879357Y7625000D01*
X3899885Y7403464D01*
X3960771Y7189472D01*
X3963367Y7184259D01*
X3963368Y7184256D01*
X4055117Y7000000D01*
X4059942Y6990311D01*
X4063452Y6985663D01*
X4190506Y6817415D01*
X4190510Y6817411D01*
X4194019Y6812764D01*
X4198321Y6808842D01*
X4198324Y6808839D01*
X4203809Y6803839D01*
X4358438Y6662876D01*
X4547599Y6545753D01*
X4736712Y6472490D01*
X4785860Y6438152D01*
X4813573Y6384981D01*
X4813574Y6325022D01*
X4785860Y6271851D01*
X4736709Y6237510D01*
X4553037Y6166355D01*
X4553025Y6166350D01*
X4547599Y6164247D01*
X4542643Y6161179D01*
X4542638Y6161176D01*
X4379109Y6059923D01*
X4358438Y6047124D01*
X4354139Y6043206D01*
X4354135Y6043202D01*
X4198324Y5901162D01*
X4198316Y5901154D01*
X4194019Y5897236D01*
X4190514Y5892596D01*
X4190506Y5892586D01*
X4063452Y5724338D01*
X4063448Y5724333D01*
X4059942Y5719689D01*
X4057347Y5714479D01*
X4057344Y5714473D01*
X3963368Y5525745D01*
X3963365Y5525739D01*
X3960771Y5520528D01*
X3959177Y5514927D01*
X3959177Y5514926D01*
X3959177Y5514924D01*
X3899885Y5306536D01*
X3899348Y5300744D01*
X3899348Y5300742D01*
X3893874Y5241671D01*
X3879357Y5085000D01*
X3899885Y4863464D01*
X3960771Y4649472D01*
X3963367Y4644259D01*
X3963368Y4644256D01*
X4057344Y4455528D01*
X4059942Y4450311D01*
X4063452Y4445663D01*
X4190506Y4277415D01*
X4190510Y4277411D01*
X4194019Y4272764D01*
X4198321Y4268842D01*
X4198324Y4268839D01*
X4203809Y4263839D01*
X4358438Y4122876D01*
X4547599Y4005753D01*
X4690961Y3950214D01*
X4736709Y3932491D01*
X4785860Y3898150D01*
X4813573Y3844980D01*
X4813573Y3785020D01*
X4785860Y3731850D01*
X4736709Y3697509D01*
X4553037Y3626354D01*
X4553034Y3626353D01*
X4547599Y3624247D01*
X4542643Y3621179D01*
X4542638Y3621176D01*
X4363391Y3510191D01*
X4358438Y3507124D01*
X4354139Y3503206D01*
X4354135Y3503202D01*
X4198324Y3361162D01*
X4198316Y3361154D01*
X4194019Y3357236D01*
X4190514Y3352596D01*
X4190506Y3352586D01*
X4063452Y3184338D01*
X4063448Y3184333D01*
X4059942Y3179689D01*
X4057347Y3174479D01*
X4057344Y3174473D01*
X3963368Y2985745D01*
X3963365Y2985739D01*
X3960771Y2980528D01*
X3959177Y2974927D01*
X3959177Y2974926D01*
X3959177Y2974924D01*
X3899885Y2766536D01*
X3899348Y2760744D01*
X3899348Y2760742D01*
X3893874Y2701671D01*
X3879357Y2545000D01*
X500000Y2545000D01*
X500000Y21813230D01*
X1180860Y21813230D01*
X1188414Y21804986D01*
X1243996Y21766067D01*
X1253482Y21760590D01*
X1450946Y21668511D01*
X1461238Y21664765D01*
X1671687Y21608375D01*
X1682480Y21606472D01*
X1899525Y21587483D01*
X1910475Y21587483D01*
X2127519Y21606472D01*
X2138312Y21608375D01*
X2348761Y21664765D01*
X2359053Y21668511D01*
X2556510Y21760587D01*
X2566006Y21766069D01*
X2621586Y21804987D01*
X2629138Y21813229D01*
X2623128Y21822662D01*
X1916729Y22529061D01*
X1904999Y22535833D01*
X1893271Y22529062D01*
X1186867Y21822659D01*
X1180860Y21813230D01*
X500000Y21813230D01*
X500000Y22249691D01*
X517997Y22314586D01*
X566846Y22360942D01*
X632594Y22375518D01*
X696458Y22354150D01*
X740195Y22302941D01*
X765587Y22248488D01*
X771066Y22238998D01*
X809985Y22183414D01*
X818228Y22175862D01*
X827656Y22181868D01*
X1534059Y22888270D01*
X1540832Y22900001D01*
X2269167Y22900001D01*
X2275939Y22888271D01*
X2982338Y22181872D01*
X2991771Y22175862D01*
X3000013Y22183414D01*
X3038931Y22238994D01*
X3044413Y22248490D01*
X3136489Y22445947D01*
X3140235Y22456239D01*
X3196625Y22666688D01*
X3198528Y22677481D01*
X3217517Y22894525D01*
X3217517Y22905475D01*
X3198528Y23122520D01*
X3196625Y23133313D01*
X3140235Y23343762D01*
X3136489Y23354054D01*
X3044410Y23551518D01*
X3038933Y23561004D01*
X3000014Y23616586D01*
X2991770Y23624140D01*
X2982341Y23618133D01*
X2275938Y22911729D01*
X2269167Y22900001D01*
X1540832Y22900001D01*
X1534060Y22911730D01*
X827659Y23618131D01*
X818227Y23624140D01*
X809985Y23616587D01*
X771067Y23561005D01*
X765587Y23551515D01*
X740195Y23497059D01*
X696458Y23445850D01*
X632594Y23424482D01*
X566846Y23439058D01*
X517997Y23485414D01*
X500000Y23550309D01*
X500000Y25367956D01*
X508322Y25400000D01*
X500000Y25432044D01*
X500000Y27289691D01*
X517997Y27354586D01*
X566846Y27400942D01*
X632594Y27415518D01*
X696458Y27394150D01*
X740195Y27342941D01*
X765586Y27288490D01*
X771068Y27278994D01*
X896028Y27100534D01*
X903084Y27092125D01*
X1057124Y26938085D01*
X1065533Y26931029D01*
X1243993Y26806069D01*
X1253489Y26800587D01*
X1450946Y26708511D01*
X1466413Y26702881D01*
X1465917Y26701521D01*
X1513722Y26674619D01*
X1546769Y26621452D01*
X1550150Y26558942D01*
X1523030Y26502520D01*
X1472104Y26466114D01*
X1395420Y26436407D01*
X1395402Y26436399D01*
X1389981Y26434298D01*
X1385034Y26431236D01*
X1385024Y26431230D01*
X1213649Y26325118D01*
X1213645Y26325116D01*
X1208698Y26322052D01*
X1204404Y26318138D01*
X1204394Y26318130D01*
X1055433Y26182333D01*
X1055425Y26182325D01*
X1051128Y26178407D01*
X1047619Y26173761D01*
X1047615Y26173756D01*
X926145Y26012906D01*
X926139Y26012897D01*
X922634Y26008255D01*
X920040Y26003048D01*
X920037Y26003041D01*
X830189Y25822601D01*
X830184Y25822590D01*
X827595Y25817389D01*
X826003Y25811796D01*
X826001Y25811789D01*
X771869Y25621536D01*
X769244Y25612310D01*
X768707Y25606518D01*
X768707Y25606516D01*
X751463Y25420418D01*
X744090Y25400000D01*
X751462Y25379583D01*
X769244Y25187690D01*
X770836Y25182092D01*
X770837Y25182091D01*
X826000Y24988214D01*
X827595Y24982611D01*
X830186Y24977407D01*
X830189Y24977400D01*
X845851Y24945947D01*
X922634Y24791745D01*
X926142Y24787100D01*
X926145Y24787095D01*
X938656Y24770528D01*
X1051128Y24621593D01*
X1055430Y24617671D01*
X1055433Y24617668D01*
X1204394Y24481871D01*
X1204398Y24481868D01*
X1208698Y24477948D01*
X1330193Y24402722D01*
X1349076Y24391029D01*
X1389981Y24365702D01*
X1395411Y24363599D01*
X1395414Y24363597D01*
X1395417Y24363596D01*
X1422014Y24353293D01*
X1470047Y24320210D01*
X1498036Y24269039D01*
X1499983Y24210746D01*
X1475470Y24157822D01*
X1429749Y24121606D01*
X1253486Y24039413D01*
X1243995Y24033933D01*
X1188413Y23995015D01*
X1180860Y23986773D01*
X1186869Y23977341D01*
X1893270Y23270940D01*
X1904999Y23264168D01*
X1916730Y23270941D01*
X2623132Y23977344D01*
X2629138Y23986772D01*
X2621586Y23995015D01*
X2566002Y24033934D01*
X2556512Y24039413D01*
X2380250Y24121606D01*
X2334529Y24157822D01*
X2310016Y24210746D01*
X2311963Y24269039D01*
X2339953Y24320210D01*
X2387985Y24353293D01*
X2420019Y24365702D01*
X2601302Y24477948D01*
X2758872Y24621593D01*
X2887366Y24791745D01*
X2982405Y24982611D01*
X3040756Y25187690D01*
X3060429Y25400000D01*
X3040756Y25612310D01*
X2982405Y25817389D01*
X2976162Y25829926D01*
X2895783Y25991351D01*
X2887366Y26008255D01*
X2864499Y26038535D01*
X2781492Y26148453D01*
X2758872Y26178407D01*
X2754568Y26182330D01*
X2754566Y26182333D01*
X2605605Y26318130D01*
X2605600Y26318134D01*
X2601302Y26322052D01*
X2542918Y26358202D01*
X2424975Y26431230D01*
X2424969Y26431233D01*
X2420019Y26434298D01*
X2414583Y26436404D01*
X2414579Y26436406D01*
X2337895Y26466114D01*
X2286968Y26502522D01*
X2259849Y26558946D01*
X2263232Y26621457D01*
X2296283Y26674624D01*
X2344082Y26701520D01*
X2343587Y26702881D01*
X2359053Y26708511D01*
X2556510Y26800587D01*
X2566006Y26806069D01*
X2744466Y26931029D01*
X2752875Y26938085D01*
X2906915Y27092125D01*
X2913971Y27100534D01*
X3038931Y27278994D01*
X3044413Y27288490D01*
X3136489Y27485947D01*
X3140235Y27496239D01*
X3187330Y27671999D01*
X3187703Y27683409D01*
X3176589Y27686000D01*
X1777000Y27686000D01*
X1714000Y27702881D01*
X1667881Y27749000D01*
X1651000Y27812000D01*
X1651000Y28210590D01*
X2159000Y28210590D01*
X2162506Y28197507D01*
X2175590Y28194000D01*
X3176589Y28194000D01*
X3187703Y28196592D01*
X3187330Y28208002D01*
X3140235Y28383762D01*
X3136489Y28394054D01*
X3044413Y28591511D01*
X3038931Y28601007D01*
X2913971Y28779467D01*
X2906915Y28787876D01*
X2752875Y28941916D01*
X2744466Y28948972D01*
X2566006Y29073932D01*
X2556510Y29079414D01*
X2359053Y29171490D01*
X2348761Y29175236D01*
X2173001Y29222331D01*
X2161591Y29222704D01*
X2159000Y29211589D01*
X2159000Y28210590D01*
X1651000Y28210590D01*
X1651000Y29211589D01*
X1648408Y29222704D01*
X1636998Y29222331D01*
X1461238Y29175236D01*
X1450946Y29171490D01*
X1253489Y29079414D01*
X1243993Y29073932D01*
X1065533Y28948972D01*
X1057124Y28941916D01*
X903084Y28787876D01*
X896028Y28779467D01*
X771068Y28601007D01*
X765586Y28591511D01*
X740195Y28537059D01*
X696458Y28485850D01*
X632594Y28464482D01*
X566846Y28479058D01*
X517997Y28525414D01*
X500000Y28590309D01*
X500000Y38067956D01*
X508322Y38100000D01*
X744090Y38100000D01*
X751462Y38079583D01*
X769244Y37887690D01*
X770836Y37882092D01*
X770837Y37882091D01*
X826000Y37688214D01*
X827595Y37682611D01*
X830186Y37677407D01*
X830189Y37677400D01*
X920037Y37496960D01*
X922634Y37491745D01*
X926142Y37487100D01*
X926145Y37487095D01*
X998200Y37391680D01*
X1051128Y37321593D01*
X1055430Y37317671D01*
X1055433Y37317668D01*
X1204394Y37181871D01*
X1204398Y37181868D01*
X1208698Y37177948D01*
X1278368Y37134810D01*
X1380844Y37071359D01*
X1389981Y37065702D01*
X1395411Y37063599D01*
X1395414Y37063597D01*
X1447836Y37043289D01*
X1588802Y36988679D01*
X1798390Y36949500D01*
X2005783Y36949500D01*
X2011610Y36949500D01*
X2221198Y36988679D01*
X2420019Y37065702D01*
X2601302Y37177948D01*
X2758872Y37321593D01*
X2887366Y37491745D01*
X2982405Y37682611D01*
X3040756Y37887690D01*
X3060429Y38100000D01*
X3040756Y38312310D01*
X2982405Y38517389D01*
X2976162Y38529926D01*
X2889962Y38703041D01*
X2887366Y38708255D01*
X2758872Y38878407D01*
X2754568Y38882330D01*
X2754566Y38882333D01*
X2605605Y39018130D01*
X2605600Y39018134D01*
X2601302Y39022052D01*
X2534843Y39063202D01*
X2424975Y39131230D01*
X2424969Y39131233D01*
X2420019Y39134298D01*
X2414592Y39136401D01*
X2414585Y39136404D01*
X2226627Y39209218D01*
X2226625Y39209219D01*
X2221198Y39211321D01*
X2215476Y39212391D01*
X2215475Y39212391D01*
X2034907Y39246145D01*
X1973174Y39276885D01*
X1936870Y39335518D01*
X1936870Y39404482D01*
X1973174Y39463115D01*
X2034907Y39493855D01*
X2221198Y39528679D01*
X2420019Y39605702D01*
X2601302Y39717948D01*
X2758872Y39861593D01*
X2887366Y40031745D01*
X2982405Y40222611D01*
X3040756Y40427690D01*
X3060429Y40640000D01*
X3040756Y40852310D01*
X2982405Y41057389D01*
X2976162Y41069926D01*
X2889962Y41243041D01*
X2887366Y41248255D01*
X2825637Y41329996D01*
X2779943Y41390505D01*
X2758872Y41418407D01*
X2754568Y41422330D01*
X2754566Y41422333D01*
X2605605Y41558130D01*
X2605600Y41558134D01*
X2601302Y41562052D01*
X2548427Y41594791D01*
X2424975Y41671230D01*
X2424969Y41671233D01*
X2420019Y41674298D01*
X2414592Y41676401D01*
X2414585Y41676404D01*
X2226627Y41749218D01*
X2226625Y41749219D01*
X2221198Y41751321D01*
X2215476Y41752391D01*
X2215475Y41752391D01*
X2017335Y41789430D01*
X2017332Y41789431D01*
X2011610Y41790500D01*
X1798390Y41790500D01*
X1792668Y41789431D01*
X1792664Y41789430D01*
X1594524Y41752391D01*
X1594520Y41752390D01*
X1588802Y41751321D01*
X1583377Y41749220D01*
X1583372Y41749218D01*
X1395414Y41676404D01*
X1395402Y41676399D01*
X1389981Y41674298D01*
X1385034Y41671236D01*
X1385024Y41671230D01*
X1213649Y41565118D01*
X1213645Y41565116D01*
X1208698Y41562052D01*
X1204404Y41558138D01*
X1204394Y41558130D01*
X1055433Y41422333D01*
X1055425Y41422325D01*
X1051128Y41418407D01*
X1047619Y41413761D01*
X1047615Y41413756D01*
X926145Y41252906D01*
X926139Y41252897D01*
X922634Y41248255D01*
X920040Y41243048D01*
X920037Y41243041D01*
X830189Y41062601D01*
X830184Y41062590D01*
X827595Y41057389D01*
X826003Y41051796D01*
X826001Y41051789D01*
X771869Y40861536D01*
X769244Y40852310D01*
X768707Y40846518D01*
X768707Y40846516D01*
X751463Y40660418D01*
X744090Y40640000D01*
X751462Y40619583D01*
X769244Y40427690D01*
X770836Y40422092D01*
X770837Y40422091D01*
X826000Y40228214D01*
X827595Y40222611D01*
X830186Y40217407D01*
X830189Y40217400D01*
X839224Y40199256D01*
X922634Y40031745D01*
X926142Y40027100D01*
X926145Y40027095D01*
X938656Y40010528D01*
X1051128Y39861593D01*
X1055430Y39857671D01*
X1055433Y39857668D01*
X1204394Y39721871D01*
X1204398Y39721868D01*
X1208698Y39717948D01*
X1318807Y39649771D01*
X1359556Y39624540D01*
X1389981Y39605702D01*
X1395411Y39603599D01*
X1395414Y39603597D01*
X1467229Y39575777D01*
X1588802Y39528679D01*
X1736046Y39501155D01*
X1775092Y39493855D01*
X1836825Y39463115D01*
X1873129Y39404481D01*
X1873129Y39335519D01*
X1836825Y39276885D01*
X1775092Y39246145D01*
X1594524Y39212391D01*
X1594520Y39212390D01*
X1588802Y39211321D01*
X1583377Y39209220D01*
X1583372Y39209218D01*
X1395414Y39136404D01*
X1395402Y39136399D01*
X1389981Y39134298D01*
X1385034Y39131236D01*
X1385024Y39131230D01*
X1213649Y39025118D01*
X1213645Y39025116D01*
X1208698Y39022052D01*
X1204404Y39018138D01*
X1204394Y39018130D01*
X1055433Y38882333D01*
X1055425Y38882325D01*
X1051128Y38878407D01*
X1047619Y38873761D01*
X1047615Y38873756D01*
X926145Y38712906D01*
X926139Y38712897D01*
X922634Y38708255D01*
X920040Y38703048D01*
X920037Y38703041D01*
X830189Y38522601D01*
X830184Y38522590D01*
X827595Y38517389D01*
X826003Y38511796D01*
X826001Y38511789D01*
X771869Y38321536D01*
X769244Y38312310D01*
X768707Y38306518D01*
X768707Y38306516D01*
X751463Y38120418D01*
X744090Y38100000D01*
X508322Y38100000D01*
X508322Y38100001D01*
X500000Y38132044D01*
X500000Y40607956D01*
X508322Y40640000D01*
X500000Y40672044D01*
X500000Y50149691D01*
X517997Y50214586D01*
X566846Y50260942D01*
X632594Y50275518D01*
X696458Y50254150D01*
X740195Y50202941D01*
X765586Y50148490D01*
X771068Y50138994D01*
X896028Y49960534D01*
X903084Y49952125D01*
X1057124Y49798085D01*
X1065533Y49791029D01*
X1243993Y49666069D01*
X1253489Y49660587D01*
X1450946Y49568511D01*
X1461238Y49564765D01*
X1636998Y49517670D01*
X1648408Y49517297D01*
X1651000Y49528411D01*
X2159000Y49528411D01*
X2161591Y49517297D01*
X2173001Y49517670D01*
X2348761Y49564765D01*
X2359053Y49568511D01*
X2556510Y49660587D01*
X2566006Y49666069D01*
X2744466Y49791029D01*
X2752875Y49798085D01*
X2906915Y49952125D01*
X2913971Y49960534D01*
X3038931Y50138994D01*
X3044413Y50148490D01*
X3136489Y50345947D01*
X3140235Y50356239D01*
X3187330Y50531999D01*
X3187703Y50543409D01*
X3176589Y50546000D01*
X2175590Y50546000D01*
X2162506Y50542494D01*
X2159000Y50529410D01*
X2159000Y49528411D01*
X1651000Y49528411D01*
X1651000Y51070590D01*
X2159000Y51070590D01*
X2162506Y51057507D01*
X2175590Y51054000D01*
X3176589Y51054000D01*
X3187703Y51056592D01*
X3187330Y51068002D01*
X3140235Y51243762D01*
X3136489Y51254054D01*
X3044413Y51451511D01*
X3038931Y51461007D01*
X2913971Y51639467D01*
X2906915Y51647876D01*
X2752875Y51801916D01*
X2744466Y51808972D01*
X2566006Y51933932D01*
X2556510Y51939414D01*
X2359053Y52031490D01*
X2348761Y52035236D01*
X2173001Y52082331D01*
X2161591Y52082704D01*
X2159000Y52071589D01*
X2159000Y51070590D01*
X1651000Y51070590D01*
X1651000Y52071589D01*
X1648408Y52082704D01*
X1636998Y52082331D01*
X1461238Y52035236D01*
X1450946Y52031490D01*
X1253489Y51939414D01*
X1243993Y51933932D01*
X1065533Y51808972D01*
X1057124Y51801916D01*
X903084Y51647876D01*
X896028Y51639467D01*
X771068Y51461007D01*
X765586Y51451511D01*
X740195Y51397059D01*
X696458Y51345850D01*
X632594Y51324482D01*
X566846Y51339058D01*
X517997Y51385414D01*
X500000Y51450309D01*
X500000Y55245000D01*
X40794571Y55245000D01*
X40814244Y55032690D01*
X40815836Y55027092D01*
X40815837Y55027091D01*
X40859378Y54874061D01*
X40872595Y54827611D01*
X40875186Y54822407D01*
X40875189Y54822400D01*
X40890851Y54790947D01*
X40967634Y54636745D01*
X40971142Y54632100D01*
X40971145Y54632095D01*
X41080751Y54486955D01*
X41096128Y54466593D01*
X41100430Y54462671D01*
X41100433Y54462668D01*
X41249394Y54326871D01*
X41249398Y54326868D01*
X41253698Y54322948D01*
X41434981Y54210702D01*
X41440411Y54208599D01*
X41440414Y54208597D01*
X41512229Y54180777D01*
X41633802Y54133679D01*
X41843390Y54094500D01*
X42050783Y54094500D01*
X42056610Y54094500D01*
X42266198Y54133679D01*
X42329572Y54158230D01*
X43725860Y54158230D01*
X43733414Y54149986D01*
X43788996Y54111067D01*
X43798482Y54105590D01*
X43995946Y54013511D01*
X44006238Y54009765D01*
X44216687Y53953375D01*
X44227480Y53951472D01*
X44444525Y53932483D01*
X44455475Y53932483D01*
X44672519Y53951472D01*
X44683312Y53953375D01*
X44893761Y54009765D01*
X44904053Y54013511D01*
X45101510Y54105587D01*
X45111006Y54111069D01*
X45166586Y54149987D01*
X45174138Y54158229D01*
X45168128Y54167662D01*
X44461729Y54874061D01*
X44449999Y54880833D01*
X44438271Y54874062D01*
X43731867Y54167659D01*
X43725860Y54158230D01*
X42329572Y54158230D01*
X42465019Y54210702D01*
X42646302Y54322948D01*
X42803872Y54466593D01*
X42932366Y54636745D01*
X43000749Y54774079D01*
X43047896Y54825465D01*
X43115155Y54843905D01*
X43181919Y54823746D01*
X43227734Y54771165D01*
X43310587Y54593488D01*
X43316066Y54583998D01*
X43354985Y54528414D01*
X43363228Y54520862D01*
X43372656Y54526868D01*
X44079059Y55233270D01*
X44085832Y55245001D01*
X44814167Y55245001D01*
X44820939Y55233271D01*
X45527338Y54526872D01*
X45536771Y54520862D01*
X45545013Y54528414D01*
X45583931Y54583994D01*
X45589413Y54593490D01*
X45681489Y54790947D01*
X45685235Y54801239D01*
X45741625Y55011688D01*
X45743528Y55022481D01*
X45762517Y55239525D01*
X45762517Y55250475D01*
X45743528Y55467520D01*
X45741625Y55478313D01*
X45685235Y55688762D01*
X45681489Y55699054D01*
X45589410Y55896518D01*
X45583933Y55906004D01*
X45545014Y55961586D01*
X45536770Y55969140D01*
X45527341Y55963133D01*
X44820938Y55256729D01*
X44814167Y55245001D01*
X44085832Y55245001D01*
X44079060Y55256730D01*
X43372659Y55963131D01*
X43363227Y55969140D01*
X43354985Y55961587D01*
X43316067Y55906005D01*
X43310585Y55896510D01*
X43227733Y55718835D01*
X43181919Y55666255D01*
X43115155Y55646096D01*
X43047897Y55664536D01*
X43000748Y55715924D01*
X42934964Y55848038D01*
X42934962Y55848041D01*
X42932366Y55853255D01*
X42892531Y55906004D01*
X42807384Y56018756D01*
X42803872Y56023407D01*
X42799568Y56027330D01*
X42799566Y56027333D01*
X42650605Y56163130D01*
X42650600Y56163134D01*
X42646302Y56167052D01*
X42607284Y56191211D01*
X42469975Y56276230D01*
X42469969Y56276233D01*
X42465019Y56279298D01*
X42459592Y56281401D01*
X42459585Y56281404D01*
X42329565Y56331773D01*
X43725860Y56331773D01*
X43731869Y56322341D01*
X44438270Y55615940D01*
X44449999Y55609168D01*
X44461730Y55615941D01*
X45168132Y56322344D01*
X45174138Y56331772D01*
X45166586Y56340015D01*
X45111002Y56378934D01*
X45101513Y56384413D01*
X44904053Y56476490D01*
X44893761Y56480236D01*
X44683312Y56536626D01*
X44672519Y56538529D01*
X44455475Y56557517D01*
X44444525Y56557517D01*
X44227480Y56538529D01*
X44216687Y56536626D01*
X44006238Y56480236D01*
X43995946Y56476490D01*
X43798485Y56384413D01*
X43788995Y56378933D01*
X43733413Y56340015D01*
X43725860Y56331773D01*
X42329565Y56331773D01*
X42271627Y56354218D01*
X42271625Y56354219D01*
X42266198Y56356321D01*
X42260476Y56357391D01*
X42260475Y56357391D01*
X42062335Y56394430D01*
X42062332Y56394431D01*
X42056610Y56395500D01*
X41843390Y56395500D01*
X41837668Y56394431D01*
X41837664Y56394430D01*
X41639524Y56357391D01*
X41639520Y56357390D01*
X41633802Y56356321D01*
X41628377Y56354220D01*
X41628372Y56354218D01*
X41440414Y56281404D01*
X41440402Y56281399D01*
X41434981Y56279298D01*
X41430034Y56276236D01*
X41430024Y56276230D01*
X41258649Y56170118D01*
X41258645Y56170116D01*
X41253698Y56167052D01*
X41249404Y56163138D01*
X41249394Y56163130D01*
X41100433Y56027333D01*
X41100425Y56027325D01*
X41096128Y56023407D01*
X41092619Y56018761D01*
X41092615Y56018756D01*
X40971145Y55857906D01*
X40971139Y55857897D01*
X40967634Y55853255D01*
X40965040Y55848048D01*
X40965037Y55848041D01*
X40875189Y55667601D01*
X40875184Y55667590D01*
X40872595Y55662389D01*
X40871003Y55656796D01*
X40871001Y55656789D01*
X40820220Y55478313D01*
X40814244Y55457310D01*
X40794571Y55245000D01*
X500000Y55245000D01*
X500000Y55945512D01*
X510350Y55995524D01*
X539701Y56037319D01*
X1463625Y56905808D01*
X1503510Y56931140D01*
X1549923Y56940000D01*
X73450077Y56940000D01*
X73496490Y56931140D01*
G37*
G04 #@! TD.AperFunction*
M02*
