G04 #@! TF.GenerationSoftware,KiCad,Pcbnew,(7.0.0-0)*
G04 #@! TF.CreationDate,2023-02-21T12:21:14+09:00*
G04 #@! TF.ProjectId,MEZ80SD,4d455a38-3053-4442-9e6b-696361645f70,A*
G04 #@! TF.SameCoordinates,PX5f5e100PY8f0d180*
G04 #@! TF.FileFunction,Legend,Bot*
G04 #@! TF.FilePolarity,Positive*
%FSLAX46Y46*%
G04 Gerber Fmt 4.6, Leading zero omitted, Abs format (unit mm)*
G04 Created by KiCad (PCBNEW (7.0.0-0)) date 2023-02-21 12:21:14*
%MOMM*%
%LPD*%
G01*
G04 APERTURE LIST*
%ADD10C,0.150000*%
%ADD11C,0.120000*%
G04 APERTURE END LIST*
D10*
X53072380Y20208905D02*
X52405714Y20208905D01*
X52500952Y20208905D02*
X52453333Y20161286D01*
X52453333Y20161286D02*
X52405714Y20066048D01*
X52405714Y20066048D02*
X52405714Y19923191D01*
X52405714Y19923191D02*
X52453333Y19827953D01*
X52453333Y19827953D02*
X52548571Y19780334D01*
X52548571Y19780334D02*
X53072380Y19780334D01*
X52548571Y19780334D02*
X52453333Y19732715D01*
X52453333Y19732715D02*
X52405714Y19637477D01*
X52405714Y19637477D02*
X52405714Y19494620D01*
X52405714Y19494620D02*
X52453333Y19399381D01*
X52453333Y19399381D02*
X52548571Y19351762D01*
X52548571Y19351762D02*
X53072380Y19351762D01*
X53072380Y18875572D02*
X52405714Y18875572D01*
X52072380Y18875572D02*
X52120000Y18923191D01*
X52120000Y18923191D02*
X52167619Y18875572D01*
X52167619Y18875572D02*
X52120000Y18827953D01*
X52120000Y18827953D02*
X52072380Y18875572D01*
X52072380Y18875572D02*
X52167619Y18875572D01*
X53024761Y17970811D02*
X53072380Y18066049D01*
X53072380Y18066049D02*
X53072380Y18256525D01*
X53072380Y18256525D02*
X53024761Y18351763D01*
X53024761Y18351763D02*
X52977142Y18399382D01*
X52977142Y18399382D02*
X52881904Y18447001D01*
X52881904Y18447001D02*
X52596190Y18447001D01*
X52596190Y18447001D02*
X52500952Y18399382D01*
X52500952Y18399382D02*
X52453333Y18351763D01*
X52453333Y18351763D02*
X52405714Y18256525D01*
X52405714Y18256525D02*
X52405714Y18066049D01*
X52405714Y18066049D02*
X52453333Y17970811D01*
X53072380Y17542239D02*
X52405714Y17542239D01*
X52596190Y17542239D02*
X52500952Y17494620D01*
X52500952Y17494620D02*
X52453333Y17447001D01*
X52453333Y17447001D02*
X52405714Y17351763D01*
X52405714Y17351763D02*
X52405714Y17256525D01*
X53072380Y16780334D02*
X53024761Y16875572D01*
X53024761Y16875572D02*
X52977142Y16923191D01*
X52977142Y16923191D02*
X52881904Y16970810D01*
X52881904Y16970810D02*
X52596190Y16970810D01*
X52596190Y16970810D02*
X52500952Y16923191D01*
X52500952Y16923191D02*
X52453333Y16875572D01*
X52453333Y16875572D02*
X52405714Y16780334D01*
X52405714Y16780334D02*
X52405714Y16637477D01*
X52405714Y16637477D02*
X52453333Y16542239D01*
X52453333Y16542239D02*
X52500952Y16494620D01*
X52500952Y16494620D02*
X52596190Y16447001D01*
X52596190Y16447001D02*
X52881904Y16447001D01*
X52881904Y16447001D02*
X52977142Y16494620D01*
X52977142Y16494620D02*
X53024761Y16542239D01*
X53024761Y16542239D02*
X53072380Y16637477D01*
X53072380Y16637477D02*
X53072380Y16780334D01*
X53024761Y16066048D02*
X53072380Y15923191D01*
X53072380Y15923191D02*
X53072380Y15685096D01*
X53072380Y15685096D02*
X53024761Y15589858D01*
X53024761Y15589858D02*
X52977142Y15542239D01*
X52977142Y15542239D02*
X52881904Y15494620D01*
X52881904Y15494620D02*
X52786666Y15494620D01*
X52786666Y15494620D02*
X52691428Y15542239D01*
X52691428Y15542239D02*
X52643809Y15589858D01*
X52643809Y15589858D02*
X52596190Y15685096D01*
X52596190Y15685096D02*
X52548571Y15875572D01*
X52548571Y15875572D02*
X52500952Y15970810D01*
X52500952Y15970810D02*
X52453333Y16018429D01*
X52453333Y16018429D02*
X52358095Y16066048D01*
X52358095Y16066048D02*
X52262857Y16066048D01*
X52262857Y16066048D02*
X52167619Y16018429D01*
X52167619Y16018429D02*
X52120000Y15970810D01*
X52120000Y15970810D02*
X52072380Y15875572D01*
X52072380Y15875572D02*
X52072380Y15637477D01*
X52072380Y15637477D02*
X52120000Y15494620D01*
X53072380Y15066048D02*
X52072380Y15066048D01*
X52072380Y15066048D02*
X52072380Y14827953D01*
X52072380Y14827953D02*
X52120000Y14685096D01*
X52120000Y14685096D02*
X52215238Y14589858D01*
X52215238Y14589858D02*
X52310476Y14542239D01*
X52310476Y14542239D02*
X52500952Y14494620D01*
X52500952Y14494620D02*
X52643809Y14494620D01*
X52643809Y14494620D02*
X52834285Y14542239D01*
X52834285Y14542239D02*
X52929523Y14589858D01*
X52929523Y14589858D02*
X53024761Y14685096D01*
X53024761Y14685096D02*
X53072380Y14827953D01*
X53072380Y14827953D02*
X53072380Y15066048D01*
X54660000Y19430715D02*
X54612380Y19525953D01*
X54612380Y19525953D02*
X54612380Y19668810D01*
X54612380Y19668810D02*
X54660000Y19811667D01*
X54660000Y19811667D02*
X54755238Y19906905D01*
X54755238Y19906905D02*
X54850476Y19954524D01*
X54850476Y19954524D02*
X55040952Y20002143D01*
X55040952Y20002143D02*
X55183809Y20002143D01*
X55183809Y20002143D02*
X55374285Y19954524D01*
X55374285Y19954524D02*
X55469523Y19906905D01*
X55469523Y19906905D02*
X55564761Y19811667D01*
X55564761Y19811667D02*
X55612380Y19668810D01*
X55612380Y19668810D02*
X55612380Y19573572D01*
X55612380Y19573572D02*
X55564761Y19430715D01*
X55564761Y19430715D02*
X55517142Y19383096D01*
X55517142Y19383096D02*
X55183809Y19383096D01*
X55183809Y19383096D02*
X55183809Y19573572D01*
X55612380Y18954524D02*
X54612380Y18954524D01*
X54612380Y18954524D02*
X55612380Y18383096D01*
X55612380Y18383096D02*
X54612380Y18383096D01*
X55612380Y17906905D02*
X54612380Y17906905D01*
X54612380Y17906905D02*
X54612380Y17668810D01*
X54612380Y17668810D02*
X54660000Y17525953D01*
X54660000Y17525953D02*
X54755238Y17430715D01*
X54755238Y17430715D02*
X54850476Y17383096D01*
X54850476Y17383096D02*
X55040952Y17335477D01*
X55040952Y17335477D02*
X55183809Y17335477D01*
X55183809Y17335477D02*
X55374285Y17383096D01*
X55374285Y17383096D02*
X55469523Y17430715D01*
X55469523Y17430715D02*
X55564761Y17525953D01*
X55564761Y17525953D02*
X55612380Y17668810D01*
X55612380Y17668810D02*
X55612380Y17906905D01*
X68217142Y18287858D02*
X68264761Y18335477D01*
X68264761Y18335477D02*
X68312380Y18478334D01*
X68312380Y18478334D02*
X68312380Y18573572D01*
X68312380Y18573572D02*
X68264761Y18716429D01*
X68264761Y18716429D02*
X68169523Y18811667D01*
X68169523Y18811667D02*
X68074285Y18859286D01*
X68074285Y18859286D02*
X67883809Y18906905D01*
X67883809Y18906905D02*
X67740952Y18906905D01*
X67740952Y18906905D02*
X67550476Y18859286D01*
X67550476Y18859286D02*
X67455238Y18811667D01*
X67455238Y18811667D02*
X67360000Y18716429D01*
X67360000Y18716429D02*
X67312380Y18573572D01*
X67312380Y18573572D02*
X67312380Y18478334D01*
X67312380Y18478334D02*
X67360000Y18335477D01*
X67360000Y18335477D02*
X67407619Y18287858D01*
X68264761Y17906905D02*
X68312380Y17764048D01*
X68312380Y17764048D02*
X68312380Y17525953D01*
X68312380Y17525953D02*
X68264761Y17430715D01*
X68264761Y17430715D02*
X68217142Y17383096D01*
X68217142Y17383096D02*
X68121904Y17335477D01*
X68121904Y17335477D02*
X68026666Y17335477D01*
X68026666Y17335477D02*
X67931428Y17383096D01*
X67931428Y17383096D02*
X67883809Y17430715D01*
X67883809Y17430715D02*
X67836190Y17525953D01*
X67836190Y17525953D02*
X67788571Y17716429D01*
X67788571Y17716429D02*
X67740952Y17811667D01*
X67740952Y17811667D02*
X67693333Y17859286D01*
X67693333Y17859286D02*
X67598095Y17906905D01*
X67598095Y17906905D02*
X67502857Y17906905D01*
X67502857Y17906905D02*
X67407619Y17859286D01*
X67407619Y17859286D02*
X67360000Y17811667D01*
X67360000Y17811667D02*
X67312380Y17716429D01*
X67312380Y17716429D02*
X67312380Y17478334D01*
X67312380Y17478334D02*
X67360000Y17335477D01*
X53072380Y25161905D02*
X52072380Y25161905D01*
X52072380Y25161905D02*
X52072380Y24780953D01*
X52072380Y24780953D02*
X52120000Y24685715D01*
X52120000Y24685715D02*
X52167619Y24638096D01*
X52167619Y24638096D02*
X52262857Y24590477D01*
X52262857Y24590477D02*
X52405714Y24590477D01*
X52405714Y24590477D02*
X52500952Y24638096D01*
X52500952Y24638096D02*
X52548571Y24685715D01*
X52548571Y24685715D02*
X52596190Y24780953D01*
X52596190Y24780953D02*
X52596190Y25161905D01*
X53072380Y24161905D02*
X52072380Y24161905D01*
X52977142Y23114287D02*
X53024761Y23161906D01*
X53024761Y23161906D02*
X53072380Y23304763D01*
X53072380Y23304763D02*
X53072380Y23400001D01*
X53072380Y23400001D02*
X53024761Y23542858D01*
X53024761Y23542858D02*
X52929523Y23638096D01*
X52929523Y23638096D02*
X52834285Y23685715D01*
X52834285Y23685715D02*
X52643809Y23733334D01*
X52643809Y23733334D02*
X52500952Y23733334D01*
X52500952Y23733334D02*
X52310476Y23685715D01*
X52310476Y23685715D02*
X52215238Y23638096D01*
X52215238Y23638096D02*
X52120000Y23542858D01*
X52120000Y23542858D02*
X52072380Y23400001D01*
X52072380Y23400001D02*
X52072380Y23304763D01*
X52072380Y23304763D02*
X52120000Y23161906D01*
X52120000Y23161906D02*
X52167619Y23114287D01*
X52977142Y22685715D02*
X53024761Y22638096D01*
X53024761Y22638096D02*
X53072380Y22685715D01*
X53072380Y22685715D02*
X53024761Y22733334D01*
X53024761Y22733334D02*
X52977142Y22685715D01*
X52977142Y22685715D02*
X53072380Y22685715D01*
X52453333Y22685715D02*
X52500952Y22638096D01*
X52500952Y22638096D02*
X52548571Y22685715D01*
X52548571Y22685715D02*
X52500952Y22733334D01*
X52500952Y22733334D02*
X52453333Y22685715D01*
X52453333Y22685715D02*
X52548571Y22685715D01*
X65724761Y19906905D02*
X65772380Y19764048D01*
X65772380Y19764048D02*
X65772380Y19525953D01*
X65772380Y19525953D02*
X65724761Y19430715D01*
X65724761Y19430715D02*
X65677142Y19383096D01*
X65677142Y19383096D02*
X65581904Y19335477D01*
X65581904Y19335477D02*
X65486666Y19335477D01*
X65486666Y19335477D02*
X65391428Y19383096D01*
X65391428Y19383096D02*
X65343809Y19430715D01*
X65343809Y19430715D02*
X65296190Y19525953D01*
X65296190Y19525953D02*
X65248571Y19716429D01*
X65248571Y19716429D02*
X65200952Y19811667D01*
X65200952Y19811667D02*
X65153333Y19859286D01*
X65153333Y19859286D02*
X65058095Y19906905D01*
X65058095Y19906905D02*
X64962857Y19906905D01*
X64962857Y19906905D02*
X64867619Y19859286D01*
X64867619Y19859286D02*
X64820000Y19811667D01*
X64820000Y19811667D02*
X64772380Y19716429D01*
X64772380Y19716429D02*
X64772380Y19478334D01*
X64772380Y19478334D02*
X64820000Y19335477D01*
X65677142Y18335477D02*
X65724761Y18383096D01*
X65724761Y18383096D02*
X65772380Y18525953D01*
X65772380Y18525953D02*
X65772380Y18621191D01*
X65772380Y18621191D02*
X65724761Y18764048D01*
X65724761Y18764048D02*
X65629523Y18859286D01*
X65629523Y18859286D02*
X65534285Y18906905D01*
X65534285Y18906905D02*
X65343809Y18954524D01*
X65343809Y18954524D02*
X65200952Y18954524D01*
X65200952Y18954524D02*
X65010476Y18906905D01*
X65010476Y18906905D02*
X64915238Y18859286D01*
X64915238Y18859286D02*
X64820000Y18764048D01*
X64820000Y18764048D02*
X64772380Y18621191D01*
X64772380Y18621191D02*
X64772380Y18525953D01*
X64772380Y18525953D02*
X64820000Y18383096D01*
X64820000Y18383096D02*
X64867619Y18335477D01*
X65772380Y17906905D02*
X64772380Y17906905D01*
X65772380Y17335477D02*
X65200952Y17764048D01*
X64772380Y17335477D02*
X65343809Y17906905D01*
X60692380Y24590477D02*
X60216190Y24923810D01*
X60692380Y25161905D02*
X59692380Y25161905D01*
X59692380Y25161905D02*
X59692380Y24780953D01*
X59692380Y24780953D02*
X59740000Y24685715D01*
X59740000Y24685715D02*
X59787619Y24638096D01*
X59787619Y24638096D02*
X59882857Y24590477D01*
X59882857Y24590477D02*
X60025714Y24590477D01*
X60025714Y24590477D02*
X60120952Y24638096D01*
X60120952Y24638096D02*
X60168571Y24685715D01*
X60168571Y24685715D02*
X60216190Y24780953D01*
X60216190Y24780953D02*
X60216190Y25161905D01*
X60597142Y23590477D02*
X60644761Y23638096D01*
X60644761Y23638096D02*
X60692380Y23780953D01*
X60692380Y23780953D02*
X60692380Y23876191D01*
X60692380Y23876191D02*
X60644761Y24019048D01*
X60644761Y24019048D02*
X60549523Y24114286D01*
X60549523Y24114286D02*
X60454285Y24161905D01*
X60454285Y24161905D02*
X60263809Y24209524D01*
X60263809Y24209524D02*
X60120952Y24209524D01*
X60120952Y24209524D02*
X59930476Y24161905D01*
X59930476Y24161905D02*
X59835238Y24114286D01*
X59835238Y24114286D02*
X59740000Y24019048D01*
X59740000Y24019048D02*
X59692380Y23876191D01*
X59692380Y23876191D02*
X59692380Y23780953D01*
X59692380Y23780953D02*
X59740000Y23638096D01*
X59740000Y23638096D02*
X59787619Y23590477D01*
X59787619Y23209524D02*
X59740000Y23161905D01*
X59740000Y23161905D02*
X59692380Y23066667D01*
X59692380Y23066667D02*
X59692380Y22828572D01*
X59692380Y22828572D02*
X59740000Y22733334D01*
X59740000Y22733334D02*
X59787619Y22685715D01*
X59787619Y22685715D02*
X59882857Y22638096D01*
X59882857Y22638096D02*
X59978095Y22638096D01*
X59978095Y22638096D02*
X60120952Y22685715D01*
X60120952Y22685715D02*
X60692380Y23257143D01*
X60692380Y23257143D02*
X60692380Y22638096D01*
X60597142Y22209524D02*
X60644761Y22161905D01*
X60644761Y22161905D02*
X60692380Y22209524D01*
X60692380Y22209524D02*
X60644761Y22257143D01*
X60644761Y22257143D02*
X60597142Y22209524D01*
X60597142Y22209524D02*
X60692380Y22209524D01*
X60073333Y22209524D02*
X60120952Y22161905D01*
X60120952Y22161905D02*
X60168571Y22209524D01*
X60168571Y22209524D02*
X60120952Y22257143D01*
X60120952Y22257143D02*
X60073333Y22209524D01*
X60073333Y22209524D02*
X60168571Y22209524D01*
X60692380Y20525952D02*
X59692380Y20525952D01*
X59692380Y20525952D02*
X60406666Y20192619D01*
X60406666Y20192619D02*
X59692380Y19859286D01*
X59692380Y19859286D02*
X60692380Y19859286D01*
X60692380Y19383095D02*
X59692380Y19383095D01*
X60644761Y18954524D02*
X60692380Y18811667D01*
X60692380Y18811667D02*
X60692380Y18573572D01*
X60692380Y18573572D02*
X60644761Y18478334D01*
X60644761Y18478334D02*
X60597142Y18430715D01*
X60597142Y18430715D02*
X60501904Y18383096D01*
X60501904Y18383096D02*
X60406666Y18383096D01*
X60406666Y18383096D02*
X60311428Y18430715D01*
X60311428Y18430715D02*
X60263809Y18478334D01*
X60263809Y18478334D02*
X60216190Y18573572D01*
X60216190Y18573572D02*
X60168571Y18764048D01*
X60168571Y18764048D02*
X60120952Y18859286D01*
X60120952Y18859286D02*
X60073333Y18906905D01*
X60073333Y18906905D02*
X59978095Y18954524D01*
X59978095Y18954524D02*
X59882857Y18954524D01*
X59882857Y18954524D02*
X59787619Y18906905D01*
X59787619Y18906905D02*
X59740000Y18859286D01*
X59740000Y18859286D02*
X59692380Y18764048D01*
X59692380Y18764048D02*
X59692380Y18525953D01*
X59692380Y18525953D02*
X59740000Y18383096D01*
X59692380Y17764048D02*
X59692380Y17573572D01*
X59692380Y17573572D02*
X59740000Y17478334D01*
X59740000Y17478334D02*
X59835238Y17383096D01*
X59835238Y17383096D02*
X60025714Y17335477D01*
X60025714Y17335477D02*
X60359047Y17335477D01*
X60359047Y17335477D02*
X60549523Y17383096D01*
X60549523Y17383096D02*
X60644761Y17478334D01*
X60644761Y17478334D02*
X60692380Y17573572D01*
X60692380Y17573572D02*
X60692380Y17764048D01*
X60692380Y17764048D02*
X60644761Y17859286D01*
X60644761Y17859286D02*
X60549523Y17954524D01*
X60549523Y17954524D02*
X60359047Y18002143D01*
X60359047Y18002143D02*
X60025714Y18002143D01*
X60025714Y18002143D02*
X59835238Y17954524D01*
X59835238Y17954524D02*
X59740000Y17859286D01*
X59740000Y17859286D02*
X59692380Y17764048D01*
X63232380Y20525952D02*
X62232380Y20525952D01*
X62232380Y20525952D02*
X62946666Y20192619D01*
X62946666Y20192619D02*
X62232380Y19859286D01*
X62232380Y19859286D02*
X63232380Y19859286D01*
X62232380Y19192619D02*
X62232380Y19002143D01*
X62232380Y19002143D02*
X62280000Y18906905D01*
X62280000Y18906905D02*
X62375238Y18811667D01*
X62375238Y18811667D02*
X62565714Y18764048D01*
X62565714Y18764048D02*
X62899047Y18764048D01*
X62899047Y18764048D02*
X63089523Y18811667D01*
X63089523Y18811667D02*
X63184761Y18906905D01*
X63184761Y18906905D02*
X63232380Y19002143D01*
X63232380Y19002143D02*
X63232380Y19192619D01*
X63232380Y19192619D02*
X63184761Y19287857D01*
X63184761Y19287857D02*
X63089523Y19383095D01*
X63089523Y19383095D02*
X62899047Y19430714D01*
X62899047Y19430714D02*
X62565714Y19430714D01*
X62565714Y19430714D02*
X62375238Y19383095D01*
X62375238Y19383095D02*
X62280000Y19287857D01*
X62280000Y19287857D02*
X62232380Y19192619D01*
X63184761Y18383095D02*
X63232380Y18240238D01*
X63232380Y18240238D02*
X63232380Y18002143D01*
X63232380Y18002143D02*
X63184761Y17906905D01*
X63184761Y17906905D02*
X63137142Y17859286D01*
X63137142Y17859286D02*
X63041904Y17811667D01*
X63041904Y17811667D02*
X62946666Y17811667D01*
X62946666Y17811667D02*
X62851428Y17859286D01*
X62851428Y17859286D02*
X62803809Y17906905D01*
X62803809Y17906905D02*
X62756190Y18002143D01*
X62756190Y18002143D02*
X62708571Y18192619D01*
X62708571Y18192619D02*
X62660952Y18287857D01*
X62660952Y18287857D02*
X62613333Y18335476D01*
X62613333Y18335476D02*
X62518095Y18383095D01*
X62518095Y18383095D02*
X62422857Y18383095D01*
X62422857Y18383095D02*
X62327619Y18335476D01*
X62327619Y18335476D02*
X62280000Y18287857D01*
X62280000Y18287857D02*
X62232380Y18192619D01*
X62232380Y18192619D02*
X62232380Y17954524D01*
X62232380Y17954524D02*
X62280000Y17811667D01*
X63232380Y17383095D02*
X62232380Y17383095D01*
X63232380Y24590477D02*
X62756190Y24923810D01*
X63232380Y25161905D02*
X62232380Y25161905D01*
X62232380Y25161905D02*
X62232380Y24780953D01*
X62232380Y24780953D02*
X62280000Y24685715D01*
X62280000Y24685715D02*
X62327619Y24638096D01*
X62327619Y24638096D02*
X62422857Y24590477D01*
X62422857Y24590477D02*
X62565714Y24590477D01*
X62565714Y24590477D02*
X62660952Y24638096D01*
X62660952Y24638096D02*
X62708571Y24685715D01*
X62708571Y24685715D02*
X62756190Y24780953D01*
X62756190Y24780953D02*
X62756190Y25161905D01*
X63137142Y23590477D02*
X63184761Y23638096D01*
X63184761Y23638096D02*
X63232380Y23780953D01*
X63232380Y23780953D02*
X63232380Y23876191D01*
X63232380Y23876191D02*
X63184761Y24019048D01*
X63184761Y24019048D02*
X63089523Y24114286D01*
X63089523Y24114286D02*
X62994285Y24161905D01*
X62994285Y24161905D02*
X62803809Y24209524D01*
X62803809Y24209524D02*
X62660952Y24209524D01*
X62660952Y24209524D02*
X62470476Y24161905D01*
X62470476Y24161905D02*
X62375238Y24114286D01*
X62375238Y24114286D02*
X62280000Y24019048D01*
X62280000Y24019048D02*
X62232380Y23876191D01*
X62232380Y23876191D02*
X62232380Y23780953D01*
X62232380Y23780953D02*
X62280000Y23638096D01*
X62280000Y23638096D02*
X62327619Y23590477D01*
X62232380Y22971429D02*
X62232380Y22876191D01*
X62232380Y22876191D02*
X62280000Y22780953D01*
X62280000Y22780953D02*
X62327619Y22733334D01*
X62327619Y22733334D02*
X62422857Y22685715D01*
X62422857Y22685715D02*
X62613333Y22638096D01*
X62613333Y22638096D02*
X62851428Y22638096D01*
X62851428Y22638096D02*
X63041904Y22685715D01*
X63041904Y22685715D02*
X63137142Y22733334D01*
X63137142Y22733334D02*
X63184761Y22780953D01*
X63184761Y22780953D02*
X63232380Y22876191D01*
X63232380Y22876191D02*
X63232380Y22971429D01*
X63232380Y22971429D02*
X63184761Y23066667D01*
X63184761Y23066667D02*
X63137142Y23114286D01*
X63137142Y23114286D02*
X63041904Y23161905D01*
X63041904Y23161905D02*
X62851428Y23209524D01*
X62851428Y23209524D02*
X62613333Y23209524D01*
X62613333Y23209524D02*
X62422857Y23161905D01*
X62422857Y23161905D02*
X62327619Y23114286D01*
X62327619Y23114286D02*
X62280000Y23066667D01*
X62280000Y23066667D02*
X62232380Y22971429D01*
X63137142Y22209524D02*
X63184761Y22161905D01*
X63184761Y22161905D02*
X63232380Y22209524D01*
X63232380Y22209524D02*
X63184761Y22257143D01*
X63184761Y22257143D02*
X63137142Y22209524D01*
X63137142Y22209524D02*
X63232380Y22209524D01*
X62613333Y22209524D02*
X62660952Y22161905D01*
X62660952Y22161905D02*
X62708571Y22209524D01*
X62708571Y22209524D02*
X62660952Y22257143D01*
X62660952Y22257143D02*
X62613333Y22209524D01*
X62613333Y22209524D02*
X62708571Y22209524D01*
X68312380Y24590477D02*
X67836190Y24923810D01*
X68312380Y25161905D02*
X67312380Y25161905D01*
X67312380Y25161905D02*
X67312380Y24780953D01*
X67312380Y24780953D02*
X67360000Y24685715D01*
X67360000Y24685715D02*
X67407619Y24638096D01*
X67407619Y24638096D02*
X67502857Y24590477D01*
X67502857Y24590477D02*
X67645714Y24590477D01*
X67645714Y24590477D02*
X67740952Y24638096D01*
X67740952Y24638096D02*
X67788571Y24685715D01*
X67788571Y24685715D02*
X67836190Y24780953D01*
X67836190Y24780953D02*
X67836190Y25161905D01*
X67788571Y24161905D02*
X67788571Y23828572D01*
X68312380Y23685715D02*
X68312380Y24161905D01*
X68312380Y24161905D02*
X67312380Y24161905D01*
X67312380Y24161905D02*
X67312380Y23685715D01*
X67407619Y23304762D02*
X67360000Y23257143D01*
X67360000Y23257143D02*
X67312380Y23161905D01*
X67312380Y23161905D02*
X67312380Y22923810D01*
X67312380Y22923810D02*
X67360000Y22828572D01*
X67360000Y22828572D02*
X67407619Y22780953D01*
X67407619Y22780953D02*
X67502857Y22733334D01*
X67502857Y22733334D02*
X67598095Y22733334D01*
X67598095Y22733334D02*
X67740952Y22780953D01*
X67740952Y22780953D02*
X68312380Y23352381D01*
X68312380Y23352381D02*
X68312380Y22733334D01*
X68217142Y22304762D02*
X68264761Y22257143D01*
X68264761Y22257143D02*
X68312380Y22304762D01*
X68312380Y22304762D02*
X68264761Y22352381D01*
X68264761Y22352381D02*
X68217142Y22304762D01*
X68217142Y22304762D02*
X68312380Y22304762D01*
X67693333Y22304762D02*
X67740952Y22257143D01*
X67740952Y22257143D02*
X67788571Y22304762D01*
X67788571Y22304762D02*
X67740952Y22352381D01*
X67740952Y22352381D02*
X67693333Y22304762D01*
X67693333Y22304762D02*
X67788571Y22304762D01*
X13987380Y29860476D02*
X12987380Y29860476D01*
X12987380Y29860476D02*
X13701666Y29527143D01*
X13701666Y29527143D02*
X12987380Y29193810D01*
X12987380Y29193810D02*
X13987380Y29193810D01*
X13463571Y28717619D02*
X13463571Y28384286D01*
X13987380Y28241429D02*
X13987380Y28717619D01*
X13987380Y28717619D02*
X12987380Y28717619D01*
X12987380Y28717619D02*
X12987380Y28241429D01*
X12987380Y27908095D02*
X12987380Y27241429D01*
X12987380Y27241429D02*
X13987380Y27908095D01*
X13987380Y27908095D02*
X13987380Y27241429D01*
X13415952Y26717619D02*
X13368333Y26812857D01*
X13368333Y26812857D02*
X13320714Y26860476D01*
X13320714Y26860476D02*
X13225476Y26908095D01*
X13225476Y26908095D02*
X13177857Y26908095D01*
X13177857Y26908095D02*
X13082619Y26860476D01*
X13082619Y26860476D02*
X13035000Y26812857D01*
X13035000Y26812857D02*
X12987380Y26717619D01*
X12987380Y26717619D02*
X12987380Y26527143D01*
X12987380Y26527143D02*
X13035000Y26431905D01*
X13035000Y26431905D02*
X13082619Y26384286D01*
X13082619Y26384286D02*
X13177857Y26336667D01*
X13177857Y26336667D02*
X13225476Y26336667D01*
X13225476Y26336667D02*
X13320714Y26384286D01*
X13320714Y26384286D02*
X13368333Y26431905D01*
X13368333Y26431905D02*
X13415952Y26527143D01*
X13415952Y26527143D02*
X13415952Y26717619D01*
X13415952Y26717619D02*
X13463571Y26812857D01*
X13463571Y26812857D02*
X13511190Y26860476D01*
X13511190Y26860476D02*
X13606428Y26908095D01*
X13606428Y26908095D02*
X13796904Y26908095D01*
X13796904Y26908095D02*
X13892142Y26860476D01*
X13892142Y26860476D02*
X13939761Y26812857D01*
X13939761Y26812857D02*
X13987380Y26717619D01*
X13987380Y26717619D02*
X13987380Y26527143D01*
X13987380Y26527143D02*
X13939761Y26431905D01*
X13939761Y26431905D02*
X13892142Y26384286D01*
X13892142Y26384286D02*
X13796904Y26336667D01*
X13796904Y26336667D02*
X13606428Y26336667D01*
X13606428Y26336667D02*
X13511190Y26384286D01*
X13511190Y26384286D02*
X13463571Y26431905D01*
X13463571Y26431905D02*
X13415952Y26527143D01*
X12987380Y25717619D02*
X12987380Y25622381D01*
X12987380Y25622381D02*
X13035000Y25527143D01*
X13035000Y25527143D02*
X13082619Y25479524D01*
X13082619Y25479524D02*
X13177857Y25431905D01*
X13177857Y25431905D02*
X13368333Y25384286D01*
X13368333Y25384286D02*
X13606428Y25384286D01*
X13606428Y25384286D02*
X13796904Y25431905D01*
X13796904Y25431905D02*
X13892142Y25479524D01*
X13892142Y25479524D02*
X13939761Y25527143D01*
X13939761Y25527143D02*
X13987380Y25622381D01*
X13987380Y25622381D02*
X13987380Y25717619D01*
X13987380Y25717619D02*
X13939761Y25812857D01*
X13939761Y25812857D02*
X13892142Y25860476D01*
X13892142Y25860476D02*
X13796904Y25908095D01*
X13796904Y25908095D02*
X13606428Y25955714D01*
X13606428Y25955714D02*
X13368333Y25955714D01*
X13368333Y25955714D02*
X13177857Y25908095D01*
X13177857Y25908095D02*
X13082619Y25860476D01*
X13082619Y25860476D02*
X13035000Y25812857D01*
X13035000Y25812857D02*
X12987380Y25717619D01*
X13939761Y25003333D02*
X13987380Y24860476D01*
X13987380Y24860476D02*
X13987380Y24622381D01*
X13987380Y24622381D02*
X13939761Y24527143D01*
X13939761Y24527143D02*
X13892142Y24479524D01*
X13892142Y24479524D02*
X13796904Y24431905D01*
X13796904Y24431905D02*
X13701666Y24431905D01*
X13701666Y24431905D02*
X13606428Y24479524D01*
X13606428Y24479524D02*
X13558809Y24527143D01*
X13558809Y24527143D02*
X13511190Y24622381D01*
X13511190Y24622381D02*
X13463571Y24812857D01*
X13463571Y24812857D02*
X13415952Y24908095D01*
X13415952Y24908095D02*
X13368333Y24955714D01*
X13368333Y24955714D02*
X13273095Y25003333D01*
X13273095Y25003333D02*
X13177857Y25003333D01*
X13177857Y25003333D02*
X13082619Y24955714D01*
X13082619Y24955714D02*
X13035000Y24908095D01*
X13035000Y24908095D02*
X12987380Y24812857D01*
X12987380Y24812857D02*
X12987380Y24574762D01*
X12987380Y24574762D02*
X13035000Y24431905D01*
X13987380Y24003333D02*
X12987380Y24003333D01*
X12987380Y24003333D02*
X12987380Y23765238D01*
X12987380Y23765238D02*
X13035000Y23622381D01*
X13035000Y23622381D02*
X13130238Y23527143D01*
X13130238Y23527143D02*
X13225476Y23479524D01*
X13225476Y23479524D02*
X13415952Y23431905D01*
X13415952Y23431905D02*
X13558809Y23431905D01*
X13558809Y23431905D02*
X13749285Y23479524D01*
X13749285Y23479524D02*
X13844523Y23527143D01*
X13844523Y23527143D02*
X13939761Y23622381D01*
X13939761Y23622381D02*
X13987380Y23765238D01*
X13987380Y23765238D02*
X13987380Y24003333D01*
X15607380Y37308096D02*
X14607380Y37308096D01*
X14607380Y37308096D02*
X15321666Y36974763D01*
X15321666Y36974763D02*
X14607380Y36641430D01*
X14607380Y36641430D02*
X15607380Y36641430D01*
X15559761Y35784287D02*
X15607380Y35879525D01*
X15607380Y35879525D02*
X15607380Y36070001D01*
X15607380Y36070001D02*
X15559761Y36165239D01*
X15559761Y36165239D02*
X15464523Y36212858D01*
X15464523Y36212858D02*
X15083571Y36212858D01*
X15083571Y36212858D02*
X14988333Y36165239D01*
X14988333Y36165239D02*
X14940714Y36070001D01*
X14940714Y36070001D02*
X14940714Y35879525D01*
X14940714Y35879525D02*
X14988333Y35784287D01*
X14988333Y35784287D02*
X15083571Y35736668D01*
X15083571Y35736668D02*
X15178809Y35736668D01*
X15178809Y35736668D02*
X15274047Y36212858D01*
X14940714Y35403334D02*
X14940714Y34879525D01*
X14940714Y34879525D02*
X15607380Y35403334D01*
X15607380Y35403334D02*
X15607380Y34879525D01*
X14940714Y34593810D02*
X14940714Y34070001D01*
X14940714Y34070001D02*
X15607380Y34593810D01*
X15607380Y34593810D02*
X15607380Y34070001D01*
X15607380Y33260477D02*
X15083571Y33260477D01*
X15083571Y33260477D02*
X14988333Y33308096D01*
X14988333Y33308096D02*
X14940714Y33403334D01*
X14940714Y33403334D02*
X14940714Y33593810D01*
X14940714Y33593810D02*
X14988333Y33689048D01*
X15559761Y33260477D02*
X15607380Y33355715D01*
X15607380Y33355715D02*
X15607380Y33593810D01*
X15607380Y33593810D02*
X15559761Y33689048D01*
X15559761Y33689048D02*
X15464523Y33736667D01*
X15464523Y33736667D02*
X15369285Y33736667D01*
X15369285Y33736667D02*
X15274047Y33689048D01*
X15274047Y33689048D02*
X15226428Y33593810D01*
X15226428Y33593810D02*
X15226428Y33355715D01*
X15226428Y33355715D02*
X15178809Y33260477D01*
X14940714Y32784286D02*
X15607380Y32784286D01*
X15035952Y32784286D02*
X14988333Y32736667D01*
X14988333Y32736667D02*
X14940714Y32641429D01*
X14940714Y32641429D02*
X14940714Y32498572D01*
X14940714Y32498572D02*
X14988333Y32403334D01*
X14988333Y32403334D02*
X15083571Y32355715D01*
X15083571Y32355715D02*
X15607380Y32355715D01*
X15607380Y31879524D02*
X14940714Y31879524D01*
X14607380Y31879524D02*
X14655000Y31927143D01*
X14655000Y31927143D02*
X14702619Y31879524D01*
X14702619Y31879524D02*
X14655000Y31831905D01*
X14655000Y31831905D02*
X14607380Y31879524D01*
X14607380Y31879524D02*
X14702619Y31879524D01*
X14940714Y31403334D02*
X15607380Y31403334D01*
X15035952Y31403334D02*
X14988333Y31355715D01*
X14988333Y31355715D02*
X14940714Y31260477D01*
X14940714Y31260477D02*
X14940714Y31117620D01*
X14940714Y31117620D02*
X14988333Y31022382D01*
X14988333Y31022382D02*
X15083571Y30974763D01*
X15083571Y30974763D02*
X15607380Y30974763D01*
X15559761Y30117620D02*
X15607380Y30212858D01*
X15607380Y30212858D02*
X15607380Y30403334D01*
X15607380Y30403334D02*
X15559761Y30498572D01*
X15559761Y30498572D02*
X15464523Y30546191D01*
X15464523Y30546191D02*
X15083571Y30546191D01*
X15083571Y30546191D02*
X14988333Y30498572D01*
X14988333Y30498572D02*
X14940714Y30403334D01*
X14940714Y30403334D02*
X14940714Y30212858D01*
X14940714Y30212858D02*
X14988333Y30117620D01*
X14988333Y30117620D02*
X15083571Y30070001D01*
X15083571Y30070001D02*
X15178809Y30070001D01*
X15178809Y30070001D02*
X15274047Y30546191D01*
X15607380Y29041429D02*
X14607380Y29041429D01*
X14988333Y29041429D02*
X14940714Y28946191D01*
X14940714Y28946191D02*
X14940714Y28755715D01*
X14940714Y28755715D02*
X14988333Y28660477D01*
X14988333Y28660477D02*
X15035952Y28612858D01*
X15035952Y28612858D02*
X15131190Y28565239D01*
X15131190Y28565239D02*
X15416904Y28565239D01*
X15416904Y28565239D02*
X15512142Y28612858D01*
X15512142Y28612858D02*
X15559761Y28660477D01*
X15559761Y28660477D02*
X15607380Y28755715D01*
X15607380Y28755715D02*
X15607380Y28946191D01*
X15607380Y28946191D02*
X15559761Y29041429D01*
X15607380Y27993810D02*
X15559761Y28089048D01*
X15559761Y28089048D02*
X15512142Y28136667D01*
X15512142Y28136667D02*
X15416904Y28184286D01*
X15416904Y28184286D02*
X15131190Y28184286D01*
X15131190Y28184286D02*
X15035952Y28136667D01*
X15035952Y28136667D02*
X14988333Y28089048D01*
X14988333Y28089048D02*
X14940714Y27993810D01*
X14940714Y27993810D02*
X14940714Y27850953D01*
X14940714Y27850953D02*
X14988333Y27755715D01*
X14988333Y27755715D02*
X15035952Y27708096D01*
X15035952Y27708096D02*
X15131190Y27660477D01*
X15131190Y27660477D02*
X15416904Y27660477D01*
X15416904Y27660477D02*
X15512142Y27708096D01*
X15512142Y27708096D02*
X15559761Y27755715D01*
X15559761Y27755715D02*
X15607380Y27850953D01*
X15607380Y27850953D02*
X15607380Y27993810D01*
X15607380Y26803334D02*
X15083571Y26803334D01*
X15083571Y26803334D02*
X14988333Y26850953D01*
X14988333Y26850953D02*
X14940714Y26946191D01*
X14940714Y26946191D02*
X14940714Y27136667D01*
X14940714Y27136667D02*
X14988333Y27231905D01*
X15559761Y26803334D02*
X15607380Y26898572D01*
X15607380Y26898572D02*
X15607380Y27136667D01*
X15607380Y27136667D02*
X15559761Y27231905D01*
X15559761Y27231905D02*
X15464523Y27279524D01*
X15464523Y27279524D02*
X15369285Y27279524D01*
X15369285Y27279524D02*
X15274047Y27231905D01*
X15274047Y27231905D02*
X15226428Y27136667D01*
X15226428Y27136667D02*
X15226428Y26898572D01*
X15226428Y26898572D02*
X15178809Y26803334D01*
X15607380Y26327143D02*
X14940714Y26327143D01*
X15131190Y26327143D02*
X15035952Y26279524D01*
X15035952Y26279524D02*
X14988333Y26231905D01*
X14988333Y26231905D02*
X14940714Y26136667D01*
X14940714Y26136667D02*
X14940714Y26041429D01*
X15607380Y25279524D02*
X14607380Y25279524D01*
X15559761Y25279524D02*
X15607380Y25374762D01*
X15607380Y25374762D02*
X15607380Y25565238D01*
X15607380Y25565238D02*
X15559761Y25660476D01*
X15559761Y25660476D02*
X15512142Y25708095D01*
X15512142Y25708095D02*
X15416904Y25755714D01*
X15416904Y25755714D02*
X15131190Y25755714D01*
X15131190Y25755714D02*
X15035952Y25708095D01*
X15035952Y25708095D02*
X14988333Y25660476D01*
X14988333Y25660476D02*
X14940714Y25565238D01*
X14940714Y25565238D02*
X14940714Y25374762D01*
X14940714Y25374762D02*
X14988333Y25279524D01*
X14940714Y24346190D02*
X14940714Y23965238D01*
X15607380Y24203333D02*
X14750238Y24203333D01*
X14750238Y24203333D02*
X14655000Y24155714D01*
X14655000Y24155714D02*
X14607380Y24060476D01*
X14607380Y24060476D02*
X14607380Y23965238D01*
X15607380Y23489047D02*
X15559761Y23584285D01*
X15559761Y23584285D02*
X15512142Y23631904D01*
X15512142Y23631904D02*
X15416904Y23679523D01*
X15416904Y23679523D02*
X15131190Y23679523D01*
X15131190Y23679523D02*
X15035952Y23631904D01*
X15035952Y23631904D02*
X14988333Y23584285D01*
X14988333Y23584285D02*
X14940714Y23489047D01*
X14940714Y23489047D02*
X14940714Y23346190D01*
X14940714Y23346190D02*
X14988333Y23250952D01*
X14988333Y23250952D02*
X15035952Y23203333D01*
X15035952Y23203333D02*
X15131190Y23155714D01*
X15131190Y23155714D02*
X15416904Y23155714D01*
X15416904Y23155714D02*
X15512142Y23203333D01*
X15512142Y23203333D02*
X15559761Y23250952D01*
X15559761Y23250952D02*
X15607380Y23346190D01*
X15607380Y23346190D02*
X15607380Y23489047D01*
X15607380Y22727142D02*
X14940714Y22727142D01*
X15131190Y22727142D02*
X15035952Y22679523D01*
X15035952Y22679523D02*
X14988333Y22631904D01*
X14988333Y22631904D02*
X14940714Y22536666D01*
X14940714Y22536666D02*
X14940714Y22441428D01*
X15083571Y21508094D02*
X15083571Y21174761D01*
X15607380Y21031904D02*
X15607380Y21508094D01*
X15607380Y21508094D02*
X14607380Y21508094D01*
X14607380Y21508094D02*
X14607380Y21031904D01*
X15607380Y20603332D02*
X14607380Y20603332D01*
X14607380Y20603332D02*
X15321666Y20269999D01*
X15321666Y20269999D02*
X14607380Y19936666D01*
X14607380Y19936666D02*
X15607380Y19936666D01*
X14607380Y19460475D02*
X15416904Y19460475D01*
X15416904Y19460475D02*
X15512142Y19412856D01*
X15512142Y19412856D02*
X15559761Y19365237D01*
X15559761Y19365237D02*
X15607380Y19269999D01*
X15607380Y19269999D02*
X15607380Y19079523D01*
X15607380Y19079523D02*
X15559761Y18984285D01*
X15559761Y18984285D02*
X15512142Y18936666D01*
X15512142Y18936666D02*
X15416904Y18889047D01*
X15416904Y18889047D02*
X14607380Y18889047D01*
X14607380Y18508094D02*
X14607380Y17841428D01*
X14607380Y17841428D02*
X15607380Y18508094D01*
X15607380Y18508094D02*
X15607380Y17841428D01*
X15035952Y17317618D02*
X14988333Y17412856D01*
X14988333Y17412856D02*
X14940714Y17460475D01*
X14940714Y17460475D02*
X14845476Y17508094D01*
X14845476Y17508094D02*
X14797857Y17508094D01*
X14797857Y17508094D02*
X14702619Y17460475D01*
X14702619Y17460475D02*
X14655000Y17412856D01*
X14655000Y17412856D02*
X14607380Y17317618D01*
X14607380Y17317618D02*
X14607380Y17127142D01*
X14607380Y17127142D02*
X14655000Y17031904D01*
X14655000Y17031904D02*
X14702619Y16984285D01*
X14702619Y16984285D02*
X14797857Y16936666D01*
X14797857Y16936666D02*
X14845476Y16936666D01*
X14845476Y16936666D02*
X14940714Y16984285D01*
X14940714Y16984285D02*
X14988333Y17031904D01*
X14988333Y17031904D02*
X15035952Y17127142D01*
X15035952Y17127142D02*
X15035952Y17317618D01*
X15035952Y17317618D02*
X15083571Y17412856D01*
X15083571Y17412856D02*
X15131190Y17460475D01*
X15131190Y17460475D02*
X15226428Y17508094D01*
X15226428Y17508094D02*
X15416904Y17508094D01*
X15416904Y17508094D02*
X15512142Y17460475D01*
X15512142Y17460475D02*
X15559761Y17412856D01*
X15559761Y17412856D02*
X15607380Y17317618D01*
X15607380Y17317618D02*
X15607380Y17127142D01*
X15607380Y17127142D02*
X15559761Y17031904D01*
X15559761Y17031904D02*
X15512142Y16984285D01*
X15512142Y16984285D02*
X15416904Y16936666D01*
X15416904Y16936666D02*
X15226428Y16936666D01*
X15226428Y16936666D02*
X15131190Y16984285D01*
X15131190Y16984285D02*
X15083571Y17031904D01*
X15083571Y17031904D02*
X15035952Y17127142D01*
X14607380Y16317618D02*
X14607380Y16222380D01*
X14607380Y16222380D02*
X14655000Y16127142D01*
X14655000Y16127142D02*
X14702619Y16079523D01*
X14702619Y16079523D02*
X14797857Y16031904D01*
X14797857Y16031904D02*
X14988333Y15984285D01*
X14988333Y15984285D02*
X15226428Y15984285D01*
X15226428Y15984285D02*
X15416904Y16031904D01*
X15416904Y16031904D02*
X15512142Y16079523D01*
X15512142Y16079523D02*
X15559761Y16127142D01*
X15559761Y16127142D02*
X15607380Y16222380D01*
X15607380Y16222380D02*
X15607380Y16317618D01*
X15607380Y16317618D02*
X15559761Y16412856D01*
X15559761Y16412856D02*
X15512142Y16460475D01*
X15512142Y16460475D02*
X15416904Y16508094D01*
X15416904Y16508094D02*
X15226428Y16555713D01*
X15226428Y16555713D02*
X14988333Y16555713D01*
X14988333Y16555713D02*
X14797857Y16508094D01*
X14797857Y16508094D02*
X14702619Y16460475D01*
X14702619Y16460475D02*
X14655000Y16412856D01*
X14655000Y16412856D02*
X14607380Y16317618D01*
X17227380Y42622382D02*
X16227380Y42622382D01*
X17227380Y42193811D02*
X16703571Y42193811D01*
X16703571Y42193811D02*
X16608333Y42241430D01*
X16608333Y42241430D02*
X16560714Y42336668D01*
X16560714Y42336668D02*
X16560714Y42479525D01*
X16560714Y42479525D02*
X16608333Y42574763D01*
X16608333Y42574763D02*
X16655952Y42622382D01*
X16560714Y41860477D02*
X16560714Y41479525D01*
X16227380Y41717620D02*
X17084523Y41717620D01*
X17084523Y41717620D02*
X17179761Y41670001D01*
X17179761Y41670001D02*
X17227380Y41574763D01*
X17227380Y41574763D02*
X17227380Y41479525D01*
X16560714Y41289048D02*
X16560714Y40908096D01*
X16227380Y41146191D02*
X17084523Y41146191D01*
X17084523Y41146191D02*
X17179761Y41098572D01*
X17179761Y41098572D02*
X17227380Y41003334D01*
X17227380Y41003334D02*
X17227380Y40908096D01*
X16560714Y40574762D02*
X17560714Y40574762D01*
X16608333Y40574762D02*
X16560714Y40479524D01*
X16560714Y40479524D02*
X16560714Y40289048D01*
X16560714Y40289048D02*
X16608333Y40193810D01*
X16608333Y40193810D02*
X16655952Y40146191D01*
X16655952Y40146191D02*
X16751190Y40098572D01*
X16751190Y40098572D02*
X17036904Y40098572D01*
X17036904Y40098572D02*
X17132142Y40146191D01*
X17132142Y40146191D02*
X17179761Y40193810D01*
X17179761Y40193810D02*
X17227380Y40289048D01*
X17227380Y40289048D02*
X17227380Y40479524D01*
X17227380Y40479524D02*
X17179761Y40574762D01*
X17179761Y39717619D02*
X17227380Y39622381D01*
X17227380Y39622381D02*
X17227380Y39431905D01*
X17227380Y39431905D02*
X17179761Y39336667D01*
X17179761Y39336667D02*
X17084523Y39289048D01*
X17084523Y39289048D02*
X17036904Y39289048D01*
X17036904Y39289048D02*
X16941666Y39336667D01*
X16941666Y39336667D02*
X16894047Y39431905D01*
X16894047Y39431905D02*
X16894047Y39574762D01*
X16894047Y39574762D02*
X16846428Y39670000D01*
X16846428Y39670000D02*
X16751190Y39717619D01*
X16751190Y39717619D02*
X16703571Y39717619D01*
X16703571Y39717619D02*
X16608333Y39670000D01*
X16608333Y39670000D02*
X16560714Y39574762D01*
X16560714Y39574762D02*
X16560714Y39431905D01*
X16560714Y39431905D02*
X16608333Y39336667D01*
X17132142Y38860476D02*
X17179761Y38812857D01*
X17179761Y38812857D02*
X17227380Y38860476D01*
X17227380Y38860476D02*
X17179761Y38908095D01*
X17179761Y38908095D02*
X17132142Y38860476D01*
X17132142Y38860476D02*
X17227380Y38860476D01*
X16608333Y38860476D02*
X16655952Y38812857D01*
X16655952Y38812857D02*
X16703571Y38860476D01*
X16703571Y38860476D02*
X16655952Y38908095D01*
X16655952Y38908095D02*
X16608333Y38860476D01*
X16608333Y38860476D02*
X16703571Y38860476D01*
X16179761Y37670001D02*
X17465476Y38527143D01*
X16179761Y36622382D02*
X17465476Y37479524D01*
X16560714Y35860477D02*
X17370238Y35860477D01*
X17370238Y35860477D02*
X17465476Y35908096D01*
X17465476Y35908096D02*
X17513095Y35955715D01*
X17513095Y35955715D02*
X17560714Y36050953D01*
X17560714Y36050953D02*
X17560714Y36193810D01*
X17560714Y36193810D02*
X17513095Y36289048D01*
X17179761Y35860477D02*
X17227380Y35955715D01*
X17227380Y35955715D02*
X17227380Y36146191D01*
X17227380Y36146191D02*
X17179761Y36241429D01*
X17179761Y36241429D02*
X17132142Y36289048D01*
X17132142Y36289048D02*
X17036904Y36336667D01*
X17036904Y36336667D02*
X16751190Y36336667D01*
X16751190Y36336667D02*
X16655952Y36289048D01*
X16655952Y36289048D02*
X16608333Y36241429D01*
X16608333Y36241429D02*
X16560714Y36146191D01*
X16560714Y36146191D02*
X16560714Y35955715D01*
X16560714Y35955715D02*
X16608333Y35860477D01*
X17227380Y35384286D02*
X16560714Y35384286D01*
X16227380Y35384286D02*
X16275000Y35431905D01*
X16275000Y35431905D02*
X16322619Y35384286D01*
X16322619Y35384286D02*
X16275000Y35336667D01*
X16275000Y35336667D02*
X16227380Y35384286D01*
X16227380Y35384286D02*
X16322619Y35384286D01*
X16560714Y35050953D02*
X16560714Y34670001D01*
X16227380Y34908096D02*
X17084523Y34908096D01*
X17084523Y34908096D02*
X17179761Y34860477D01*
X17179761Y34860477D02*
X17227380Y34765239D01*
X17227380Y34765239D02*
X17227380Y34670001D01*
X17227380Y34336667D02*
X16227380Y34336667D01*
X17227380Y33908096D02*
X16703571Y33908096D01*
X16703571Y33908096D02*
X16608333Y33955715D01*
X16608333Y33955715D02*
X16560714Y34050953D01*
X16560714Y34050953D02*
X16560714Y34193810D01*
X16560714Y34193810D02*
X16608333Y34289048D01*
X16608333Y34289048D02*
X16655952Y34336667D01*
X16560714Y33003334D02*
X17227380Y33003334D01*
X16560714Y33431905D02*
X17084523Y33431905D01*
X17084523Y33431905D02*
X17179761Y33384286D01*
X17179761Y33384286D02*
X17227380Y33289048D01*
X17227380Y33289048D02*
X17227380Y33146191D01*
X17227380Y33146191D02*
X17179761Y33050953D01*
X17179761Y33050953D02*
X17132142Y33003334D01*
X17227380Y32527143D02*
X16227380Y32527143D01*
X16608333Y32527143D02*
X16560714Y32431905D01*
X16560714Y32431905D02*
X16560714Y32241429D01*
X16560714Y32241429D02*
X16608333Y32146191D01*
X16608333Y32146191D02*
X16655952Y32098572D01*
X16655952Y32098572D02*
X16751190Y32050953D01*
X16751190Y32050953D02*
X17036904Y32050953D01*
X17036904Y32050953D02*
X17132142Y32098572D01*
X17132142Y32098572D02*
X17179761Y32146191D01*
X17179761Y32146191D02*
X17227380Y32241429D01*
X17227380Y32241429D02*
X17227380Y32431905D01*
X17227380Y32431905D02*
X17179761Y32527143D01*
X17132142Y31622381D02*
X17179761Y31574762D01*
X17179761Y31574762D02*
X17227380Y31622381D01*
X17227380Y31622381D02*
X17179761Y31670000D01*
X17179761Y31670000D02*
X17132142Y31622381D01*
X17132142Y31622381D02*
X17227380Y31622381D01*
X17179761Y30717620D02*
X17227380Y30812858D01*
X17227380Y30812858D02*
X17227380Y31003334D01*
X17227380Y31003334D02*
X17179761Y31098572D01*
X17179761Y31098572D02*
X17132142Y31146191D01*
X17132142Y31146191D02*
X17036904Y31193810D01*
X17036904Y31193810D02*
X16751190Y31193810D01*
X16751190Y31193810D02*
X16655952Y31146191D01*
X16655952Y31146191D02*
X16608333Y31098572D01*
X16608333Y31098572D02*
X16560714Y31003334D01*
X16560714Y31003334D02*
X16560714Y30812858D01*
X16560714Y30812858D02*
X16608333Y30717620D01*
X17227380Y30146191D02*
X17179761Y30241429D01*
X17179761Y30241429D02*
X17132142Y30289048D01*
X17132142Y30289048D02*
X17036904Y30336667D01*
X17036904Y30336667D02*
X16751190Y30336667D01*
X16751190Y30336667D02*
X16655952Y30289048D01*
X16655952Y30289048D02*
X16608333Y30241429D01*
X16608333Y30241429D02*
X16560714Y30146191D01*
X16560714Y30146191D02*
X16560714Y30003334D01*
X16560714Y30003334D02*
X16608333Y29908096D01*
X16608333Y29908096D02*
X16655952Y29860477D01*
X16655952Y29860477D02*
X16751190Y29812858D01*
X16751190Y29812858D02*
X17036904Y29812858D01*
X17036904Y29812858D02*
X17132142Y29860477D01*
X17132142Y29860477D02*
X17179761Y29908096D01*
X17179761Y29908096D02*
X17227380Y30003334D01*
X17227380Y30003334D02*
X17227380Y30146191D01*
X17227380Y29384286D02*
X16560714Y29384286D01*
X16655952Y29384286D02*
X16608333Y29336667D01*
X16608333Y29336667D02*
X16560714Y29241429D01*
X16560714Y29241429D02*
X16560714Y29098572D01*
X16560714Y29098572D02*
X16608333Y29003334D01*
X16608333Y29003334D02*
X16703571Y28955715D01*
X16703571Y28955715D02*
X17227380Y28955715D01*
X16703571Y28955715D02*
X16608333Y28908096D01*
X16608333Y28908096D02*
X16560714Y28812858D01*
X16560714Y28812858D02*
X16560714Y28670001D01*
X16560714Y28670001D02*
X16608333Y28574762D01*
X16608333Y28574762D02*
X16703571Y28527143D01*
X16703571Y28527143D02*
X17227380Y28527143D01*
X16179761Y27336668D02*
X17465476Y28193810D01*
X17179761Y27050953D02*
X17227380Y26955715D01*
X17227380Y26955715D02*
X17227380Y26765239D01*
X17227380Y26765239D02*
X17179761Y26670001D01*
X17179761Y26670001D02*
X17084523Y26622382D01*
X17084523Y26622382D02*
X17036904Y26622382D01*
X17036904Y26622382D02*
X16941666Y26670001D01*
X16941666Y26670001D02*
X16894047Y26765239D01*
X16894047Y26765239D02*
X16894047Y26908096D01*
X16894047Y26908096D02*
X16846428Y27003334D01*
X16846428Y27003334D02*
X16751190Y27050953D01*
X16751190Y27050953D02*
X16703571Y27050953D01*
X16703571Y27050953D02*
X16608333Y27003334D01*
X16608333Y27003334D02*
X16560714Y26908096D01*
X16560714Y26908096D02*
X16560714Y26765239D01*
X16560714Y26765239D02*
X16608333Y26670001D01*
X17227380Y25765239D02*
X16703571Y25765239D01*
X16703571Y25765239D02*
X16608333Y25812858D01*
X16608333Y25812858D02*
X16560714Y25908096D01*
X16560714Y25908096D02*
X16560714Y26098572D01*
X16560714Y26098572D02*
X16608333Y26193810D01*
X17179761Y25765239D02*
X17227380Y25860477D01*
X17227380Y25860477D02*
X17227380Y26098572D01*
X17227380Y26098572D02*
X17179761Y26193810D01*
X17179761Y26193810D02*
X17084523Y26241429D01*
X17084523Y26241429D02*
X16989285Y26241429D01*
X16989285Y26241429D02*
X16894047Y26193810D01*
X16894047Y26193810D02*
X16846428Y26098572D01*
X16846428Y26098572D02*
X16846428Y25860477D01*
X16846428Y25860477D02*
X16798809Y25765239D01*
X16560714Y25431905D02*
X16560714Y25050953D01*
X16227380Y25289048D02*
X17084523Y25289048D01*
X17084523Y25289048D02*
X17179761Y25241429D01*
X17179761Y25241429D02*
X17227380Y25146191D01*
X17227380Y25146191D02*
X17227380Y25050953D01*
X17227380Y24574762D02*
X17179761Y24670000D01*
X17179761Y24670000D02*
X17132142Y24717619D01*
X17132142Y24717619D02*
X17036904Y24765238D01*
X17036904Y24765238D02*
X16751190Y24765238D01*
X16751190Y24765238D02*
X16655952Y24717619D01*
X16655952Y24717619D02*
X16608333Y24670000D01*
X16608333Y24670000D02*
X16560714Y24574762D01*
X16560714Y24574762D02*
X16560714Y24431905D01*
X16560714Y24431905D02*
X16608333Y24336667D01*
X16608333Y24336667D02*
X16655952Y24289048D01*
X16655952Y24289048D02*
X16751190Y24241429D01*
X16751190Y24241429D02*
X17036904Y24241429D01*
X17036904Y24241429D02*
X17132142Y24289048D01*
X17132142Y24289048D02*
X17179761Y24336667D01*
X17179761Y24336667D02*
X17227380Y24431905D01*
X17227380Y24431905D02*
X17227380Y24574762D01*
X17179761Y23860476D02*
X17227380Y23765238D01*
X17227380Y23765238D02*
X17227380Y23574762D01*
X17227380Y23574762D02*
X17179761Y23479524D01*
X17179761Y23479524D02*
X17084523Y23431905D01*
X17084523Y23431905D02*
X17036904Y23431905D01*
X17036904Y23431905D02*
X16941666Y23479524D01*
X16941666Y23479524D02*
X16894047Y23574762D01*
X16894047Y23574762D02*
X16894047Y23717619D01*
X16894047Y23717619D02*
X16846428Y23812857D01*
X16846428Y23812857D02*
X16751190Y23860476D01*
X16751190Y23860476D02*
X16703571Y23860476D01*
X16703571Y23860476D02*
X16608333Y23812857D01*
X16608333Y23812857D02*
X16560714Y23717619D01*
X16560714Y23717619D02*
X16560714Y23574762D01*
X16560714Y23574762D02*
X16608333Y23479524D01*
X17227380Y23003333D02*
X16227380Y23003333D01*
X17227380Y22574762D02*
X16703571Y22574762D01*
X16703571Y22574762D02*
X16608333Y22622381D01*
X16608333Y22622381D02*
X16560714Y22717619D01*
X16560714Y22717619D02*
X16560714Y22860476D01*
X16560714Y22860476D02*
X16608333Y22955714D01*
X16608333Y22955714D02*
X16655952Y23003333D01*
X17227380Y22098571D02*
X16560714Y22098571D01*
X16227380Y22098571D02*
X16275000Y22146190D01*
X16275000Y22146190D02*
X16322619Y22098571D01*
X16322619Y22098571D02*
X16275000Y22050952D01*
X16275000Y22050952D02*
X16227380Y22098571D01*
X16227380Y22098571D02*
X16322619Y22098571D01*
X17227380Y21479524D02*
X17179761Y21574762D01*
X17179761Y21574762D02*
X17132142Y21622381D01*
X17132142Y21622381D02*
X17036904Y21670000D01*
X17036904Y21670000D02*
X16751190Y21670000D01*
X16751190Y21670000D02*
X16655952Y21622381D01*
X16655952Y21622381D02*
X16608333Y21574762D01*
X16608333Y21574762D02*
X16560714Y21479524D01*
X16560714Y21479524D02*
X16560714Y21336667D01*
X16560714Y21336667D02*
X16608333Y21241429D01*
X16608333Y21241429D02*
X16655952Y21193810D01*
X16655952Y21193810D02*
X16751190Y21146191D01*
X16751190Y21146191D02*
X17036904Y21146191D01*
X17036904Y21146191D02*
X17132142Y21193810D01*
X17132142Y21193810D02*
X17179761Y21241429D01*
X17179761Y21241429D02*
X17227380Y21336667D01*
X17227380Y21336667D02*
X17227380Y21479524D01*
X17227380Y20717619D02*
X16227380Y20717619D01*
X16846428Y20622381D02*
X17227380Y20336667D01*
X16560714Y20336667D02*
X16941666Y20717619D01*
X16560714Y19479524D02*
X17227380Y19479524D01*
X16560714Y19908095D02*
X17084523Y19908095D01*
X17084523Y19908095D02*
X17179761Y19860476D01*
X17179761Y19860476D02*
X17227380Y19765238D01*
X17227380Y19765238D02*
X17227380Y19622381D01*
X17227380Y19622381D02*
X17179761Y19527143D01*
X17179761Y19527143D02*
X17132142Y19479524D01*
X17179761Y18622381D02*
X17227380Y18717619D01*
X17227380Y18717619D02*
X17227380Y18908095D01*
X17227380Y18908095D02*
X17179761Y19003333D01*
X17179761Y19003333D02*
X17084523Y19050952D01*
X17084523Y19050952D02*
X16703571Y19050952D01*
X16703571Y19050952D02*
X16608333Y19003333D01*
X16608333Y19003333D02*
X16560714Y18908095D01*
X16560714Y18908095D02*
X16560714Y18717619D01*
X16560714Y18717619D02*
X16608333Y18622381D01*
X16608333Y18622381D02*
X16703571Y18574762D01*
X16703571Y18574762D02*
X16798809Y18574762D01*
X16798809Y18574762D02*
X16894047Y19050952D01*
X16179761Y17431905D02*
X17465476Y18289047D01*
X17227380Y17098571D02*
X16227380Y17098571D01*
X16227380Y17098571D02*
X16941666Y16765238D01*
X16941666Y16765238D02*
X16227380Y16431905D01*
X16227380Y16431905D02*
X17227380Y16431905D01*
X16703571Y15955714D02*
X16703571Y15622381D01*
X17227380Y15479524D02*
X17227380Y15955714D01*
X17227380Y15955714D02*
X16227380Y15955714D01*
X16227380Y15955714D02*
X16227380Y15479524D01*
X16227380Y15146190D02*
X16227380Y14479524D01*
X16227380Y14479524D02*
X17227380Y15146190D01*
X17227380Y15146190D02*
X17227380Y14479524D01*
X16655952Y13955714D02*
X16608333Y14050952D01*
X16608333Y14050952D02*
X16560714Y14098571D01*
X16560714Y14098571D02*
X16465476Y14146190D01*
X16465476Y14146190D02*
X16417857Y14146190D01*
X16417857Y14146190D02*
X16322619Y14098571D01*
X16322619Y14098571D02*
X16275000Y14050952D01*
X16275000Y14050952D02*
X16227380Y13955714D01*
X16227380Y13955714D02*
X16227380Y13765238D01*
X16227380Y13765238D02*
X16275000Y13670000D01*
X16275000Y13670000D02*
X16322619Y13622381D01*
X16322619Y13622381D02*
X16417857Y13574762D01*
X16417857Y13574762D02*
X16465476Y13574762D01*
X16465476Y13574762D02*
X16560714Y13622381D01*
X16560714Y13622381D02*
X16608333Y13670000D01*
X16608333Y13670000D02*
X16655952Y13765238D01*
X16655952Y13765238D02*
X16655952Y13955714D01*
X16655952Y13955714D02*
X16703571Y14050952D01*
X16703571Y14050952D02*
X16751190Y14098571D01*
X16751190Y14098571D02*
X16846428Y14146190D01*
X16846428Y14146190D02*
X17036904Y14146190D01*
X17036904Y14146190D02*
X17132142Y14098571D01*
X17132142Y14098571D02*
X17179761Y14050952D01*
X17179761Y14050952D02*
X17227380Y13955714D01*
X17227380Y13955714D02*
X17227380Y13765238D01*
X17227380Y13765238D02*
X17179761Y13670000D01*
X17179761Y13670000D02*
X17132142Y13622381D01*
X17132142Y13622381D02*
X17036904Y13574762D01*
X17036904Y13574762D02*
X16846428Y13574762D01*
X16846428Y13574762D02*
X16751190Y13622381D01*
X16751190Y13622381D02*
X16703571Y13670000D01*
X16703571Y13670000D02*
X16655952Y13765238D01*
X16227380Y12955714D02*
X16227380Y12860476D01*
X16227380Y12860476D02*
X16275000Y12765238D01*
X16275000Y12765238D02*
X16322619Y12717619D01*
X16322619Y12717619D02*
X16417857Y12670000D01*
X16417857Y12670000D02*
X16608333Y12622381D01*
X16608333Y12622381D02*
X16846428Y12622381D01*
X16846428Y12622381D02*
X17036904Y12670000D01*
X17036904Y12670000D02*
X17132142Y12717619D01*
X17132142Y12717619D02*
X17179761Y12765238D01*
X17179761Y12765238D02*
X17227380Y12860476D01*
X17227380Y12860476D02*
X17227380Y12955714D01*
X17227380Y12955714D02*
X17179761Y13050952D01*
X17179761Y13050952D02*
X17132142Y13098571D01*
X17132142Y13098571D02*
X17036904Y13146190D01*
X17036904Y13146190D02*
X16846428Y13193809D01*
X16846428Y13193809D02*
X16608333Y13193809D01*
X16608333Y13193809D02*
X16417857Y13146190D01*
X16417857Y13146190D02*
X16322619Y13098571D01*
X16322619Y13098571D02*
X16275000Y13050952D01*
X16275000Y13050952D02*
X16227380Y12955714D01*
X17179761Y12241428D02*
X17227380Y12098571D01*
X17227380Y12098571D02*
X17227380Y11860476D01*
X17227380Y11860476D02*
X17179761Y11765238D01*
X17179761Y11765238D02*
X17132142Y11717619D01*
X17132142Y11717619D02*
X17036904Y11670000D01*
X17036904Y11670000D02*
X16941666Y11670000D01*
X16941666Y11670000D02*
X16846428Y11717619D01*
X16846428Y11717619D02*
X16798809Y11765238D01*
X16798809Y11765238D02*
X16751190Y11860476D01*
X16751190Y11860476D02*
X16703571Y12050952D01*
X16703571Y12050952D02*
X16655952Y12146190D01*
X16655952Y12146190D02*
X16608333Y12193809D01*
X16608333Y12193809D02*
X16513095Y12241428D01*
X16513095Y12241428D02*
X16417857Y12241428D01*
X16417857Y12241428D02*
X16322619Y12193809D01*
X16322619Y12193809D02*
X16275000Y12146190D01*
X16275000Y12146190D02*
X16227380Y12050952D01*
X16227380Y12050952D02*
X16227380Y11812857D01*
X16227380Y11812857D02*
X16275000Y11670000D01*
X17227380Y11241428D02*
X16227380Y11241428D01*
X16227380Y11241428D02*
X16227380Y11003333D01*
X16227380Y11003333D02*
X16275000Y10860476D01*
X16275000Y10860476D02*
X16370238Y10765238D01*
X16370238Y10765238D02*
X16465476Y10717619D01*
X16465476Y10717619D02*
X16655952Y10670000D01*
X16655952Y10670000D02*
X16798809Y10670000D01*
X16798809Y10670000D02*
X16989285Y10717619D01*
X16989285Y10717619D02*
X17084523Y10765238D01*
X17084523Y10765238D02*
X17179761Y10860476D01*
X17179761Y10860476D02*
X17227380Y11003333D01*
X17227380Y11003333D02*
X17227380Y11241428D01*
X57152380Y19906905D02*
X58152380Y19573572D01*
X58152380Y19573572D02*
X57152380Y19240239D01*
X58057142Y18335477D02*
X58104761Y18383096D01*
X58104761Y18383096D02*
X58152380Y18525953D01*
X58152380Y18525953D02*
X58152380Y18621191D01*
X58152380Y18621191D02*
X58104761Y18764048D01*
X58104761Y18764048D02*
X58009523Y18859286D01*
X58009523Y18859286D02*
X57914285Y18906905D01*
X57914285Y18906905D02*
X57723809Y18954524D01*
X57723809Y18954524D02*
X57580952Y18954524D01*
X57580952Y18954524D02*
X57390476Y18906905D01*
X57390476Y18906905D02*
X57295238Y18859286D01*
X57295238Y18859286D02*
X57200000Y18764048D01*
X57200000Y18764048D02*
X57152380Y18621191D01*
X57152380Y18621191D02*
X57152380Y18525953D01*
X57152380Y18525953D02*
X57200000Y18383096D01*
X57200000Y18383096D02*
X57247619Y18335477D01*
X58057142Y17335477D02*
X58104761Y17383096D01*
X58104761Y17383096D02*
X58152380Y17525953D01*
X58152380Y17525953D02*
X58152380Y17621191D01*
X58152380Y17621191D02*
X58104761Y17764048D01*
X58104761Y17764048D02*
X58009523Y17859286D01*
X58009523Y17859286D02*
X57914285Y17906905D01*
X57914285Y17906905D02*
X57723809Y17954524D01*
X57723809Y17954524D02*
X57580952Y17954524D01*
X57580952Y17954524D02*
X57390476Y17906905D01*
X57390476Y17906905D02*
X57295238Y17859286D01*
X57295238Y17859286D02*
X57200000Y17764048D01*
X57200000Y17764048D02*
X57152380Y17621191D01*
X57152380Y17621191D02*
X57152380Y17525953D01*
X57152380Y17525953D02*
X57200000Y17383096D01*
X57200000Y17383096D02*
X57247619Y17335477D01*
X65772380Y24590477D02*
X65296190Y24923810D01*
X65772380Y25161905D02*
X64772380Y25161905D01*
X64772380Y25161905D02*
X64772380Y24780953D01*
X64772380Y24780953D02*
X64820000Y24685715D01*
X64820000Y24685715D02*
X64867619Y24638096D01*
X64867619Y24638096D02*
X64962857Y24590477D01*
X64962857Y24590477D02*
X65105714Y24590477D01*
X65105714Y24590477D02*
X65200952Y24638096D01*
X65200952Y24638096D02*
X65248571Y24685715D01*
X65248571Y24685715D02*
X65296190Y24780953D01*
X65296190Y24780953D02*
X65296190Y25161905D01*
X65677142Y23590477D02*
X65724761Y23638096D01*
X65724761Y23638096D02*
X65772380Y23780953D01*
X65772380Y23780953D02*
X65772380Y23876191D01*
X65772380Y23876191D02*
X65724761Y24019048D01*
X65724761Y24019048D02*
X65629523Y24114286D01*
X65629523Y24114286D02*
X65534285Y24161905D01*
X65534285Y24161905D02*
X65343809Y24209524D01*
X65343809Y24209524D02*
X65200952Y24209524D01*
X65200952Y24209524D02*
X65010476Y24161905D01*
X65010476Y24161905D02*
X64915238Y24114286D01*
X64915238Y24114286D02*
X64820000Y24019048D01*
X64820000Y24019048D02*
X64772380Y23876191D01*
X64772380Y23876191D02*
X64772380Y23780953D01*
X64772380Y23780953D02*
X64820000Y23638096D01*
X64820000Y23638096D02*
X64867619Y23590477D01*
X65772380Y22638096D02*
X65772380Y23209524D01*
X65772380Y22923810D02*
X64772380Y22923810D01*
X64772380Y22923810D02*
X64915238Y23019048D01*
X64915238Y23019048D02*
X65010476Y23114286D01*
X65010476Y23114286D02*
X65058095Y23209524D01*
X65677142Y22209524D02*
X65724761Y22161905D01*
X65724761Y22161905D02*
X65772380Y22209524D01*
X65772380Y22209524D02*
X65724761Y22257143D01*
X65724761Y22257143D02*
X65677142Y22209524D01*
X65677142Y22209524D02*
X65772380Y22209524D01*
X65153333Y22209524D02*
X65200952Y22161905D01*
X65200952Y22161905D02*
X65248571Y22209524D01*
X65248571Y22209524D02*
X65200952Y22257143D01*
X65200952Y22257143D02*
X65153333Y22209524D01*
X65153333Y22209524D02*
X65248571Y22209524D01*
X5418333Y53767620D02*
X5418333Y53053334D01*
X5418333Y53053334D02*
X5465952Y52910477D01*
X5465952Y52910477D02*
X5561190Y52815239D01*
X5561190Y52815239D02*
X5704047Y52767620D01*
X5704047Y52767620D02*
X5799285Y52767620D01*
X4418333Y52767620D02*
X4989761Y52767620D01*
X4704047Y52767620D02*
X4704047Y53767620D01*
X4704047Y53767620D02*
X4799285Y53624762D01*
X4799285Y53624762D02*
X4894523Y53529524D01*
X4894523Y53529524D02*
X4989761Y53481905D01*
X25738333Y53762620D02*
X25738333Y53048334D01*
X25738333Y53048334D02*
X25785952Y52905477D01*
X25785952Y52905477D02*
X25881190Y52810239D01*
X25881190Y52810239D02*
X26024047Y52762620D01*
X26024047Y52762620D02*
X26119285Y52762620D01*
X25309761Y53667381D02*
X25262142Y53715000D01*
X25262142Y53715000D02*
X25166904Y53762620D01*
X25166904Y53762620D02*
X24928809Y53762620D01*
X24928809Y53762620D02*
X24833571Y53715000D01*
X24833571Y53715000D02*
X24785952Y53667381D01*
X24785952Y53667381D02*
X24738333Y53572143D01*
X24738333Y53572143D02*
X24738333Y53476905D01*
X24738333Y53476905D02*
X24785952Y53334048D01*
X24785952Y53334048D02*
X25357380Y52762620D01*
X25357380Y52762620D02*
X24738333Y52762620D01*
D11*
X6415000Y1215000D02*
X3755000Y1215000D01*
X6415000Y49535000D02*
X6415000Y1215000D01*
X6415000Y49535000D02*
X3755000Y49535000D01*
X6415000Y50805000D02*
X6415000Y52135000D01*
X6415000Y52135000D02*
X5085000Y52135000D01*
X3755000Y49535000D02*
X3755000Y1215000D01*
X26735000Y1210000D02*
X24075000Y1210000D01*
X26735000Y49530000D02*
X26735000Y1210000D01*
X26735000Y49530000D02*
X24075000Y49530000D01*
X26735000Y50800000D02*
X26735000Y52130000D01*
X26735000Y52130000D02*
X25405000Y52130000D01*
X24075000Y49530000D02*
X24075000Y1210000D01*
M02*
